<?xml version="1.0" encoding="UTF-8" standalone="no"?>
<!-- Created with Inkscape (http://www.inkscape.org/) -->

<svg
   version="1.1"
   id="svg2"
   width="4850.4131"
   height="2666.6667"
   viewBox="0 0 4850.4131 2666.6667"
   sodipodi:docname="11235238_10479.eps"
   xmlns:inkscape="http://www.inkscape.org/namespaces/inkscape"
   xmlns:sodipodi="http://sodipodi.sourceforge.net/DTD/sodipodi-0.dtd"
   xmlns="http://www.w3.org/2000/svg"
   xmlns:svg="http://www.w3.org/2000/svg">
  <defs
     id="defs6" />
  <sodipodi:namedview
     id="namedview4"
     pagecolor="#ffffff"
     bordercolor="#FFFFFF000"
     borderopacity="0.25"
     inkscape:showpageshadow="2"
     inkscape:pageopacity="0.0"
     inkscape:pagecheckerboard="0"
     inkscape:deskcolor="#d1d1d1" />
  <g
     id="g8"
     inkscape:groupmode="layer"
     inkscape:label="ink_ext_XXXXXX"
     transform="matrix(1.3333333,0,0,-1.3333333,0,2666.6667)">
    <g
       id="g10"
       transform="scale(0.1)">
      <path
         d="M 36378.1,0 H 0 V 20000 H 36378.1 V 0"
         style="fill:#ffffff;fill-opacity:0;fill-rule:nonzero;stroke:none"
         id="path12" />
      <path
         d="m 31808.8,1911.7 c 1820,2656.1 3955.9,9445.1 -294.5,9042.7 731.7,7441.5 -8338,10021 -11187.6,5297.3 -2074.4,3404 -7616.3,2864.1 -8849.4,644.5 C 7660.94,18096 4016.89,15784.3 2685.76,12425.6 1392.4,9162.3 2784.14,3878.8 5834.66,1952.8 c 15754.14,0 25974.14,-41.1 25974.14,-41.1"
         style="fill:#dae8fd;fill-opacity:1;fill-rule:nonzero;stroke:none"
         id="path14" />
      <path
         d="m 30843.3,1884.2 c 0,0 -1777.2,5460.8 -6102.2,7555.7 -2846.7,1379 -1063.2,-1682.6 -1063.2,-1682.6 0,0 -3626.8,3221.5 -5238.8,3112.3 -1838.7,-124.6 -107.9,-2956.8 -107.9,-2956.8 0,0 -2100.8,1682.4 -3414.5,1140.3 C 12813,8185 16662,1979.6 16662,1979.6 l 14181.3,-95.4"
         style="fill:#86b1f2;fill-opacity:1;fill-rule:nonzero;stroke:none"
         id="path16" />
      <path
         d="m 18935.5,1979.6 c 0,0 -2679,5031.9 -5980.7,5167 -2654,108.6 -848.1,-3380.5 -1006.6,-3246.8 -158.4,133.7 -1455.5,2022.2 -3711.05,2022.2 -2255.52,0 692.38,-2693.1 692.38,-2693.1 0,0 -4805.65,1266.1 -5181.94,-63.4 C 3435.28,2062.1 5181.87,1979.6 5181.87,1979.6 H 18935.5"
         style="fill:#9bc1f9;fill-opacity:1;fill-rule:nonzero;stroke:none"
         id="path18" />
      <path
         d="M 30221.7,4279.8 C 29987.6,3542.9 29881,2765.3 29912,1978 h -29.6 c -27.5,771.6 77.4,1547.4 311.1,2283.5 54.2,171.1 108.7,371.3 268.4,475.2 3.1,2 5.7,-2.8 2.8,-4.9 -143.6,-103 -192.2,-292 -243,-452"
         style="fill:#466eb6;fill-opacity:1;fill-rule:nonzero;stroke:none"
         id="path20" />
      <path
         d="m 30016,1978 c 286,732.6 681.5,1445 1200.2,2111.3 5.2,6.7 17,-2.3 11.8,-9.1 C 30738.1,3440.5 30342.4,2734 30052.7,1978 h -36.7"
         style="fill:#466eb6;fill-opacity:1;fill-rule:nonzero;stroke:none"
         id="path22" />
      <path
         d="m 30153.9,4679.8 c 14.5,-12.5 64.8,-41.6 90.5,-90.8 28.9,-45.3 33.2,-110.7 31.3,-108.8 -2.7,-2.1 35.2,52.4 32.8,122.3 2.9,68.4 -34.4,152.1 -66.8,174.5 -60.1,54.2 -136.1,40.9 -142,5.3 -6.8,-35.7 24.1,-73.4 54.2,-102.5"
         style="fill:#466eb6;fill-opacity:1;fill-rule:nonzero;stroke:none"
         id="path24" />
      <path
         d="m 30400.8,4144.2 c -17.9,6.6 -67.7,36.6 -123.1,35.4 -53.7,3.4 -113,-24.5 -110.5,-25.2 -0.5,-3.4 28.9,56.1 91.2,87.8 58.5,35.5 149.9,43.3 185.2,25.8 76.4,-26.4 101.5,-99.4 73.2,-121.8 -28,-23.2 -76,-14.4 -116,-2"
         style="fill:#466eb6;fill-opacity:1;fill-rule:nonzero;stroke:none"
         id="path26" />
      <path
         d="m 30321.4,3859.1 c -17.9,6.6 -67.7,36.7 -123.1,35.4 -53.7,3.4 -113,-24.4 -110.5,-25.2 -0.5,-3.3 28.9,56.1 91.2,87.8 58.5,35.6 149.9,43.4 185.2,25.8 76.4,-26.4 101.5,-99.4 73.1,-121.8 -27.9,-23.2 -75.9,-14.3 -115.9,-2"
         style="fill:#466eb6;fill-opacity:1;fill-rule:nonzero;stroke:none"
         id="path28" />
      <path
         d="m 30993,3427.4 c -17.9,6.6 -67.7,36.6 -123.1,35.4 -53.7,3.4 -113,-24.4 -110.5,-25.2 -0.5,-3.3 28.9,56.1 91.3,87.8 58.5,35.6 149.9,43.4 185.1,25.8 76.4,-26.4 101.5,-99.4 73.2,-121.8 -27.9,-23.2 -75.9,-14.3 -116,-2"
         style="fill:#466eb6;fill-opacity:1;fill-rule:nonzero;stroke:none"
         id="path30" />
      <path
         d="m 31195.4,3731.9 c -17.9,6.6 -67.7,36.6 -123.1,35.4 -53.7,3.4 -113,-24.4 -110.5,-25.2 -0.5,-3.3 28.9,56.1 91.3,87.8 58.4,35.5 149.8,43.3 185.1,25.8 76.4,-26.4 101.5,-99.4 73.2,-121.8 -28,-23.2 -75.9,-14.4 -116,-2"
         style="fill:#466eb6;fill-opacity:1;fill-rule:nonzero;stroke:none"
         id="path32" />
      <path
         d="m 30025.1,4346.8 c 16.3,-10 70.6,-30.9 103.7,-75.3 35.7,-40.3 50.2,-104.1 48.1,-102.6 -2.3,-2.5 26.4,57.3 13.1,125.9 -8,68 -58,144.9 -93.5,161.9 -67.9,44 -140.9,18.9 -141.1,-17.2 -1.1,-36.3 35.4,-68.7 69.7,-92.7"
         style="fill:#466eb6;fill-opacity:1;fill-rule:nonzero;stroke:none"
         id="path34" />
      <path
         d="m 29886.2,4010.4 c 20.5,-4.7 88,-5.2 132.2,-43.7 47,-32.3 70.8,-102.7 68,-101.9 -2.5,-3.9 26.3,81.1 3.5,157.8 -16.2,78.3 -84,148.2 -128.5,152.6 -86.1,22.2 -171.6,-41.1 -168.3,-84.7 2.1,-44.3 49.3,-66.8 93.1,-80.1"
         style="fill:#466eb6;fill-opacity:1;fill-rule:nonzero;stroke:none"
         id="path36" />
      <path
         d="m 29774.4,3527.4 c 21.1,-1.2 87.7,9.7 137.8,-20.9 51.8,-23.9 87,-89.2 84.1,-88.9 -1.8,-4.4 12.3,84.3 -23,156.1 -29.2,74.4 -107.8,132 -152.4,128.8 -88.6,7.5 -162.3,-69.4 -151.7,-111.8 9.6,-43.3 59.9,-57.5 105.2,-63.3"
         style="fill:#466eb6;fill-opacity:1;fill-rule:nonzero;stroke:none"
         id="path38" />
      <path
         d="m 30519.3,3411.5 c 16.4,-5 71.3,-9.2 105.1,-43.1 36.4,-28.9 51.7,-87.5 49.5,-86.7 -2.3,-3.1 26,64.5 11.8,128.1 -8.7,64.6 -59.9,125.4 -95.8,131.5 -68.8,23 -142,-23.7 -141.8,-59.4 -0.7,-36.1 36.3,-57.1 71.2,-70.4"
         style="fill:#466eb6;fill-opacity:1;fill-rule:nonzero;stroke:none"
         id="path40" />
      <path
         d="m 30550.8,4680.1 c -10.3,4.7 -38.5,24.6 -71.3,26.3 -31.6,4.4 -67.9,-9.5 -66.5,-10.1 -0.4,-1.9 19.6,32 57.8,48 36.2,18.5 90.6,19.1 110.7,7.2 44,-19 55.7,-63.3 37.9,-75.3 -17.5,-12.5 -45.5,-5.2 -68.6,3.9"
         style="fill:#466eb6;fill-opacity:1;fill-rule:nonzero;stroke:none"
         id="path42" />
      <path
         d="m 30421.9,4838.1 c 3.3,-10.9 19.3,-41.4 16.6,-74.2 0.2,-31.9 -18.4,-66.1 -18.8,-64.5 -1.9,-0.2 34.3,15.1 55.2,50.9 23.1,33.4 30.9,87.3 21.8,108.7 -13,46.2 -55.3,63.7 -69.6,47.6 -14.7,-15.7 -11.2,-44.4 -5.2,-68.5"
         style="fill:#466eb6;fill-opacity:1;fill-rule:nonzero;stroke:none"
         id="path44" />
      <path
         d="m 31322.5,4020.8 c -10.3,4.7 -38.5,24.6 -71.3,26.3 -31.6,4.4 -67.9,-9.5 -66.5,-10 -0.4,-2 19.6,31.9 57.8,47.9 36.2,18.5 90.6,19.1 110.7,7.2 44.1,-19 55.7,-63.3 38,-75.3 -17.6,-12.5 -45.6,-5.1 -68.7,3.9"
         style="fill:#466eb6;fill-opacity:1;fill-rule:nonzero;stroke:none"
         id="path46" />
      <path
         d="m 31176.5,4175.8 c 4.2,-10.5 22.7,-39.6 22.7,-72.5 2.8,-31.8 -12.9,-67.3 -13.4,-65.8 -2,-0.4 32.8,17.9 50.8,55.3 20.3,35.1 23.6,89.4 12.8,110.1 -16.8,45 -60.4,58.9 -73.3,41.7 -13.4,-16.8 -7.5,-45.2 0.4,-68.8"
         style="fill:#466eb6;fill-opacity:1;fill-rule:nonzero;stroke:none"
         id="path48" />
      <path
         d="m 15248.5,4994.3 c 689.9,-685.1 1291.3,-1461.5 1740.9,-2325 126.2,-242.4 233,-491.8 343.1,-741.7 14.6,-33.1 71.2,-9.5 58.9,24.8 -12.3,34.3 -24.6,68.5 -36.9,102.8 -7.2,20.1 -43.6,19.1 -40.4,-5.5 4.7,-35.3 9.3,-70.5 13.9,-105.8 21.2,2.8 42.3,5.7 63.4,8.5 -171,451.5 -408.4,886.6 -663.7,1295.3 -765.5,1224.8 -1558,1824.9 -1479.2,1746.6 v 0"
         style="fill:#466eb6;fill-opacity:1;fill-rule:nonzero;stroke:none"
         id="path50" />
      <path
         d="m 16104.6,4622.5 c -20.4,-23.2 -94.7,-81.5 -124.7,-166.1 -36.2,-79.5 -28.3,-185.4 -25.6,-182.1 4.7,-2.6 -68.4,76.3 -80.4,189 -20.1,109.2 20.8,252.2 67.7,295.5 84.2,100.6 209.3,96.6 226.8,40.6 19.1,-55.7 -22,-123.3 -63.8,-176.9"
         style="fill:#466eb6;fill-opacity:1;fill-rule:nonzero;stroke:none"
         id="path52" />
      <path
         d="m 15636.2,5123.9 c -20.4,-23.3 -94.6,-81.5 -124.7,-166.2 -36.2,-79.5 -28.2,-185.4 -25.6,-182 4.7,-2.7 -68.3,76.2 -80.4,188.9 -20.1,109.2 20.8,252.3 67.7,295.6 84.2,100.5 209.3,96.5 226.8,40.6 19.1,-55.7 -22,-123.4 -63.8,-176.9"
         style="fill:#466eb6;fill-opacity:1;fill-rule:nonzero;stroke:none"
         id="path54" />
      <path
         d="m 15129.9,4686.5 c 26.5,15.9 96.7,78.9 185.4,93.8 84.5,21.8 187.4,-4.5 183.6,-6.6 1.8,-5.1 -63.1,80.6 -172,112.2 -104,38.8 -252,23.5 -302.8,-15.2 -113.7,-65.4 -131.5,-189.2 -79.5,-216.3 51.5,-28.5 125.3,0.2 185.3,32.1"
         style="fill:#466eb6;fill-opacity:1;fill-rule:nonzero;stroke:none"
         id="path56" />
      <path
         d="m 15626.8,4142.4 c 26.5,16.1 96.8,79 185.4,93.9 84.5,21.8 187.4,-4.5 183.7,-6.6 1.8,-5.1 -63.2,80.6 -172.1,112.2 -104,38.8 -251.9,23.5 -302.8,-15.2 -113.7,-65.4 -131.5,-189.3 -79.5,-216.3 51.6,-28.5 125.3,0.2 185.3,32"
         style="fill:#466eb6;fill-opacity:1;fill-rule:nonzero;stroke:none"
         id="path58" />
      <path
         d="m 15990.3,3677.8 c 26.5,16 96.8,79 185.4,93.8 84.5,21.8 187.4,-4.5 183.7,-6.5 1.8,-5.1 -63.2,80.6 -172.1,112.1 -104,38.8 -252,23.5 -302.8,-15.2 -113.7,-65.3 -131.5,-189.2 -79.5,-216.3 51.5,-28.4 125.3,0.2 185.3,32.1"
         style="fill:#466eb6;fill-opacity:1;fill-rule:nonzero;stroke:none"
         id="path60" />
      <path
         d="m 16292.8,3213.1 c 26.5,16 96.8,79 185.4,93.8 84.5,21.8 187.4,-4.5 183.7,-6.5 1.8,-5.1 -63.2,80.6 -172.1,112.1 -104,38.9 -252,23.5 -302.8,-15.1 -113.7,-65.4 -131.5,-189.3 -79.5,-216.3 51.5,-28.5 125.3,0.2 185.3,32"
         style="fill:#466eb6;fill-opacity:1;fill-rule:nonzero;stroke:none"
         id="path62" />
      <path
         d="m 16492.4,4115.2 c -20.4,-23.3 -94.6,-81.5 -124.7,-166.2 -36.2,-79.4 -28.2,-185.4 -25.6,-182 4.8,-2.6 -68.3,76.2 -80.4,189 -20.1,109.1 20.8,252.2 67.7,295.5 84.2,100.5 209.3,96.5 226.9,40.6 19,-55.7 -22.1,-123.4 -63.9,-176.9"
         style="fill:#466eb6;fill-opacity:1;fill-rule:nonzero;stroke:none"
         id="path64" />
      <path
         d="m 16836.4,3604.7 c -20.4,-23.3 -94.6,-81.5 -124.7,-166.2 -36.2,-79.4 -28.2,-185.4 -25.6,-182 4.7,-2.7 -68.3,76.2 -80.4,189 -20.1,109.1 20.8,252.2 67.7,295.5 84.2,100.6 209.3,96.5 226.8,40.6 19.1,-55.7 -22,-123.4 -63.8,-176.9"
         style="fill:#466eb6;fill-opacity:1;fill-rule:nonzero;stroke:none"
         id="path66" />
      <path
         d="m 15575.6,2774.7 c 39.8,-24.8 140.9,-109.5 192.7,-162.1 142.1,-144.1 270.8,-349.4 341.1,-581.1 4.4,-14.7 5.9,-28.2 19.5,-36.8 3.3,-2 8.2,-0.7 10.1,2.7 8.3,15.5 1.4,29.8 -3.2,46 -33.1,116.3 -100.9,262.2 -203,404.1 -172.8,240.2 -301.1,295.7 -356.4,328.6 -0.9,0.5 -1.7,-0.8 -0.8,-1.4 v 0"
         style="fill:#466eb6;fill-opacity:1;fill-rule:nonzero;stroke:none"
         id="path68" />
      <path
         d="m 15434.9,2631.5 c 22.6,10.3 84.4,54.1 156.4,57.8 69.4,9.6 149,-20.9 145.8,-22.2 1,-4.2 -42.9,70.1 -126.8,105.3 -79.3,40.5 -198.7,41.8 -242.8,15.7 -96.6,-41.7 -122.2,-138.8 -83.2,-165.1 38.4,-27.4 99.9,-11.4 150.6,8.5"
         style="fill:#466eb6;fill-opacity:1;fill-rule:nonzero;stroke:none"
         id="path70" />
      <path
         d="m 15717.7,2978 c -7.2,-23.7 -42.4,-90.8 -36.5,-162.6 -0.4,-70 40.3,-144.9 41.2,-141.6 4.3,-0.4 -75.1,33.3 -121.1,111.8 -50.7,73.3 -67.8,191.3 -47.7,238.5 28.5,101.3 121.3,139.5 152.6,104.4 32.3,-34.5 24.5,-97.5 11.5,-150.5"
         style="fill:#466eb6;fill-opacity:1;fill-rule:nonzero;stroke:none"
         id="path72" />
      <path
         d="m 3381.15,6443.5 c 82.68,-49.8 158.46,-116.9 233.91,-176.8 410.56,-326.1 827.1,-641.7 1393.43,-1305.2 757.21,-887.1 1322.83,-1894.5 1667.76,-2994.7 12.35,-39.3 74.57,-22.4 62.01,17.2 -224.4,707.6 -542.66,1384.6 -942.9,2009.9 C 4714.02,5683.2 3366.57,6452.3 3381.15,6443.5 v 0"
         style="fill:#466eb6;fill-opacity:1;fill-rule:nonzero;stroke:none"
         id="path74" />
      <path
         d="m 5568.75,5704.5 c 76.23,-502 338.17,-953.4 518.73,-1421.9 482.97,-1253.2 562.26,-2207.6 605.7,-2313.4 4.36,-10.6 18.2,-8.8 19.6,2.7 12.02,98.2 -94.45,785.5 -304.27,1500.3 -348.87,1188.6 -714.09,1652.8 -823.26,2236.8 -2.04,11 -18.12,6.2 -16.5,-4.5 v 0"
         style="fill:#466eb6;fill-opacity:1;fill-rule:nonzero;stroke:none"
         id="path76" />
      <path
         d="m 4062.43,6413.1 c -15.46,-30.9 -79.29,-114.7 -87.92,-214.7 -16.76,-96 21.68,-208.1 23.61,-203.8 5.86,-1.5 -95.31,63.1 -140.1,181.5 -52.48,112.3 -48.56,278.3 -10.07,338.3 62.62,132.4 198.92,163.2 233.62,107.8 36.31,-54.9 10.95,-139.5 -19.14,-209.1"
         style="fill:#466eb6;fill-opacity:1;fill-rule:nonzero;stroke:none"
         id="path78" />
      <path
         d="m 5002.04,5469.6 c -11.64,-32.4 -64.86,-122.8 -61.6,-222.7 -5.21,-96.9 46.07,-203.3 47.47,-198.8 5.98,-0.8 -101.73,51.2 -160.03,162.9 -65.18,104.9 -80.94,269.6 -49.96,333.5 46.3,138.3 177.46,184.9 218.34,134.2 42.39,-50 27.31,-136.7 5.78,-209.1"
         style="fill:#466eb6;fill-opacity:1;fill-rule:nonzero;stroke:none"
         id="path80" />
      <path
         d="m 6219.4,4664.2 c -20.28,-7 -84.94,-16.3 -132.23,-56.8 -49.14,-35.2 -80.9,-101.5 -78.15,-100.4 1.92,-3.3 -14.75,69.3 16.92,141.2 25.59,72.5 99.49,144.2 142.62,154.1 85.25,31.3 158.97,-14.3 150.22,-53.9 -7.77,-40.1 -55.79,-66.5 -99.38,-84.2"
         style="fill:#466eb6;fill-opacity:1;fill-rule:nonzero;stroke:none"
         id="path82" />
      <path
         d="m 6319.5,4419.2 c -20.27,-6.9 -84.94,-16.2 -132.22,-56.7 -49.14,-35.2 -80.91,-101.6 -78.15,-100.5 1.91,-3.2 -14.75,69.4 16.9,141.2 25.6,72.5 99.51,144.3 142.63,154.1 85.25,31.4 158.97,-14.2 150.22,-53.8 -7.78,-40.1 -55.79,-66.5 -99.38,-84.3"
         style="fill:#466eb6;fill-opacity:1;fill-rule:nonzero;stroke:none"
         id="path84" />
      <path
         d="m 3664.28,5795.7 c 19.97,24.8 65.73,110.3 146.16,155.8 74,50.7 182.68,61.5 179.76,58.2 3.53,-4.4 -89.32,55.7 -205.62,47.9 -114.13,1 -251.7,-65.8 -287.24,-121 -86.92,-103.1 -60.62,-229 -0.89,-236.9 59.82,-9.4 121.01,44.2 167.83,96"
         style="fill:#466eb6;fill-opacity:1;fill-rule:nonzero;stroke:none"
         id="path86" />
      <path
         d="m 4239.4,5264.7 c 19.97,24.8 65.73,110.3 146.16,155.8 74.01,50.7 182.68,61.5 179.76,58.2 3.54,-4.4 -89.31,55.7 -205.63,47.9 -114.12,1 -251.69,-65.8 -287.22,-121 -86.92,-103 -60.62,-229 -0.9,-236.9 59.82,-9.4 121.01,44.2 167.83,96"
         style="fill:#466eb6;fill-opacity:1;fill-rule:nonzero;stroke:none"
         id="path88" />
      <path
         d="m 5429.13,5284 c 26.77,-1.4 107.7,9.7 178.5,-22.7 71.18,-25.3 132.23,-94.2 128.54,-93.8 -1.19,-4.5 -6.17,88.5 -68.98,163.9 -55.75,78.4 -169.32,139.2 -224.53,136.1 -113.27,8.3 -186.17,-71.9 -162,-116.5 23.14,-45.5 89.97,-60.7 148.47,-67"
         style="fill:#466eb6;fill-opacity:1;fill-rule:nonzero;stroke:none"
         id="path90" />
      <path
         d="m 5571.04,4940.7 c 26.78,-1.4 107.71,9.7 178.5,-22.7 71.19,-25.3 132.24,-94.2 128.55,-93.8 -1.2,-4.5 -6.18,88.5 -68.99,163.9 -55.74,78.4 -169.31,139.1 -224.52,136.1 -113.28,8.3 -186.17,-71.9 -162.01,-116.6 23.15,-45.4 89.97,-60.6 148.47,-66.9"
         style="fill:#466eb6;fill-opacity:1;fill-rule:nonzero;stroke:none"
         id="path92" />
      <path
         d="m 4971.63,4446.4 c 19.97,24.8 65.72,110.3 146.16,155.8 74,50.7 182.68,61.4 179.75,58.2 3.54,-4.4 -89.31,55.7 -205.61,47.9 -114.13,1 -251.71,-65.8 -287.25,-121 -86.9,-103.1 -60.6,-229 -0.88,-236.9 59.8,-9.4 121.01,44.2 167.83,96"
         style="fill:#466eb6;fill-opacity:1;fill-rule:nonzero;stroke:none"
         id="path94" />
      <path
         d="m 3325.55,6236.7 c 15.82,12.9 55.85,60.6 112.36,78.5 53.17,22.1 122.83,14.5 120.57,12.8 1.65,-3.2 -48.73,46.8 -122.79,57.2 -71.53,15.8 -166.74,-8 -196.35,-38 -68.19,-53.2 -68.32,-135.8 -31.85,-148.6 36.3,-13.8 81.82,11.8 118.06,38.1"
         style="fill:#466eb6;fill-opacity:1;fill-rule:nonzero;stroke:none"
         id="path96" />
      <path
         d="m 3478.3,6571.2 c -0.83,-20.4 -14.83,-81 4.81,-137 14.31,-55.7 62.29,-106.8 62.26,-104 3.53,0.6 -66.68,10.8 -119.57,63.7 -55.56,47.7 -93.79,138.1 -87.66,179.8 1.56,86.5 67.48,136.2 99.65,114.8 32.87,-20.7 39.78,-72.5 40.51,-117.3"
         style="fill:#466eb6;fill-opacity:1;fill-rule:nonzero;stroke:none"
         id="path98" />
      <path
         d="m 3018.16,3604.6 c 797.46,-243.9 1487.69,-747.4 2151.31,-1236.6 447.5,-329.9 409.89,-392.5 503.5,-446.7 15.16,-8.8 34.76,5.7 29.83,22.9 -24.08,83.7 -115.42,154.7 -177.47,212 -72.21,66.7 -149.22,128.2 -228.07,186.8 -168.72,125.5 -344,243 -517.82,361.3 -353.61,240.6 -715.36,472.5 -1102.29,656.4 -212.11,100.8 -431.24,186.1 -657.19,250.4 -4.2,1.2 -5.96,-5.2 -1.8,-6.5 v 0"
         style="fill:#466eb6;fill-opacity:1;fill-rule:nonzero;stroke:none"
         id="path100" />
      <path
         d="m 3800.1,3717.7 c -11.64,-32.4 -64.86,-122.8 -61.58,-222.7 -5.21,-96.9 46.06,-203.3 47.45,-198.8 5.98,-0.8 -101.74,51.2 -160.02,163 -65.19,104.8 -80.94,269.5 -49.97,333.4 46.29,138.4 177.46,185 218.34,134.2 42.39,-49.9 27.32,-136.6 5.78,-209.1"
         style="fill:#466eb6;fill-opacity:1;fill-rule:nonzero;stroke:none"
         id="path102" />
      <path
         d="m 4468.8,3324.6 c -11.65,-32.4 -64.87,-122.8 -61.6,-222.7 -5.21,-96.9 46.07,-203.3 47.46,-198.8 5.98,-0.8 -101.73,51.2 -160.04,163 -65.17,104.8 -80.92,269.5 -49.94,333.4 46.28,138.3 177.44,185 218.34,134.2 42.38,-49.9 27.3,-136.6 5.78,-209.1"
         style="fill:#466eb6;fill-opacity:1;fill-rule:nonzero;stroke:none"
         id="path104" />
      <path
         d="m 5136.11,2861.3 c -11.64,-32.4 -64.87,-122.8 -61.59,-222.7 -5.22,-97 46.06,-203.4 47.45,-198.8 5.98,-0.9 -101.73,51.1 -160.03,162.9 -65.18,104.9 -80.93,269.6 -49.96,333.5 46.3,138.3 177.46,184.9 218.35,134.1 42.38,-49.9 27.31,-136.6 5.78,-209"
         style="fill:#466eb6;fill-opacity:1;fill-rule:nonzero;stroke:none"
         id="path106" />
      <path
         d="m 3458.66,3088.1 c 19.97,24.7 65.72,110.3 146.16,155.7 73.99,50.8 182.68,61.5 179.75,58.2 3.54,-4.3 -89.32,55.7 -205.62,47.9 -114.13,1 -251.69,-65.7 -287.24,-120.9 -86.91,-103.1 -60.62,-229.1 -0.89,-236.9 59.82,-9.5 121.02,44.1 167.84,96"
         style="fill:#466eb6;fill-opacity:1;fill-rule:nonzero;stroke:none"
         id="path108" />
      <path
         d="m 4154.78,2682.2 c 19.97,24.8 65.73,110.3 146.17,155.8 74,50.7 182.67,61.5 179.74,58.2 3.54,-4.3 -89.31,55.7 -205.61,47.9 -114.13,1 -251.7,-65.8 -287.24,-121 -86.92,-103.1 -60.61,-229 -0.9,-236.9 59.83,-9.4 121.02,44.2 167.84,96"
         style="fill:#466eb6;fill-opacity:1;fill-rule:nonzero;stroke:none"
         id="path110" />
      <path
         d="m 2941.93,3467.9 c 15.81,12.9 55.84,60.6 112.36,78.5 53.17,22.1 122.82,14.5 120.55,12.8 1.66,-3.2 -48.72,46.8 -122.78,57.2 -71.52,15.7 -166.74,-8 -196.35,-38 -68.2,-53.2 -68.32,-135.8 -31.86,-148.6 36.32,-13.9 81.82,11.7 118.08,38.1"
         style="fill:#466eb6;fill-opacity:1;fill-rule:nonzero;stroke:none"
         id="path112" />
      <path
         d="m 3094.67,3802.4 c -0.82,-20.4 -14.83,-81 4.81,-137 14.31,-55.7 62.28,-106.8 62.26,-104 3.53,0.6 -66.68,10.8 -119.57,63.7 -55.55,47.7 -93.8,138.1 -87.65,179.8 1.56,86.5 67.47,136.2 99.64,114.8 32.88,-20.7 39.79,-72.5 40.51,-117.3"
         style="fill:#466eb6;fill-opacity:1;fill-rule:nonzero;stroke:none"
         id="path114" />
      <path
         d="M 33661.5,1994.3 H 2606.74 c -67.79,0 -122.76,-75 -122.76,-167.5 0,-92.4 54.97,-167.4 122.76,-167.4 H 33661.5 c 67.8,0 122.8,75 122.8,167.4 0,92.5 -55,167.5 -122.8,167.5"
         style="fill:#466eb6;fill-opacity:1;fill-rule:nonzero;stroke:none"
         id="path116" />
      <path
         d="m 31515.7,5051.5 c -411.4,543.7 -959.9,843.1 -1544.6,843.1 -584.5,0 -1133.1,-299.4 -1544.5,-843.1 -407,-537.9 -685.5,-1253.7 -631.2,-2010.2 19,-264.7 151.7,-1050.6 151.7,-1050.6 h 232.8 c -86.6,333.3 -140.8,636.2 -165.5,1050.6 -85.5,1435.3 877.8,2607.7 1956.7,2607.7 1079,0 1956.8,-1169.8 1956.8,-2607.7 0,-372.8 -61.6,-729.6 -167.8,-1050.6 h 233.4 c 99,329.4 153.4,685.9 153.4,1050.6 0,758.4 -224.2,1472.3 -631.2,2010.2"
         style="fill:#184655;fill-opacity:1;fill-rule:nonzero;stroke:none"
         id="path118" />
      <path
         d="m 21517.5,5068.8 c -411.5,532.5 -960,825.8 -1544.6,825.8 -584.6,0 -1133.1,-293.3 -1544.5,-825.8 -407,-526.9 -631.2,-1226.3 -631.2,-1969.2 0,-387.7 61.1,-763.4 177.2,-1108.9 l 236.1,-0.1 c -124.4,335.6 -194.3,711.8 -194.3,1109 0,1408.5 877.8,2554.4 1956.7,2554.4 1079,0 1956.7,-1145.9 1956.7,-2554.4 0,-397.2 -69.8,-773.4 -194.2,-1108.9 h 236 c 116.2,345.5 177.3,721.2 177.3,1108.9 0,742.9 -224.2,1442.2 -631.2,1969.2"
         style="fill:#184655;fill-opacity:1;fill-rule:nonzero;stroke:none"
         id="path120" />
      <path
         d="m 30812.3,5899.5 h -514.7 v 1041.8 h 514.7 V 5899.5"
         style="fill:#13375b;fill-opacity:1;fill-rule:nonzero;stroke:none"
         id="path122" />
      <path
         d="m 31971.4,6699.3 -10770.9,69.4 -40.6,2001.3 11296.2,45.3 -484.7,-2116"
         style="fill:#184655;fill-opacity:1;fill-rule:nonzero;stroke:none"
         id="path124" />
      <path
         d="M 30886.8,5523.2 H 18439.1 v 556.6 h 12447.7 v -556.6"
         style="fill:#184655;fill-opacity:1;fill-rule:nonzero;stroke:none"
         id="path126" />
      <path
         d="m 32221.2,5523.2 h -2250.1 v 556.6 h 2250.1 v -556.6"
         style="fill:#355389;fill-opacity:1;fill-rule:nonzero;stroke:none"
         id="path128" />
      <path
         d="m 24075.9,8238.9 c 207.6,-94.4 186.3,-133.6 213.2,-144.8 31.8,-13.3 468.6,126.3 468.6,126.3 0,0 1289.5,400.8 1358.5,425.4 l 624.9,1333.3 532.4,-410.1 c 0,0 -706.7,-1487.4 -777.7,-1531.7 -71,-44.4 -1863.1,-336.1 -2020.3,-368.1 0,0 -176.7,-123.4 -289.7,-196.4 -113,-72.9 -246,-80.4 -280.4,-95 -5,-2.1 -121.6,-42.3 -275.4,-44.8 -132.5,-2.2 -7,74.8 -7,74.8 0,0 245.5,58.4 238.6,81.4 -5.3,17.7 -137.9,-23.9 -284.5,-28.2 -37.8,-1 -75,-2 -109.2,-2.5 -89.7,-1.3 -115.5,66.3 -21.6,86.2 33.2,7 88.5,17 128.6,17.2 43.4,0.3 83.4,17.8 119.9,24.9 72.5,14.1 125.5,23.3 123.4,26.6 -2.7,4.4 10.2,19.7 -29.9,20.1 -48.1,0.4 -150.8,-26.6 -221.5,-19.1 -40,4.2 -124.3,6.7 -124.3,6.7 0,0 -136.1,22.4 -136.9,32.2 -4.6,53.1 96.8,71.3 150.6,56.8 38.2,12.5 126.8,6.8 126.8,6.8 0,0 181.6,38 177.9,69.8 -3.1,26.1 -451.5,38.4 -453,92 -1.2,43.8 133.8,47.5 133.8,47.5 0,0 81.9,-5.4 109.2,-4.6 32,0.9 127.7,12.6 127.7,12.6 0,0 332,59.9 326.4,89.6 -5.6,29.7 -44.6,98.4 -66.2,103.4 -21.5,5.1 -65.1,-11.2 -86.7,-6.1 -21.5,5.1 -46,34.5 -42.7,67.7 3.3,33.2 115.4,58.1 115.4,58.1 0,0 91.2,19.3 151.1,-8"
         style="fill:#f8a492;fill-opacity:1;fill-rule:nonzero;stroke:none"
         id="path130" />
      <path
         d="m 26932.8,10723.6 c -35.6,-1.5 -133.1,-34 -275.8,-302.6 -182.1,-343.1 -448.3,-1379.5 -448.3,-1379.5 l 794.6,-294.9 102.1,216.3 168.1,1665.3 c 0,0 -330.9,95.8 -340.7,95.4"
         style="fill:#355389;fill-opacity:1;fill-rule:nonzero;stroke:none"
         id="path132" />
      <path
         d="m 24241.4,7880.3 c -99.4,2.8 -178.6,46.6 -236.4,143.5 21.2,-135 148.8,-191.2 236.4,-143.5"
         style="fill:#fe875e;fill-opacity:1;fill-rule:nonzero;stroke:none"
         id="path134" />
      <path
         d="m 27983.2,10873 c -227.2,-0.3 -789.4,-66.4 -1050.4,-149.5 0,0 -191.7,-1642.1 172.6,-2889.8 81.5,-279.3 -67.5,-1157.9 -67.5,-1157.9 l 2462.8,64.7 c 0,0 -387.1,2090.2 -282,2433.3 105.1,343.1 107.6,1538.7 107.6,1538.7 0,0 -16.2,2.5 -529,90.8 -239.3,41.2 -571.5,70 -814.1,69.7"
         style="fill:#50bfa5;fill-opacity:1;fill-rule:nonzero;stroke:none"
         id="path136" />
      <path
         d="m 27422.7,6867.8 c 0,0 -1842.7,263.6 -2231.6,44.5 -388.8,-219 863.4,-1275.5 863.4,-1275.5 0,0 1070.8,70.3 1386.7,68.4 313.5,-1.9 1272,-80 1828.9,0.7 557,80.8 493.9,1026.2 388.9,1141.5 -105.1,115.3 -2236.3,20.4 -2236.3,20.4"
         style="fill:#b75742;fill-opacity:1;fill-rule:nonzero;stroke:none"
         id="path138" />
      <path
         d="m 26403.1,2820.5 c 0,0 58.9,-209.8 -61.6,-343.9 -120.5,-134 -608.6,-254.8 -674.3,-327.4 -65.8,-72.6 -62.8,-136.2 -62.8,-136.2 l 1359.9,-2.5 -2.8,409.4 -54,295.8 -504.4,104.8"
         style="fill:#f7a491;fill-opacity:1;fill-rule:nonzero;stroke:none"
         id="path140" />
      <path
         d="m 26255,2410.5 c 0,0 345,-150.9 516.1,-72.5 171.1,78.3 166.7,101.6 214.6,69.1 47.9,-32.5 54.1,-416.4 54.1,-416.4 h -1529.3 c -106.2,5.5 -157.7,85.1 -69.3,149.4 60.5,44.1 129.9,72.8 169.4,93.8 121.6,64.9 644.4,176.6 644.4,176.6"
         style="fill:#184655;fill-opacity:1;fill-rule:nonzero;stroke:none"
         id="path142" />
      <path
         d="m 25921.4,6566.9 c -127,208.4 -445.8,511.1 -846.5,296.4 -382.1,-204.8 -281.4,-857.6 -113.3,-1257.3 168.2,-399.7 1245.3,-2740.3 1308.4,-3070.9 l 662,63.4 c 0,0 -317,1908.3 -394.1,2369.5 -74.1,443.8 -396.7,1238 -616.5,1598.9"
         style="fill:#f47458;fill-opacity:1;fill-rule:nonzero;stroke:none"
         id="path144" />
      <path
         d="m 28560.4,3311 c 0,0 -54.3,-624.6 -154.2,-797.6 -99.8,-172.9 5.3,-466.9 10.5,-507.3 5.3,-40.3 210.2,-98 536,-63.4 325.7,34.6 320.5,109.5 294.2,230.6 -26.3,121.1 -199.7,276.7 -210.2,392 -10.5,115.3 99.9,530.4 99.9,530.4 l -576.2,215.3"
         style="fill:#f7a491;fill-opacity:1;fill-rule:nonzero;stroke:none"
         id="path146" />
      <path
         d="m 28993.3,1858.3 c 335.5,35.6 294,199.9 266.9,324.5 -16.9,78.1 -113.1,170.1 -170.5,257.2 -30,-23.8 -78.8,-65.9 -224.4,-108.7 -151.3,-44.6 -358.7,43.6 -490.8,98.8 -47.1,-174.7 -49.3,-397.5 -44.9,-431.3 5.4,-41.5 328.3,-176.1 663.7,-140.5"
         style="fill:#184655;fill-opacity:1;fill-rule:nonzero;stroke:none"
         id="path148" />
      <path
         d="M 28791.6,5878.3 C 28723,5368 28388.7,2826.7 28388.7,2826.7 l 777.6,-96.1 c 0,0 969.6,3306.4 874.9,3807.2 -70.1,370 -240,436.5 -420,461.6 -180,25 -683.4,-31.6 -829.6,-1121.1"
         style="fill:#f47458;fill-opacity:1;fill-rule:nonzero;stroke:none"
         id="path150" />
      <path
         d="m 29351.9,10530 c -282,105.4 -353.4,-2953.7 -353.4,-2953.7 C 28737,7399.8 27924,6842.1 27748,6754.4 c -71.4,-35.6 -263.4,-71.9 -336.7,-103.5 -75.1,-32.4 -141.1,-65.2 -171.8,-91.5 -11.3,-9.7 -275.7,-359.9 -287,-408.9 -14,-60.7 -56.1,-218 -14,-250.1 42,-32.2 122.5,232.3 122.5,232.3 l 57.3,99.1 c -44.9,-167.7 -167.2,-426.2 -108.1,-458.6 57.6,-31.6 158.7,217 233.4,389.8 -52.2,-168.1 -84.1,-432.4 -35.1,-441.5 44,-8.1 78.1,296.1 212,457.6 49.6,59.8 149.2,35.2 203.1,57.2 39.7,16.1 102.8,37.8 132.5,69.1 l 152.9,161.5 c 66,31.6 140.4,64.1 211.7,88.3 82.7,28.2 199.4,84.2 306.5,117.1 616.5,189.4 770.6,232.3 959.7,264.4 189.2,32.2 279.5,534.2 306.4,1316.2 29.9,870.8 178.9,2082.5 -341.4,2277.1"
         style="fill:#f7a491;fill-opacity:1;fill-rule:nonzero;stroke:none"
         id="path152" />
      <path
         d="m 29769.7,8674 c 41.2,833.5 35.2,1860.8 -433.6,2036.1 -185,69.1 -511.1,-346.7 -452.4,-2053 250.3,-20.6 617.7,-37.2 886,16.9"
         style="fill:#355389;fill-opacity:1;fill-rule:nonzero;stroke:none"
         id="path154" />
      <path
         d="m 28166.7,13071 c 0,0 314.1,233.7 488.8,-118.6 -1.3,2.8 117.5,11.1 134,7.4 70.6,-16 142.9,-76.5 207.4,-107.7 229.6,-111.2 353.1,-352.5 386.2,-580.5 40.2,-276.6 -65.7,-489.6 -245.5,-705.8 -53,-63.7 -110.1,-126.4 -183.1,-170.2 -88.2,-52.8 -164.6,-22.4 -249.6,-48.6 -71.6,-22 -90.7,-95.1 -179.3,-76.2 -124.2,26.4 -264,155.7 -411.9,123.3 -147.7,-32.4 -504.8,64.4 -505.7,64.7 -458.8,124.4 -232.5,939 -173.5,1226.4 55.5,270.3 448.7,459.7 732.2,385.8"
         style="fill:#ffffff;fill-opacity:1;fill-rule:nonzero;stroke:none"
         id="path156" />
      <path
         d="m 27932.6,11242.1 -88.5,-298.7 -47.1,-166.8 c 0,0 -79.9,-190.2 140,-226.1 422.1,-69 576.3,267.2 576.3,267.2 l 80,924.1 -660.7,-499.7"
         style="fill:#f7a491;fill-opacity:1;fill-rule:nonzero;stroke:none"
         id="path158" />
      <path
         d="m 28567.3,11442.3 c -171.4,-297.5 -499.8,-453.2 -724,-501.7 l 89.3,301.5 660.7,499.7 -26,-299.5"
         style="fill:#f47458;fill-opacity:1;fill-rule:nonzero;stroke:none"
         id="path160" />
      <path
         d="m 28371.4,12667.1 c -278.4,128.1 -615,-12.2 -699.5,-283.6 -36.7,-117.9 -76,-267.1 -103.2,-432.1 -65.2,-396.9 102.6,-811.5 298.9,-835.5 196.2,-24 775.8,167.2 876.9,729.6 62.4,347.3 -81,687.2 -373.1,821.6"
         style="fill:#f7a491;fill-opacity:1;fill-rule:nonzero;stroke:none"
         id="path162" />
      <path
         d="m 28593.5,11818.6 c -12.7,-87.8 40.2,-166.7 118.2,-176.2 77.9,-9.5 151.4,53.9 164.1,141.6 12.6,87.8 -40.3,166.7 -118.3,176.2 -77.9,9.5 -151.4,-53.9 -164,-141.6"
         style="fill:#f7a491;fill-opacity:1;fill-rule:nonzero;stroke:none"
         id="path164" />
      <path
         d="m 28013.6,11610.4 c 0,0 260.9,-56.4 289.6,-140.6 28.7,-84.2 9.1,-210.6 -106.4,-315.8 -115.4,-105.2 -386.8,-67.3 -464.2,-20.5 -77.4,46.7 -153.4,264.9 -92.3,394.7 61,129.7 373.3,82.2 373.3,82.2"
         style="fill:#ffffff;fill-opacity:1;fill-rule:nonzero;stroke:none"
         id="path166" />
      <path
         d="m 28113.1,11437.3 c 0,0 7.4,-95.8 -25.7,-115.8 -32.2,-19.3 -73.4,-36.7 -112.6,-43.3 -63.3,-10.5 -123.3,10 -161.1,52.7 -3.8,4.2 -7.2,8.6 -10.2,13.1 -30.4,45.7 -43.4,129.5 -43.4,129.5 0,0 104.9,32.3 167.9,27.7 63.1,-4.7 185.1,-63.9 185.1,-63.9"
         style="fill:#f7a491;fill-opacity:1;fill-rule:nonzero;stroke:none"
         id="path168" />
      <path
         d="m 32456.1,8815.3 -484.7,-2116 -413.2,2.7 479.2,2113.3 h 418.7"
         style="fill:#355389;fill-opacity:1;fill-rule:nonzero;stroke:none"
         id="path170" />
      <path
         d="m 21965.9,10770.7 c 0,0 854.4,-90.4 1080.9,-329.4 l -554.7,-3009.1 c 0,0 -1053.8,-157 -1726.4,74.4 0,0 -378.1,2412.2 -37.3,3003.3 113.5,197 631.3,205 631.3,205 l 606.2,55.8"
         style="fill:#f7cc7f;fill-opacity:1;fill-rule:nonzero;stroke:none"
         id="path172" />
      <path
         d="m 22492.1,7432.2 c 0,0 512.2,-486.7 605.7,-646 213.7,-363.9 63.5,-843 -340,-813.4 -213.4,15.6 -664.7,66.8 -818,29.2 -451.4,-110.6 -985.5,128.6 -1216.4,128.6 -110.7,0 -186.9,-11.1 -454,-65.7 -235.8,-48.3 -425.2,120.7 -394.9,359.5 70,551.6 738,1116.7 927.4,1116.7 746.4,0 1690.2,-108.9 1690.2,-108.9"
         style="fill:#b75742;fill-opacity:1;fill-rule:nonzero;stroke:none"
         id="path174" />
      <path
         d="m 22842.1,6589.7 c -188.3,180.4 -455.8,319.9 -770.7,28.3 -314.9,-291.7 -850.3,-3660.5 -850.3,-3660.5 0,0 -197.3,-319.3 -376.7,-598.4 -125.4,-195.1 370.1,-529.6 590.5,-459.2 220.5,70.4 342.6,996.8 342.6,996.8 0,0 1591.1,3188.7 1064.6,3693"
         style="fill:#f48c7f;fill-opacity:1;fill-rule:nonzero;stroke:none"
         id="path176" />
      <path
         d="m 20844.4,2359.1 c 170.3,-37.3 493.3,-100.6 819.3,-124.2 -56.6,-157.4 -133.5,-304.6 -228.8,-335 -220.4,-70.4 -903,-55 -867.1,55.6 20.6,63.4 151.2,208.5 276.6,403.6"
         style="fill:#e6b763;fill-opacity:1;fill-rule:nonzero;stroke:none"
         id="path178" />
      <path
         d="m 21207.5,6677.6 c 122.9,-243.1 237.8,-752 298.8,-1024.3 164.7,-735.1 285.8,-3011.9 285.8,-3011.9 0,0 428.4,-576.1 322,-678 -106.4,-101.9 -709.3,-22.6 -831,27.2 -121.6,49.9 -75.6,627.1 -115.4,792.1 0,0 -1089.3,3377.9 -868.9,3795.3 220.4,417.4 801.1,312.1 908.7,99.6"
         style="fill:#f79c8d;fill-opacity:1;fill-rule:nonzero;stroke:none"
         id="path180" />
      <path
         d="m 21195.8,2243.1 c 143.9,-97.4 576.8,27.4 797.4,100.9 107.9,-174.4 208.2,-370.8 152.3,-424.3 -106.3,-101.9 -744.7,-50.7 -866.3,-0.8 -53.9,22 -74.1,161.4 -83.4,324.2 v 0"
         style="fill:#f7cc7f;fill-opacity:1;fill-rule:nonzero;stroke:none"
         id="path182" />
      <path
         d="m 20800.3,11577.9 c 0,0 -380.8,1016.4 138,1253.9 398.6,182.5 541.4,-4.8 541.4,-4.8 0,0 619.6,331.1 750.6,-340 0,0 437,-64.3 483.9,-439.9 46.9,-375.6 -183.6,-513 -183.6,-513 0,0 206.5,-216.8 112.5,-493.1 -93.9,-276.3 -552.8,-356.9 -790.8,-163.8 -237.9,193 -223.5,60.4 -428,86 -204.5,25.6 -624,614.7 -624,614.7"
         style="fill:#ffffff;fill-opacity:1;fill-rule:nonzero;stroke:none"
         id="path184" />
      <path
         d="m 21243.7,11129.3 c 0,0 323.8,-591.9 218.2,-885.2 -58.9,-163.6 644.5,493.2 644.5,493.2 l -373.7,691.2 -489,-299.2"
         style="fill:#f7a491;fill-opacity:1;fill-rule:nonzero;stroke:none"
         id="path186" />
      <path
         d="m 21780.7,11339.9 -48,88.6 -489,-299.2 c 0,0 44.8,-81.9 95.6,-199.8 53.9,15.3 110.3,41.7 169,81.1 126.9,85.1 214.8,201.2 272.4,329.3"
         style="fill:#f48c7f;fill-opacity:1;fill-rule:nonzero;stroke:none"
         id="path188" />
      <path
         d="m 21543.8,12589.9 c 0,0 235.1,-66.8 368.4,-286.3 133.3,-219.6 104.7,-957.8 -399.3,-1211.5 -504,-253.7 -765.5,294.6 -745.3,691.8 20.1,397.1 146.6,920.3 776.2,806"
         style="fill:#f7a491;fill-opacity:1;fill-rule:nonzero;stroke:none"
         id="path190" />
      <path
         d="m 21815.1,11707.4 c -34,-103.5 -0.5,-205.2 74.8,-227.1 75.2,-21.8 163.8,44.4 197.8,148 33.9,103.5 0.5,205.2 -74.8,227 -75.3,21.9 -163.8,-44.3 -197.8,-147.9"
         style="fill:#f7a491;fill-opacity:1;fill-rule:nonzero;stroke:none"
         id="path192" />
      <path
         d="m 21409.9,12700.2 c -85.9,-59.2 -7.8,-308.5 174.4,-556.7 182.1,-248.3 399.4,-401.5 485.3,-342.3 85.8,59.2 7.8,308.4 -174.4,556.7 -182.2,248.2 -399.4,401.5 -485.3,342.3"
         style="fill:#ffffff;fill-opacity:1;fill-rule:nonzero;stroke:none"
         id="path194" />
      <path
         d="m 17926.3,12021.2 c 31.5,66.7 312.4,-130.8 374.7,-93.2 62.3,37.6 -251.6,354 -219.6,409.4 58.9,101.9 365.1,-325.5 395.2,-280.3 30.1,45.2 -263.9,501.4 -158.9,526.5 105,25.1 255.5,-504.9 309.3,-470.8 53.9,34.1 -184.3,480.3 -82.6,571.2 54.3,48.7 310.3,-814.1 403.2,-850 92.8,-35.9 197.4,340.9 284.9,326 87.4,-14.8 -286.7,-692.7 -268.4,-745.7 18.3,-52.7 360.9,-1159.7 563.1,-1494 121.7,58.1 240.2,116.7 353.2,173.7 45.4,-256.7 150.2,-481 209.8,-733 -392.3,-172.4 -842.2,-343.5 -956.1,-301.5 -347,127.7 -518.1,1812 -573.8,2126.3 -55.8,314.5 -204.1,376.2 -288.6,541.3 -84.5,165.1 -376.9,227.3 -345.4,294.1"
         style="fill:#f48c7f;fill-opacity:1;fill-rule:nonzero;stroke:none"
         id="path196" />
      <path
         d="m 20904.1,10621.6 504.2,-604.6 c 0,0 -723,-487.3 -1373.7,-773.3 -59.6,252 -206.8,647.1 -252.2,903.8 537.6,271.4 1121.7,474.1 1121.7,474.1"
         style="fill:#f7cc7f;fill-opacity:1;fill-rule:nonzero;stroke:none"
         id="path198" />
      <path
         d="m 25534,12083.2 c -31.5,66.7 -312.4,-130.8 -374.7,-93.2 -62.3,37.6 251.7,354.1 219.6,409.4 -59,101.9 -365.1,-325.5 -395.2,-280.3 -30.1,45.2 263.9,501.4 158.9,526.5 -105,25.1 -255.5,-504.9 -309.3,-470.8 -53.9,34.1 184.2,480.3 82.6,571.2 -54.3,48.7 -310.3,-814.1 -403.2,-850 -92.8,-35.8 -197.4,340.9 -284.9,326.1 -87.4,-14.8 286.7,-692.8 268.4,-745.8 -18.3,-52.7 -360.9,-1159.7 -563.1,-1494 -121.7,58.2 -240.2,116.7 -353.2,173.7 -45.4,-256.7 -167.1,-499.9 -226.8,-751.9 392.4,-172.4 859.2,-324.5 973.1,-282.6 347,127.8 518.1,1812 573.9,2126.3 55.7,314.5 204,376.2 288.5,541.3 84.5,165.2 376.9,227.4 345.4,294.1"
         style="fill:#f48c7f;fill-opacity:1;fill-rule:nonzero;stroke:none"
         id="path200" />
      <path
         d="m 22514.3,10674.2 -91.2,-1368 c 0,0 351.9,285.5 1002.6,-0.4 59.7,251.9 206.8,647 252.2,903.7 -537.6,271.4 -1163.6,464.7 -1163.6,464.7"
         style="fill:#f7cc7f;fill-opacity:1;fill-rule:nonzero;stroke:none"
         id="path202" />
      <path
         d="m 13062.2,13147.5 c 0,0 390.7,1058.6 -135.5,1312.8 -404.5,195.2 -550.2,0.9 -550.2,0.9 0,0 -628.6,353.2 -764.2,-347.2 0,0 -444.4,-62.4 -493.4,-454.7 -49.2,-392.3 184.7,-538.6 184.7,-538.6 0,0 -210.7,-224.4 -116.2,-514.4 94.3,-290 531.7,-486.4 774.4,-287.1 242.4,199.2 255.9,167.8 463.7,192.3 208.1,24.5 636.7,636 636.7,636"
         style="fill:#ffffff;fill-opacity:1;fill-rule:nonzero;stroke:none"
         id="path204" />
      <path
         d="m 16478.1,13937.3 c 137.3,-89.5 314.5,-262.1 246,-262.1 -68.7,0 -357.9,217.1 -399.1,217.1 -40.9,0 360.8,-258.1 314,-328.5 -47,-70.4 -453.2,297.7 -475.2,275.7 -22,-22.1 360.8,-302.1 284.5,-349.1 -76.2,-46.9 -406.3,315.3 -425.3,296.3 -19,-19.1 220,-278.7 149.5,-313.9 -70.2,-35.1 -231.6,179 -261.1,208.3 -29.3,29.4 -225.8,111.5 -363.6,123.2 -138,11.7 -889.7,-822.4 -1106.1,-912 -216.4,-89.8 -319.1,-173.3 -319.1,-173.3 l -1129.6,-1111.7 -457.3,764 569.2,432.8 c 0,0 461,458.5 517.5,502.1 56.6,43.7 1649.6,768 1728.9,847.2 79.1,79.2 123.1,187.6 123.1,258 0,70.5 14.7,290.5 102.6,272.8 88,-17.5 17.3,-172.5 67.7,-255.1 164.2,-269.9 696.2,-402.2 833.4,-491.8"
         style="fill:#b86956;fill-opacity:1;fill-rule:nonzero;stroke:none"
         id="path206" />
      <path
         d="m 7089.78,14159.2 c -137.28,-89.6 -314.51,-262.1 -245.83,-262.1 68.46,0 357.93,217.1 398.86,217.1 41.01,0 -360.7,-258.2 -313.73,-328.6 46.83,-70.4 453,297.7 475,275.7 21.99,-22 -360.77,-302.1 -284.5,-349.1 76.26,-46.9 406.31,315.4 425.33,296.3 19.15,-19 -219.94,-278.6 -149.56,-313.8 70.45,-35.2 231.72,178.9 261.09,208.2 29.3,29.4 225.83,111.5 363.68,123.2 137.92,11.8 889.68,-822.4 1106.07,-912 216.39,-89.7 319.05,-173.2 319.05,-173.2 l 1129.86,-1111.8 457,764.1 -569.1,432.8 c 0,0 -461,458.4 -517.58,502 -56.54,43.8 -1649.53,768 -1728.78,847.2 -79.17,79.2 -123.16,187.7 -123.16,258.1 0,70.4 -14.69,290.4 -102.66,272.8 -87.98,-17.6 -17.03,-172.6 -67.4,-255.2 -164.25,-269.9 -696.36,-402.1 -833.64,-491.7"
         style="fill:#b86956;fill-opacity:1;fill-rule:nonzero;stroke:none"
         id="path208" />
      <path
         d="m 6679.2,7285.1 c 21.43,105.9 101.03,272.4 206.6,248.8 136.58,-30.3 316.43,-93.6 447.54,-224.9 241.23,-241.2 1361.99,-495.2 1487.21,-620.4 l 465.98,1084.8 1082.47,-704 c 0,0 -1079.49,-1513.5 -1302.26,-1513.5 -222.78,0 -1879.76,1177.9 -2009.6,1177.9 -130.05,0 -255.76,-223.6 -320.89,-381.5 -64.85,-157.7 -216.4,-248.8 -297.77,-206.1 -56.05,29.4 161.05,748.5 240.72,1138.9"
         style="fill:#b86956;fill-opacity:1;fill-rule:nonzero;stroke:none"
         id="path210" />
      <path
         d="m 12164.5,5809.9 c 0,-425.7 -30,-546.5 -30,-546.5 0,0 -129.7,-2474.4 -129.7,-2733.8 0,-259.1 806.2,-600.9 876.8,-671.5 70.8,-70.8 -334.7,-188.5 -699.9,-117.9 -365.4,70.7 -553.9,94.3 -660,94.3 -106,0 -153.1,153.1 -58.9,459.6 94.2,306.3 -395.3,2103.1 -285.4,2923 24,177.6 90.5,342.4 65.4,491.4 -90.6,539.2 -422.1,873.5 -422.1,873.5 l 1082.9,213.4 c 0,0 260.9,-560 260.9,-985.5"
         style="fill:#b86956;fill-opacity:1;fill-rule:nonzero;stroke:none"
         id="path212" />
      <path
         d="m 10719,12973.9 -338,-1162.7 c 0,0 384.9,-235.6 439.9,-589 55,-353.7 -164.9,-652.2 -589.1,-895.8 C 9807.57,10082.9 9229.35,9838 8915.26,8824.7 8813.31,8495.6 8988.34,7773.4 8859.93,7525.8 8592.67,7010.5 8209.83,7250 8209.83,7250 c 0,0 989.44,-1611.4 1798.57,-1556.5 809.2,55 1024.7,210.2 1448.9,343.8 424.3,133.6 762,7.8 762,7.8 0,0 -97.6,1097.7 -298.3,1741.4 -87.4,279.9 -54.7,582.7 89.2,838.3 67.6,120.2 132.1,252.7 173.8,380.2 68.9,210.9 233.7,375.3 441.6,452.3 185,68.7 363.7,180.8 363.7,358.7 0,369.1 -31.4,1406.2 47,1720.3 78.6,314.3 659.6,470.9 659.6,470.9 0,0 -221.9,643.2 -599,800.4 0,0 -767.6,-399.3 -948.2,-477.9 -180.8,-78.5 -408.7,-47.1 -730.8,110 -321.9,157.1 -698.9,534.2 -698.9,534.2"
         style="fill:#f7cc7f;fill-opacity:1;fill-rule:nonzero;stroke:none"
         id="path214" />
      <path
         d="m 12644.3,12731.4 c 0,0 -254,-653.6 -111.8,-945.7 79.5,-163 -698.9,465.7 -698.9,465.7 l 280.7,732.7 530,-252.7"
         style="fill:#b86956;fill-opacity:1;fill-rule:nonzero;stroke:none"
         id="path216" />
      <path
         d="m 12067.1,12860.9 c 78.1,-157.1 195.3,-296.3 361.9,-384.5 41.5,-22.1 81.5,-38.7 120,-50.6 43.7,172.7 95.3,305.6 95.3,305.6 l -530,252.7 -47.2,-123.2"
         style="fill:#9c4f3d;fill-opacity:1;fill-rule:nonzero;stroke:none"
         id="path218" />
      <path
         d="m 12310.3,14213.9 c 0,0 -239.3,-67.1 -375.5,-295.3 -136.2,-228.1 -110,-1000.4 401.2,-1271.4 511.2,-270.8 779,299.7 760,715.3 -18.9,415.5 -145.6,964 -785.7,851.4"
         style="fill:#b86956;fill-opacity:1;fill-rule:nonzero;stroke:none"
         id="path220" />
      <path
         d="m 12031.3,13294.1 c 34,-108.7 -0.4,-214.6 -76.8,-236.6 -76.7,-22.1 -166.4,48.1 -200.6,156.9 -34.1,108.6 0.3,214.6 77,236.6 76.4,22.1 166.1,-48.2 200.4,-156.9"
         style="fill:#b86956;fill-opacity:1;fill-rule:nonzero;stroke:none"
         id="path222" />
      <path
         d="m 12446.7,14327.8 c 87.1,-62.9 6.7,-322.6 -179.2,-580.3 -186.1,-257.5 -407.5,-415.4 -494.5,-352.6 -87,62.9 -6.7,322.7 179.3,580.3 186.1,257.6 407.5,415.5 494.4,352.6"
         style="fill:#ffffff;fill-opacity:1;fill-rule:nonzero;stroke:none"
         id="path224" />
      <path
         d="m 12181.7,1740.2 c -365.4,70.7 -553.9,94.3 -660,94.3 -106,0 -153.1,153.1 -58.9,459.6 154.4,-154.3 798.7,-196.9 1014.7,-206.8 190.2,-110 372.2,-197.3 404.1,-229.2 70.8,-70.8 -334.7,-188.5 -699.9,-117.9"
         style="fill:#b75742;fill-opacity:1;fill-rule:nonzero;stroke:none"
         id="path226" />
      <path
         d="m 6679.2,7285.1 c 21.43,105.9 101.03,272.4 206.6,248.8 74.15,-16.5 161.06,-42.9 246.19,-84.4 -79.32,-135 -267.61,-467.4 -329.55,-670.3 -79.25,-259.6 7.45,-209.8 -18.94,-324.2 v 0 c -17.95,-35.3 -33.92,-70.4 -47.25,-102.7 -64.85,-157.7 -216.4,-248.8 -297.77,-206.1 -56.05,29.4 161.05,748.5 240.72,1138.9"
         style="fill:#b75742;fill-opacity:1;fill-rule:nonzero;stroke:none"
         id="path228" />
    </g>
  </g>
</svg>
