<?xml version="1.0" encoding="UTF-8" standalone="no"?>
<!-- Created with Inkscape (http://www.inkscape.org/) -->

<svg
   version="1.1"
   id="svg2"
   width="3540"
   height="2666.6667"
   viewBox="0 0 3540 2666.6667"
   sodipodi:docname="11241802_11421.eps"
   xmlns:inkscape="http://www.inkscape.org/namespaces/inkscape"
   xmlns:sodipodi="http://sodipodi.sourceforge.net/DTD/sodipodi-0.dtd"
   xmlns="http://www.w3.org/2000/svg"
   xmlns:svg="http://www.w3.org/2000/svg">
  <defs
     id="defs6" />
  <sodipodi:namedview
     id="namedview4"
     pagecolor="#ffffff"
     bordercolor="#000000"
     borderopacity="0.25"
     inkscape:showpageshadow="2"
     inkscape:pageopacity="0.0"
     inkscape:pagecheckerboard="0"
     inkscape:deskcolor="#d1d1d1" />
  <g
     id="g8"
     inkscape:groupmode="layer"
     inkscape:label="ink_ext_XXXXXX"
     transform="matrix(1.3333333,0,0,-1.3333333,0,2666.6667)">
    <g
       id="g10"
       transform="scale(0.1)">
      <path
         d="M 0,0 H 26550 V 20000 H 0 Z"
         style="fill:#ebeeff;fill-opacity:0;fill-rule:nonzero;stroke:none"
         id="path12" />
      <path
         d="m 24148.8,19011.9 77.3,-16037.2 H 1572.62 c 0,0 -132.03,4478.5 646.43,8436.5 v 0.2 c 581.37,2955.6 1670.3,5620.9 3701.04,5915.5 977.02,141.8 1631.12,68.6 2105.12,-108.7 406.03,-151.7 679.82,-379.7 910.91,-614.4 446.44,-452.7 733.91,-929.9 1507.38,-929.9 2050,0 2275.5,2653.4 13705.3,3338"
         style="fill:#afc3fd;fill-opacity:1;fill-rule:nonzero;stroke:none"
         id="path14" />
      <path
         d="M 21100.5,9332.3 14783.2,2986.7 H 1576.62 c 0,0 -132.02,4478.6 646.45,8436.6 v 0.2 l 5389.77,5390.3 416.39,416.5 c 24.25,-9.1 48.09,-18.5 71.5,-28 367.06,-151.1 622.2,-365.9 839.4,-586.4 V 9332.3 H 21100.5"
         style="fill:#cddafd;fill-opacity:1;fill-rule:nonzero;stroke:none"
         id="path16" />
      <path
         d="m 21082.2,18141.3 v -8809 H 8940.13 v 7283.6 c 52.44,-53.1 102.39,-106.6 151.51,-159.4 58.03,-62.6 114.41,-124.8 170.99,-184.7 128.08,-136 256.79,-261.6 406.02,-361.3 7.67,-5.2 15.34,-10.4 23.22,-15.4 22.38,-14.3 45.39,-28.2 68.8,-41.2 117.73,-66.2 249.13,-116.1 402.33,-143.7 87.2,-15.7 181.5,-24.2 284.5,-24.2 115.1,0 224.3,8.3 330,24.2 216.4,32.6 418.4,96.4 625.7,184.9 230.5,98.5 467.4,227.2 738,376.7 106,58.6 217.3,120.4 335.4,184.7 216.2,117.9 455.1,244.8 726.9,376.6 124.7,60.8 256.6,122.3 396.4,184.9 387.4,173.3 835.5,352.2 1365.3,529.7 30.2,10.3 60.9,20.5 92,30.6 587.4,193.2 1272.8,384.1 2083.2,563 h 3941.8"
         style="fill:#f7f7f7;fill-opacity:1;fill-rule:nonzero;stroke:none"
         id="path18" />
      <path
         d="m 8940.08,15158.2 8202.72,-252 -6695.2,-35.1 7772.8,-175.4 -9280.32,-82.8 v 545.3"
         style="fill:#f0f0f0;fill-opacity:1;fill-rule:nonzero;stroke:none"
         id="path20" />
      <path
         d="m 21082.2,16408.1 -6821.4,-200.7 6821.4,-134.6 z"
         style="fill:#f0f0f0;fill-opacity:1;fill-rule:nonzero;stroke:none"
         id="path22" />
      <path
         d="m 5990.74,13782.5 c 0,-664.7 -538.72,-1203.5 -1203.26,-1203.5 -664.53,0 -1203.25,538.8 -1203.25,1203.5 0,664.6 538.72,1203.4 1203.25,1203.4 664.54,0 1203.26,-538.8 1203.26,-1203.4"
         style="fill:#96aae6;fill-opacity:1;fill-rule:nonzero;stroke:none"
         id="path24" />
      <path
         d="m 6185.63,13860.9 c 0,-664.6 -538.72,-1203.4 -1203.25,-1203.4 -664.54,0 -1203.26,538.8 -1203.26,1203.4 0,664.7 538.72,1203.5 1203.26,1203.5 664.53,0 1203.25,-538.8 1203.25,-1203.5"
         style="fill:#b9cbfd;fill-opacity:1;fill-rule:nonzero;stroke:none"
         id="path26" />
      <path
         d="m 4787.9,14899.9 c -0.21,2.1 -0.42,4.2 -0.42,6.2 0.21,20.2 14.93,37.8 35.45,40.7 22.79,3.3 43.72,-12.3 47.04,-35 0.42,-2.1 0.42,-4.2 0.42,-6.3 0,-20.1 -14.93,-37.7 -35.45,-40.6 -2.07,-0.4 -3.92,-0.4 -6,-0.4 -20.32,0 -37.93,14.7 -41.04,35.4 z m 612.86,-114.4 v -0.2 c -15.33,7 -24.45,22.2 -24.25,37.9 0,5.8 1.05,11.4 3.73,17 9.33,21 33.99,30.1 54.72,20.8 15.34,-7.1 24.45,-22 24.45,-38 0,-5.6 -1.24,-11.4 -3.73,-17 -7.04,-15.3 -21.96,-24.2 -37.71,-24.2 -5.8,0 -11.61,1 -17.21,3.7 z M 4257.72,14630 c -6.83,7.7 -10.36,17.4 -10.36,27 0,11.6 4.77,23.2 14.3,31.5 17.21,14.9 43.54,13.3 58.46,-4.1 6.83,-7.7 10.15,-17.5 10.15,-27 0.21,-11.6 -4.77,-23.2 -14.1,-31.5 -7.87,-6.8 -17.61,-10.2 -27.35,-10.2 -11.4,0 -23.01,4.8 -31.1,14.3 z m 1576.22,-217.4 v 0 c -4.56,6.8 -6.64,14.5 -6.84,22.2 0,13.6 6.63,27.1 19.07,35 19.06,12.6 44.76,7.1 57.19,-12.2 4.57,-6.9 6.64,-14.5 6.64,-22.2 0.21,-13.7 -6.43,-27.2 -18.86,-35 -6.84,-4.6 -14.71,-6.7 -22.39,-6.7 -13.68,0 -26.93,6.7 -34.81,18.9 z m -1877.15,-296.2 c -18.24,5.4 -30.05,21.9 -29.85,40 0,3.7 0.62,7.6 1.66,11.4 6.43,22 29.43,34.6 51.4,28.2 18.24,-5.2 30.06,-22 29.84,-40 0,-3.8 -0.61,-7.5 -1.66,-11.4 -5.17,-18.1 -21.75,-29.9 -39.78,-29.9 -3.74,0 -7.68,0.6 -11.61,1.7 z M 5996.85,13861 v 3.9 c -0.22,23 18.23,41.7 41.24,41.7 22.79,0.2 41.44,-18.5 41.66,-41.3 l -0.22,-2.2 0.22,-2.1 c 0,-23 -18.66,-41.5 -41.45,-41.5 -23.02,0 -41.45,18.5 -41.45,41.5 z m -2067.01,-311.2 c -1.03,3.8 -1.66,7.5 -1.66,11.2 -0.2,18.1 11.4,34.9 29.65,40.3 21.96,6.4 44.97,-6.1 51.6,-28 1.04,-3.8 1.66,-7.7 1.66,-11.4 0.2,-18.1 -11.61,-34.9 -29.84,-40.2 -3.94,-1.1 -7.87,-1.7 -11.61,-1.7 -18.04,0 -34.41,11.6 -39.8,29.8 z m 1918.61,-294.3 c -12.23,7.9 -19.07,21.1 -19.07,34.8 0,7.7 2.27,15.6 6.63,22.4 12.44,19.3 38.14,24.9 57.41,12.5 12.23,-7.9 19.06,-21.4 18.87,-35.1 0,-7.7 -2.08,-15.3 -6.43,-22.2 v -0.2 c -8.09,-12.2 -21.35,-18.8 -35.03,-18.8 -7.68,0 -15.34,2 -22.38,6.6 z m -1583.47,-225.1 c -9.33,8.3 -14.3,19.9 -14.3,31.5 0,9.5 3.31,19.3 10.16,26.9 14.92,17.4 41.04,19.3 58.45,4.4 9.53,-8.3 14.29,-19.7 14.29,-31.3 0,-9.8 -3.31,-19.3 -10.15,-27.2 -8.08,-9.5 -19.69,-14.3 -31.29,-14.3 -9.54,0 -19.28,3.3 -27.16,10 z m 1118.99,-147.2 c -2.48,5.4 -3.73,11.2 -3.73,17 0,15.7 8.91,30.9 24.25,37.9 20.73,9.6 45.39,0.4 54.92,-20.5 2.49,-5.4 3.74,-11.2 3.74,-17 0.2,-15.7 -8.91,-30.9 -24.05,-37.9 -5.59,-2.5 -11.6,-3.8 -17.4,-3.8 -15.55,0 -30.67,9 -37.73,24.3 z m -556.48,-108.8 c -20.53,2.9 -35.44,20.3 -35.65,40.4 0,2.1 0,4.4 0.42,6.4 3.1,22.6 24.04,38.4 46.82,35.3 20.53,-2.9 35.46,-20.6 35.66,-40.7 0,-2 -0.2,-4.1 -0.41,-6.2 -2.91,-20.7 -20.74,-35.6 -41.04,-35.6 -1.86,0 -3.93,0 -5.8,0.4"
         style="fill:#f7f7f7;fill-opacity:1;fill-rule:nonzero;stroke:none"
         id="path28" />
      <path
         d="m 4300.93,13695.7 -4.59,20.2 680.84,154.5 638.48,635.3 14.61,-14.7 -642.69,-639.5 -686.65,-155.8"
         style="fill:#f7f7f7;fill-opacity:1;fill-rule:nonzero;stroke:none"
         id="path30" />
      <path
         d="m 10011,9332.3 1763.6,2295.2 h 767.6 v 962.9 h 788.9 v -663.9 h 860.5 v 1321.3 h 556.3 v -537.5 h 221.3 l 302.3,302.4 h 468.2 v -708.3 h 530.1 v 1495.8 h 479.8 l 304,304.1 h 27.6 v -535 h -84 v -536 h 457.7 v -813.8 h 518.6 v 768.6 h 1188.1 v -1159 h 1106.7 l 832.1,832.1 V 9332.3 H 10011"
         style="fill:#fadfd4;fill-opacity:1;fill-rule:nonzero;stroke:none"
         id="path32" />
      <path
         d="m 21082.2,17018 v -184.9 h -7878.7 c 124.7,60.8 256.5,122.3 396.4,184.9 h 7482.3"
         style="fill:#b9cbfd;fill-opacity:1;fill-rule:nonzero;stroke:none"
         id="path34" />
      <path
         d="m 15057.2,17578.3 v -8246 h -92 v 8215.4 c 30.2,10.3 60.9,20.5 92,30.6"
         style="fill:#b9cbfd;fill-opacity:1;fill-rule:nonzero;stroke:none"
         id="path36" />
      <path
         d="m 20312.2,18141.3 v -8809 h -91.9 v 8809 h 91.9"
         style="fill:#b9cbfd;fill-opacity:1;fill-rule:nonzero;stroke:none"
         id="path38" />
      <path
         d="M 9760.67,15895.1 V 9332.3 h -92.02 v 6578.2 c 7.67,-5.2 15.33,-10.4 23.22,-15.4 h 68.8"
         style="fill:#b9cbfd;fill-opacity:1;fill-rule:nonzero;stroke:none"
         id="path40" />
      <path
         d="m 8940.08,9139.7 h 12142.2 v 192.602 H 8940.08 Z"
         style="fill:#b9cbfd;fill-opacity:1;fill-rule:nonzero;stroke:none"
         id="path42" />
      <path
         d="m 20858,1601.4 c -0.9,-6.2 -1.9,-12.2 -2.9,-18 -8.3,-46.4 -21.4,-81.1 -40.7,-97 -90.5,-75.1 -643.3,-2.3 -1188.6,-9.8 -313,-4.1 -435.9,56.4 -474.4,125.9 h -0.2 c -4.2,7.2 -7.3,14.5 -9.6,21.9 -1.4,4.2 -2.4,8.5 -3.1,12.7 -6.4,32.1 1.1,64.2 12.5,90.8 40.4,94.7 380.5,102.6 451,134.9 159.6,73.4 550.5,200.9 607.4,230.3 57,29.2 106.4,121.7 107,219.3 v 1.3 c 1.9,77.9 104.9,35.6 117.7,24 3.8,-3.5 39,-12.6 86.7,-24 113.7,-27.4 298.8,-66.6 298.8,-66.6 4.8,-21.1 10,-50.5 15.1,-85.6 22.6,-151.1 45.2,-407.7 23.3,-560.1"
         style="fill:#565e96;fill-opacity:1;fill-rule:nonzero;stroke:none"
         id="path44" />
      <path
         d="m 23978,2034.7 c -128.9,-66.6 -620.9,-344.6 -1118.3,-350 -507,-5.3 -594.9,41.5 -593.8,144.5 1.2,102.8 485.6,224.7 556.3,256.6 154,69.7 315,230.1 370.5,291.9 v 0.2 c 4.4,4.8 7.9,8.7 10.8,12.3 39.6,46.8 35.5,119.6 3.3,204.6 -1.6,4.1 -3.3,8.2 -4.9,12.6 -29.9,73.8 82.7,74.4 99,68.6 16.4,-5.8 390.7,63.6 390.7,63.6 16.4,-23.6 41.3,-61.9 69.9,-109.2 14.7,-24.7 30.6,-51.6 46.8,-80 114.6,-200.7 247.5,-475.3 169.7,-515.7"
         style="fill:#565e96;fill-opacity:1;fill-rule:nonzero;stroke:none"
         id="path46" />
      <path
         d="m 20834.7,2161.5 c 0,0 -337.8,-76.3 -625.3,-68.4 57,29.2 106.4,121.7 107,219.3 v 1.3 h 204.4 c 113.7,-27.4 298.8,-66.6 298.8,-66.6 4.8,-21.1 10,-50.5 15.1,-85.6"
         style="fill:#424873;fill-opacity:1;fill-rule:nonzero;stroke:none"
         id="path48" />
      <path
         d="m 23808.3,2550.4 c -238.6,-163.1 -615.6,-172.7 -615.6,-172.7 v 0.2 c 4.4,4.8 7.9,8.7 10.8,12.3 39.6,46.8 35.5,119.6 3.3,204.6 132.7,16.5 412.7,47.8 554.7,35.6 14.7,-24.7 30.6,-51.6 46.8,-80"
         style="fill:#424873;fill-opacity:1;fill-rule:nonzero;stroke:none"
         id="path50" />
      <path
         d="m 16989.3,2359 c 12.2,-165.3 -312.1,-67.3 -312.1,-67.3 0,0 -110,1603.5 -171.3,1879.1 -61.2,275.4 -134.6,1211.8 -189.7,1279.2 -35.3,43 -109.4,343.5 -152.4,583.6 -3.9,22.3 -7.7,44.2 -11.1,65.2 -10.9,68.3 -18.6,128.5 -20.7,171.5 -0.6,12.5 -0.8,23.5 -0.5,32.9 0.4,8.9 1.2,16.2 2.3,22 15.6,74 -260.9,844 -455.2,1441.8 -95,292 -170.3,543 -182.5,651.5 -25,225.5 -461.3,773.4 -736,1099 -128,151.6 -221.1,255.1 -221.1,255.1 0,0 176.7,67.6 462.1,107.7 h 0.2 c 215.8,30.5 494,45.1 805,2.9 154.8,-21 317.9,-56.2 485.4,-110.6 0,0 312.1,-397.8 422.3,-661 110.1,-263.2 293.8,-839.9 269.2,-1286.9 -24.5,-446.7 -171.3,-1285.2 -128.5,-1474.9 18.8,-83 37.6,-204.6 56.5,-326.8 l 2.1,-13.6 c 23.7,-152.1 48,-302.4 73,-375.9 45.9,-134.6 229.4,-526.3 247.9,-930.2 18.3,-404 -257.1,-2179.1 -244.9,-2344.3"
         style="fill:#eea987;fill-opacity:1;fill-rule:nonzero;stroke:none"
         id="path52" />
      <path
         d="m 15973.5,8479.7 c -2.2,-44.8 -129.5,-341.4 -294.9,-712.7 -188.4,-422.6 -426,-941.9 -585.2,-1297 -7.9,-17.7 -15.6,-35 -23.1,-51.9 -38.4,-85.7 -71.3,-160.1 -96.5,-218.9 -14.6,-33.8 -26.6,-62.4 -35.7,-85 -4.4,-10.8 -8.1,-20.1 -11.1,-28.1 -104,-275.7 -67.4,-954.4 -30.7,-1272.8 36.8,-318.2 -550.6,-2209.4 -667,-2227.9 -116.3,-18.3 -281.4,0 -263.1,61.3 18.3,61.1 238.6,2662.5 202,2772.6 -36.7,110.3 -73.5,538.7 -55.2,666.8 3.7,26.3 11.4,68.4 21.3,123.9 15.1,83 35.8,195.9 57.3,330.6 34.5,216.1 71.9,488.3 92.8,782.3 40.2,563.5 415.1,1974.2 475.7,2194.6 4,14.3 6.6,23.6 7.7,27.3 18.5,61.1 34.4,227.8 34.4,227.8 70.1,41.8 136.4,77.5 198.9,107.7 h 0.2 c 404.3,194.7 653.8,155.7 805,2.9 350.6,-354.5 171.2,-1321.9 167.2,-1403.5"
         style="fill:#eea987;fill-opacity:1;fill-rule:nonzero;stroke:none"
         id="path54" />
      <path
         d="m 16683.1,2491.3 c 0,0 -30.2,-198.8 -63.2,-253 -32.9,-54.3 -123.4,-330.6 -164.6,-382.2 -41.1,-51.7 -131.7,-439 0,-485.5 131.7,-46.5 441.8,-123.9 546,31 104.3,154.9 118,309.9 101.6,428.7 -16.5,118.7 -141.7,663.9 -140,717.8 1.7,54 -279.8,-56.8 -279.8,-56.8"
         style="fill:#eea987;fill-opacity:1;fill-rule:nonzero;stroke:none"
         id="path56" />
      <path
         d="m 16507.9,1963.4 c 0,0 -14.2,-301 227.3,-301 241.4,0 348.4,273.9 348.4,273.9 0,0 82.3,-134.5 0,-421.1 -82.3,-286.6 -425.2,-227.2 -502.1,-216.9 -76.8,10.3 -440.9,101 -73.6,665.1"
         style="fill:#e8734d;fill-opacity:1;fill-rule:nonzero;stroke:none"
         id="path58" />
      <path
         d="m 13992.3,2774.1 c 0,0 -170.7,-305.4 -272.1,-367.2 -126.3,-77.1 -371.4,-324.4 -457.1,-335.9 -85.6,-11.4 -393.4,-66 -334,-239.8 48.7,-142.4 783,-122 865.7,-50.6 82.8,71.4 330.5,327.6 430.4,321.8 99.9,-5.7 62.8,-369.5 62.8,-369.5 h 108.4 c 0,0 38,354 42.5,414.9 13.6,180.1 -114.9,312.6 -120.6,415.4 -5.7,102.8 -11.6,179.5 -11.6,179.5 l -314.4,31.4"
         style="fill:#e8734d;fill-opacity:1;fill-rule:nonzero;stroke:none"
         id="path60" />
      <path
         d="m 13287.7,2079.4 c 0,0 242,-83.6 428.3,23.4 186.2,107.1 543.7,269.7 670.1,270.8 0,0 -69,210.9 -70.4,234.5 -1.4,23.6 -9,134.6 -9,134.6 l -312.5,50.1 c 0,0 -202.7,-297.7 -292.1,-367.7 -89.3,-70.1 -318.1,-244.9 -414.4,-345.7"
         style="fill:#eea987;fill-opacity:1;fill-rule:nonzero;stroke:none"
         id="path62" />
      <path
         d="m 14973.8,6199.2 c -618.5,150.9 -778.9,337.5 -782.1,341.3 124.3,-42 418.2,-133.6 837,-215.8 -20.9,-47.1 -39.3,-89.3 -54.9,-125.5 v 0"
         style="fill:#ac7056;fill-opacity:1;fill-rule:nonzero;stroke:none"
         id="path64" />
      <path
         d="m 16913.3,6009.4 c -276,1.3 -525,9.9 -749.5,24.2 v 0 c -3.9,22.3 -7.7,44.2 -11.1,65.2 -4.7,29.4 -8.8,57.3 -12.1,83 170.5,-10.7 349.1,-16.8 534.3,-16.8 66.2,0 133.1,0.7 200.9,2.4 8.5,-1.7 12.9,-2.5 12.9,-2.5 l 22.5,-141.9 2.1,-13.6"
         style="fill:#ac7056;fill-opacity:1;fill-rule:nonzero;stroke:none"
         id="path66" />
      <path
         d="m 17058.2,6173.7 c -1698.3,-78 -2932.8,390.2 -2932.8,390.2 50.7,1024.5 256.9,2662.5 289.1,2768.1 13.5,44.6 36.9,134.9 59.4,224.3 13.6,54.9 27.1,109.3 37.7,153 l 0.1,0.1 c 13,53.8 22,90.9 22,90.9 0,0 1250,86.9 1653,8.3 48.5,-9.5 84.6,-21.3 105,-36 13.1,-9.4 26.6,-20.3 40.2,-32.4 164,-144.4 359.3,-467.9 506.3,-843.9 l 0.1,-0.7 c 39,-99.5 74.5,-202.7 105.1,-307.3 156.2,-532.5 114.8,-2414.6 114.8,-2414.6"
         style="fill:#e8734d;fill-opacity:1;fill-rule:nonzero;stroke:none"
         id="path68" />
      <path
         d="m 14655.3,12873.6 c 0,0 -1200.6,-749.3 -1302.2,-669.6 -142,111.4 -527.7,1062 -527.7,1062 l -302.2,-143.8 c 0,0 360.4,-1643.6 845.9,-1522.6 485.5,121 1600.1,810.4 1600.1,810.4 l -313.9,463.6"
         style="fill:#eea987;fill-opacity:1;fill-rule:nonzero;stroke:none"
         id="path70" />
      <path
         d="m 14137.9,12563.6 204.2,-518.4 194.6,109.2 z"
         style="fill:#bd876d;fill-opacity:1;fill-rule:nonzero;stroke:none"
         id="path72" />
      <path
         d="m 15370.6,15312 c 0,0 847.5,70.5 824.3,-821.2 -23.1,-891.8 -164.5,-1025.9 0.5,-1656 165,-630.1 -826.3,357.8 -826.3,357.8 l 1.5,2119.4"
         style="fill:#16202e;fill-opacity:1;fill-rule:nonzero;stroke:none"
         id="path74" />
      <path
         d="m 12441.7,13195.2 c 0,0 143.3,-186.2 231.6,-205.9 88.4,-19.7 180.4,215.7 180.4,215.7 l -48.1,164.3 -363.9,-174.1"
         style="fill:#eea886;fill-opacity:1;fill-rule:nonzero;stroke:none"
         id="path76" />
      <path
         d="m 12795.5,13257.5 c 0,0 68.6,214.8 78,248 9.5,33.1 -24.1,130.3 -85,222.9 -59.1,90 -133.6,189.1 -159.6,215 -13.6,13.4 -21.1,28.6 -65.8,8.4 -44.7,-20.1 -71.4,-61.8 -71.4,-61.8 0,0 -66.8,1.1 -95.8,-52.7 0,0 -62.9,-1.9 -85.9,-68.4 0,0 -61.4,-3.5 -74,-53.3 0,0 29.6,-91.7 30.8,-128.8 1.1,-37.1 75.8,-223.7 174.9,-391.6 0,0 147.4,-126.9 353.8,62.3"
         style="fill:#eea886;fill-opacity:1;fill-rule:nonzero;stroke:none"
         id="path78" />
      <path
         d="m 12638.1,13536.5 c 0,0 -73.9,-85.9 -82.4,-120.5 -8.6,-34.6 -224.4,94.1 -224.4,94.1 0,0 200.1,113.4 306.8,26.4"
         style="fill:#cf8c6c;fill-opacity:1;fill-rule:nonzero;stroke:none"
         id="path80" />
      <path
         d="m 12640.2,13921.6 c 0,0 119.4,-253.1 79.4,-274.9 -40.1,-21.8 -68,-5.6 -68,-5.6 l -6.3,-126.8 c 0,0 -51.6,-81.7 -125.4,-1.6 0,0 -40.3,-81.3 -102.4,4.5 0,0 -50.4,-41.7 -86.2,-7.1 -35.8,34.7 -95.3,205.5 -95.3,205.5 0,0 3.7,41.8 74,53.3 0,0 18.2,65 85.9,68.4 0,0 38.3,66.6 111.3,69.6 0,0 41.8,59.6 121.7,36.5 0,0 7,-10.8 11.3,-21.8"
         style="fill:#db9c7c;fill-opacity:1;fill-rule:nonzero;stroke:none"
         id="path82" />
      <path
         d="m 12871.2,13514 c 0,0 -144.9,127.3 -254.5,162.1 -24.7,7.8 -50.2,10.9 -66.8,-9.1 -16.7,-20.1 -8.8,-69.7 51.1,-128 60,-58.3 110.7,-161.2 110.7,-161.2 0,0 79.2,-41.9 159.5,136.2"
         style="fill:#eea886;fill-opacity:1;fill-rule:nonzero;stroke:none"
         id="path84" />
      <path
         d="m 12507.2,13906.9 c 0,0 147.8,-263 146.2,-293.9 -1.7,-30.8 96.8,21.7 96.4,48.2 -0.5,26.5 -107.2,260.5 -120.9,282.2 -13.8,21.6 -95.1,37.4 -121.7,-36.5"
         style="fill:#eea886;fill-opacity:1;fill-rule:nonzero;stroke:none"
         id="path86" />
      <path
         d="m 12659.2,13892.7 c 0,0 -235.6,439.5 -270.3,423.5 -50.4,-23.3 -36.9,-145 161.8,-473.1 193.2,-318.9 108.5,49.6 108.5,49.6"
         style="fill:#eea886;fill-opacity:1;fill-rule:nonzero;stroke:none"
         id="path88" />
      <path
         d="m 14590.9,11962.5 -484.9,643.3 c 0,0 866.7,671.4 1134.2,244.5 0,0 19,-703.3 -649.3,-887.8"
         style="fill:#323657;fill-opacity:1;fill-rule:nonzero;stroke:none"
         id="path90" />
      <path
         d="m 16602,11875.1 c 0,0 -5.9,-22.6 -17.5,-54.7 -11.4,-32.1 -28.2,-73.7 -49.7,-111.9 -17,-30 -37.7,-65.3 -60,-103.3 -21.2,-36 -43.7,-74 -65.7,-112.4 -116.6,-203 -233.4,-480.6 -296.3,-567.9 -20.4,-28.3 -36.1,-58.3 -48,-89.1 v -0.5 c -57.8,-148.9 -27.8,-314 -25.5,-374 7.5,-211.2 292.6,-721.1 292.6,-721.1 -128.5,-73.3 -1898.9,-257.1 -1876,-13.8 22.9,243.3 31.9,1171 9,1350 -23,179.1 -4.5,358 -23,436.2 -18.2,78 -128.5,257.1 -142.1,472.7 -13.8,215.7 178.9,353.6 165.1,518.7 -13.6,165.3 137.8,422.4 257,431.6 119.4,9.1 422.4,114.7 422.4,114.7 l 472.7,50.6 c 0,0 133.1,-41.3 335,-50.6 202,-9.1 312.2,-27.4 518.7,-133 206.5,-105.6 131.3,-1042.2 131.3,-1042.2"
         style="fill:#323657;fill-opacity:1;fill-rule:nonzero;stroke:none"
         id="path92" />
      <path
         d="m 15310.4,15220.9 c -212.8,6.2 -682.2,-109.9 -743.9,-674.8 0,0 20,-151.6 59.2,-270.2 39.2,-118.7 -60.9,-472.7 -32.7,-489.5 28.3,-16.8 144,-36.7 144,-36.7 0,0 131.5,-382 266.4,-376.1 134.9,5.9 643.7,121.4 874.9,604.3 231.3,483 291.3,1218.2 -567.9,1243"
         style="fill:#eea886;fill-opacity:1;fill-rule:nonzero;stroke:none"
         id="path94" />
      <path
         d="m 15102.3,13556.1 c 0,0 10.4,-55.4 20,-137 5,-41.7 9.7,-90.2 12.8,-141.6 8.4,-142.2 1.5,-170.1 0.2,-448.2 0,0 218.6,-126 500.7,266.2 0,0 -27.5,489.6 134.6,748.4 162,258.7 -668.3,-287.8 -668.3,-287.8"
         style="fill:#eea886;fill-opacity:1;fill-rule:nonzero;stroke:none"
         id="path96" />
      <path
         d="m 14566.5,14546.1 c 0,0 426.9,-261.4 770.4,-302.2 343.4,-40.8 491.9,-357.4 491.9,-357.4 0,0 508.7,664.7 78,1185.8 -430.7,521 -1427.6,129.1 -1340.3,-526.2"
         style="fill:#16202e;fill-opacity:1;fill-rule:nonzero;stroke:none"
         id="path98" />
      <path
         d="m 15122.3,13392 c 5,-41.7 11.3,-92.9 14.3,-144.2 295.4,143.3 362.4,310.2 362.4,310.2 -173.6,-124.4 -376.7,-166 -376.7,-166"
         style="fill:#a77860;fill-opacity:1;fill-rule:nonzero;stroke:none"
         id="path100" />
      <path
         d="m 15336.9,14243.9 c 0,0 342.5,-921.3 301.5,-1143 0,0 181.3,31.2 504.2,-67.6 0,0 -156.1,1643.7 -805.7,1210.6"
         style="fill:#16202e;fill-opacity:1;fill-rule:nonzero;stroke:none"
         id="path102" />
      <path
         d="m 15752.8,13071.1 -607.8,-641.5 c -31.7,58.1 -23.6,612.9 -23.6,612.9 0,0 163.1,146.5 631.4,28.6"
         style="fill:#eea886;fill-opacity:1;fill-rule:nonzero;stroke:none"
         id="path104" />
      <path
         d="M 4920.18,4923.3 4825.67,4529 4042.17,1262.2 h -193.35 l 662.84,3266.8 81.67,402.1 326.85,-7.8"
         style="fill:#858585;fill-opacity:1;fill-rule:nonzero;stroke:none"
         id="path106" />
      <path
         d="M 5877.94,4923.3 5783.43,4529 4999.92,1262.2 h -193.35 l 662.84,3266.8 81.68,402.1 326.85,-7.8"
         style="fill:#858585;fill-opacity:1;fill-rule:nonzero;stroke:none"
         id="path108" />
      <path
         d="m 8427.95,1262.2 h -193.52 l -783.34,3266.8 -94.51,394.3 326.86,7.8 744.51,-3668.9"
         style="fill:#858585;fill-opacity:1;fill-rule:nonzero;stroke:none"
         id="path110" />
      <path
         d="m 4593.33,4931.1 326.85,-7.8 -94.51,-394.3 h -314.01 l 81.67,402.1"
         style="fill:#6e6e6e;fill-opacity:1;fill-rule:nonzero;stroke:none"
         id="path112" />
      <path
         d="M 5877.94,4923.3 5783.43,4529 h -314.02 l 81.68,402.1 326.85,-7.8"
         style="fill:#6e6e6e;fill-opacity:1;fill-rule:nonzero;stroke:none"
         id="path114" />
      <path
         d="m 7764.94,4529 h -313.85 l -94.51,394.3 326.86,7.8 81.5,-402.1"
         style="fill:#6e6e6e;fill-opacity:1;fill-rule:nonzero;stroke:none"
         id="path116" />
      <path
         d="m 8257.81,4887.6 h -3782.9 c 0,0 -263.46,6.1 -439.97,786.7 -198.48,878.2 -599.3,3811.4 -599.3,3811.4 0,0 27.76,71.4 278.07,136.6 112.33,29.4 269.73,57.3 489.87,76.9 246.78,22.1 572.35,33.7 1001.41,24.7 L 6425.9,8139.4 8182.89,5859.5 c 0,0 101.56,-609.2 74.92,-971.9"
         style="fill:#f7f7f7;fill-opacity:1;fill-rule:nonzero;stroke:none"
         id="path118" />
      <path
         d="M 6425.9,8139.4 5095.7,5361.6 4771.88,5496.3 c 0,0 -154.48,-2.4 -1058.17,4126 112.33,29.4 269.73,57.3 489.87,76.9 246.78,22.1 572.35,33.7 1001.41,24.7 L 6425.9,8139.4"
         style="fill:#bfb2ab;fill-opacity:1;fill-rule:nonzero;stroke:none"
         id="path120" />
      <path
         d="m 8145.35,5276.7 c 0,0 -3100.46,-70.3 -3338.78,177.9 -372.84,388.3 946.71,378.9 1322.87,387.2 376.16,8.3 2015.91,-565.1 2015.91,-565.1"
         style="fill:#bfb2ab;fill-opacity:1;fill-rule:nonzero;stroke:none"
         id="path122" />
      <path
         d="m 9365.87,10937.2 c 0,0 154.14,194.9 178.49,223.9 24.34,29 120.03,56.4 231.98,77.5 111.93,21.1 269.46,-5.3 282.16,-20.9 12.6,-15.6 32.3,-24.5 37.4,-79 5,-54.4 -18,-104.8 -18,-104.8 0,0 35,-62.4 2.5,-122.4 0,0 30.4,-60.5 -16.4,-122.5 0,0 28.2,-60 -9.1,-102 0,0 -95.91,-27.7 -129.17,-49.1 -33.27,-21.4 -235.66,-64 -434.12,-72.3 0,0 -186.98,62.1 -125.74,371.6"
         style="fill:#eea886;fill-opacity:1;fill-rule:nonzero;stroke:none"
         id="path124" />
      <path
         d="m 8374.3,8548.3 c 0,0 192.72,83.8 337.24,50 144.52,-33.7 483.1,-160.1 650.33,-181.1 167.21,-21 326.5,-118.2 323.38,-173.7 -3.12,-55.6 -1291.13,-101 -1297.31,25.5 -6.18,126.6 -13.64,279.3 -13.64,279.3"
         style="fill:#eea886;fill-opacity:1;fill-rule:nonzero;stroke:none"
         id="path126" />
      <path
         d="m 9365.87,10937.2 c 0,0 -251.61,-165.4 -257.11,-216.2 -9.08,-83.9 42.76,-344.6 49.01,-340.9 6.24,3.7 379.4,188 379.4,188 l -171.3,369.1"
         style="fill:#eea886;fill-opacity:1;fill-rule:nonzero;stroke:none"
         id="path128" />
      <path
         d="m 9360.64,1885.7 c 0,0 324.15,-192.8 470.93,-264.5 146.8,-71.7 717.83,-93.7 774.13,-147.4 56.3,-53.8 35.2,-224.5 -59.5,-241.7 -94.7,-17.2 -788.97,-78.2 -1020.46,-23.4 -231.48,54.7 -664.84,-35.3 -760.69,-2.5 -95.85,32.9 -32.66,549.9 4.72,665.9 37.38,116 590.87,13.6 590.87,13.6"
         style="fill:#292c47;fill-opacity:1;fill-rule:nonzero;stroke:none"
         id="path130" />
      <path
         d="m 9355.63,2104.4 5.01,-218.7 c 0,0 -434.18,-80.1 -590.87,-13.6 l 10.94,240.3 574.92,-8"
         style="fill:#0d0e17;fill-opacity:1;fill-rule:nonzero;stroke:none"
         id="path132" />
      <path
         d="m 10119.6,1885.7 c 0,0 324.2,-192.8 471,-264.5 146.8,-71.7 717.8,-93.7 774.1,-147.4 56.3,-53.8 35.2,-224.5 -59.5,-241.7 -94.7,-17.2 -789,-78.2 -1020.5,-23.4 -231.5,54.7 -664.82,-35.3 -760.67,-2.5 -95.85,32.9 -32.65,549.9 4.73,665.9 37.37,116 590.84,13.6 590.84,13.6"
         style="fill:#323657;fill-opacity:1;fill-rule:nonzero;stroke:none"
         id="path134" />
      <path
         d="m 10114.6,2104.4 5,-218.7 c 0,0 -434.16,-80.1 -590.84,-13.6 l 10.94,240.3 574.9,-8"
         style="fill:#0d0e17;fill-opacity:1;fill-rule:nonzero;stroke:none"
         id="path136" />
      <path
         d="m 7564.07,7198.5 -493.1,86.1 328.74,828 z"
         style="fill:#24263d;fill-opacity:1;fill-rule:nonzero;stroke:none"
         id="path138" />
      <path
         d="m 10232.5,2010.9 h -821.65 c 0,0 -638.14,2968.7 -715.63,3152.3 -77.34,183.7 -3142.2,193.5 -3364.59,416 -98.04,98 -190.31,271.2 -242.29,480.9 -3.37,13.7 -6.43,27.3 -9.47,41.1 -48.3,221.3 -50.86,479 30.16,730.7 13.32,41.8 29.21,83.7 47.5,125.1 55.35,125.1 134.14,196.8 222.55,232.7 150.03,61 327.97,19.9 467.89,-35.9 138.48,-55.2 239.56,-125 239.56,-125 0,0 141.68,-30.2 362.79,-78.2 702.96,-152.8 2207.87,-487.4 2502.14,-612.4 386.87,-164.5 618.88,-232 647.92,-314.4 28.89,-82.1 633.12,-4012.9 633.12,-4012.9"
         style="fill:#1e2033;fill-opacity:1;fill-rule:nonzero;stroke:none"
         id="path140" />
      <path
         d="m 7341.69,7305.2 c 0,0 2842.01,-799.7 3074.61,-1165.3 236.9,-372.3 -947.51,-4129.1 -947.51,-4129.1 h -812.17 c 0,0 783.17,3519.9 686.48,3674.6 -96.69,154.8 -4379.89,4.9 -3582.23,1271.7 797.67,1266.7 1580.82,348.1 1580.82,348.1"
         style="fill:#1e2033;fill-opacity:1;fill-rule:nonzero;stroke:none"
         id="path142" />
      <path
         d="M 9562,10522.9 8336.92,9490.2 c -104.46,-87.9 -258.49,-82.6 -356.37,12.5 -52.31,50.7 -113.6,110.8 -179.87,176.1 v 0.1 c -51.67,51.1 -106.54,105.5 -162.38,161.6 l -0.17,0.3 c -312.08,314 -656.58,679.2 -692.84,795.7 -67.71,217.6 -103.49,512.6 100.93,619 106.87,55.5 608.28,-207.2 639.57,-245.2 152.12,-185.4 612.78,-766.2 612.78,-766.2 l 1056.61,796 206.82,-517.2"
         style="fill:#323657;fill-opacity:1;fill-rule:nonzero;stroke:none"
         id="path144" />
      <path
         d="m 6696.99,13465 c 0,0 531.76,-82.8 497.93,-918.6 -36.17,-894 -149.62,-946.8 -792.82,-793 -290.29,69.4 -560.78,483.5 -454.42,1203.9 106.34,720.5 749.31,507.7 749.31,507.7"
         style="fill:#eea987;fill-opacity:1;fill-rule:nonzero;stroke:none"
         id="path146" />
      <path
         d="m 6761.57,11468.1 c 0,0 719.2,-340.5 781.12,-401.5 131.74,-130 35.88,-1547 -22.13,-2045 -58.01,-498 -217.54,-1571.4 -178.87,-1716.4 L 5760.87,6957.1 c 0,0 -507.6,1846.9 -522.1,2141.9 -14.5,294.9 -386.75,1668.1 -207.88,1779.3 178.88,111.2 957.2,546.3 957.2,546.3 l 773.48,43.5"
         style="fill:#eddad3;fill-opacity:1;fill-rule:nonzero;stroke:none"
         id="path148" />
      <path
         d="m 5760.87,6957.1 -77.4,285.2 1661.81,323.7 -3.59,-260.8 -1580.82,-348.1"
         style="fill:#1f2136;fill-opacity:1;fill-rule:nonzero;stroke:none"
         id="path150" />
      <path
         d="m 6628.14,7443.1 303.71,63.4 c 28.03,5.9 54.36,-15.6 54.36,-44.2 v -220.5 c 0,-21 -14.45,-39.2 -34.89,-44 l -303.7,-70.8 c -28.31,-6.6 -55.4,14.9 -55.4,44 v 227.9 c 0,21.4 15,39.9 35.92,44.2"
         style="fill:#1f2136;fill-opacity:1;fill-rule:nonzero;stroke:none"
         id="path152" />
      <path
         d="m 6772.52,11466.1 c 0,0 329.47,-851.1 469.26,-1719.2 142.54,-885.2 135.51,-2487.8 290.06,-2526.9 154.55,-39.1 106.88,-13 106.88,-13 0,0 -28.99,968.2 -43.12,1289.2 -31.53,716.4 142.14,2481.7 90.12,2514.1 -154.39,96 -621.11,330 -913.2,455.8"
         style="fill:#323657;fill-opacity:1;fill-rule:nonzero;stroke:none"
         id="path154" />
      <path
         d="m 6745.63,11599.8 c 0,-52 4.25,-99.6 15.89,-131.4 0,0 -86.85,-339.1 -773.37,-43.5 0,0 135.59,505.4 0,929.3 l 773.37,-480 c 0,0 -9.52,-76.3 -13.76,-165.3 -2.13,-36 -3.18,-74.2 -2.13,-109.1"
         style="fill:#eea987;fill-opacity:1;fill-rule:nonzero;stroke:none"
         id="path156" />
      <path
         d="m 6016.12,11559.4 c 0,0 269.87,-130.7 542.15,-155.9 l -132.68,-282.3 -437.5,303.4 28.03,134.8"
         style="fill:#d6c5bf;fill-opacity:1;fill-rule:nonzero;stroke:none"
         id="path158" />
      <path
         d="m 6558.27,11403.5 c 0,0 189.91,63 188.5,155.9 l 25.75,-93.3 -77.42,-297.7 -136.83,235.1"
         style="fill:#d6c5bf;fill-opacity:1;fill-rule:nonzero;stroke:none"
         id="path160" />
      <path
         d="m 7135.9,12981.1 c 0,0 137.99,296 38.07,513.3 -99.91,217.2 -360.95,127 -480.2,101.2 -119.25,-25.8 -446.92,221.1 -846.55,-101.2 -399.64,-322.4 -178.32,-643.4 -1.07,-1046.3 177.26,-403 200.22,-436.8 200.22,-436.8 0,0 -0.15,411.8 48.06,484.3 56.69,85.3 264.16,129.7 264.16,129.7 0,0 -157.93,216 -3.22,296.6 154.7,80.6 474.95,-68.6 780.53,59.2"
         style="fill:#16202e;fill-opacity:1;fill-rule:nonzero;stroke:none"
         id="path162" />
      <path
         d="m 6155.55,12709.1 c -21.04,61.7 -125.1,131.9 -177.26,16.2 -52.16,-115.8 83.8,-319.2 157.92,-319.2 74.13,0 67.68,161.2 19.34,303"
         style="fill:#eea987;fill-opacity:1;fill-rule:nonzero;stroke:none"
         id="path164" />
      <path
         d="m 6558.27,11403.5 99.2,-170.4 c 0,0 -45.89,-52.7 -193.27,-29.7 l 94.07,200.1"
         style="fill:#e8734d;fill-opacity:1;fill-rule:nonzero;stroke:none"
         id="path166" />
      <path
         d="m 6636.26,11218.2 c 0,0 405.7,-1194.1 408.93,-2041.9 3.22,-847.7 -63.66,-1353.8 -63.66,-1353.8 l -89.3,-166.9 -130.66,152.4 c 0,0 92.22,2461.6 -268.75,3391.7 0,0 128.38,61.2 143.44,18.5"
         style="fill:#e8734d;fill-opacity:1;fill-rule:nonzero;stroke:none"
         id="path168" />
      <path
         d="m 6754.17,11688.7 c -5.93,-38.9 -9.16,-81.2 -8.1,-116.2 -534.03,61.2 -560.44,413.3 -560.44,413.3 83.24,-242.7 568.54,-297.1 568.54,-297.1"
         style="fill:#a77860;fill-opacity:1;fill-rule:nonzero;stroke:none"
         id="path170" />
      <path
         d="m 9737.08,10937.2 -48.69,50.4 596.51,575.9 48.7,-50.5 -596.52,-575.8"
         style="fill:#eb4747;fill-opacity:1;fill-rule:nonzero;stroke:none"
         id="path172" />
      <path
         d="m 10284.9,11563.5 112.1,59.5 -63.4,-110 z"
         style="fill:#eea886;fill-opacity:1;fill-rule:nonzero;stroke:none"
         id="path174" />
      <path
         d="m 10029,11213.4 c 0,0 -282.88,-61 -281.68,-112 1.22,-51 29.81,-67.5 29.81,-67.5 l -108.5,-82.8 c 0,0 -45.56,-98.2 62.61,-119.3 0,0 -50.99,-87.3 56.25,-93.9 0,0 -11,-72.9 37.77,-85.6 48.78,-12.8 229.64,34.7 229.64,34.7 0,0 34.9,28.7 9.1,102 0,0 47.9,56.6 16.4,122.5 0,0 32.2,51.6 -2.5,122.4 0,0 63.9,120.9 -19.4,183.8 0,0 -17.6,-1.7 -29.5,-4.3"
         style="fill:#d69779;fill-opacity:1;fill-rule:nonzero;stroke:none"
         id="path176" />
      <path
         d="m 9553.09,11164.1 c 0,0 186.03,-59.5 272.59,-141.9 19.57,-18.6 35.3,-40.8 26.14,-68.6 -9.16,-27.9 -56.86,-50.5 -138.83,-29.3 -81.97,21.2 -198.44,6.8 -198.44,6.8 0,0 -77.32,49.2 38.54,233"
         style="fill:#eea886;fill-opacity:1;fill-rule:nonzero;stroke:none"
         id="path178" />
      <path
         d="m 9791.41,4851.7 c 0,0 -173.72,1084.4 -182.91,1128.3 -9.18,43.9 -186.01,202 -1030.92,478.8 0,0 939.2,-182.6 1185.46,-343 189.81,-123.6 28.37,-1264.1 28.37,-1264.1"
         style="fill:#0d0e17;fill-opacity:1;fill-rule:nonzero;stroke:none"
         id="path180" />
      <path
         d="M 18331.7,7809 V 988.102 h 315.7 V 7809 h -315.7"
         style="fill:#88a3eb;fill-opacity:1;fill-rule:nonzero;stroke:none"
         id="path182" />
      <path
         d="m 18331.7,6933.1 h 315.7 V 7809 h -315.7 v -875.9"
         style="fill:#6985d1;fill-opacity:1;fill-rule:nonzero;stroke:none"
         id="path184" />
      <path
         d="M 8145.35,7809 V 988.102 h 315.69 V 7809 h -315.69"
         style="fill:#88a3eb;fill-opacity:1;fill-rule:nonzero;stroke:none"
         id="path186" />
      <path
         d="m 8145.35,6933.1 h 315.69 V 7809 h -315.69 v -875.9"
         style="fill:#6985d1;fill-opacity:1;fill-rule:nonzero;stroke:none"
         id="path188" />
      <path
         d="m 6769.06,11478.6 221.65,-111.1 337.21,-531.7 -120.46,-116.4 182.12,-50.6 c 0,0 90.63,-2211.6 24.8,-2637.9 0,0 -164.28,2128.2 -645.32,3447.7"
         style="fill:#323657;fill-opacity:1;fill-rule:nonzero;stroke:none"
         id="path190" />
      <path
         d="m 6769.06,11478.6 237.18,-186.2 321.68,-456.6 -72.83,-217.9 134.49,50.9 c 0,0 33.24,-2188.3 24.8,-2637.9 0,0 -164.28,2128.2 -645.32,3447.7"
         style="fill:#1f2136;fill-opacity:1;fill-rule:nonzero;stroke:none"
         id="path192" />
      <path
         d="m 6769.06,11478.6 221.65,-111.1 337.21,-531.7 -120.46,-116.4 182.12,-50.6 c 0,0 90.63,-2211.6 24.8,-2637.9 0,0 -164.28,2128.2 -645.32,3447.7"
         style="fill:#424773;fill-opacity:1;fill-rule:nonzero;stroke:none"
         id="path194" />
      <path
         d="m 6492.82,11199.7 c 0,0 61.52,-36.9 161.37,-36 l -17.93,54.5 c 0,0 -20.61,-21.6 -143.44,-18.5"
         style="fill:#a65237;fill-opacity:1;fill-rule:nonzero;stroke:none"
         id="path196" />
      <path
         d="m 9410.77,2010.8 -470.69,1315.5 89.13,430 z"
         style="fill:#0d0e17;fill-opacity:1;fill-rule:nonzero;stroke:none"
         id="path198" />
      <path
         d="m 6334.76,5898.7 c -34.18,-62.1 -1191.41,315.4 -1283.51,380.8 -3.37,13.7 3.05,-13.8 0,0 -48.3,221.3 -23.24,300.7 57.78,552.4 501.6,62.1 1210.01,61.3 1210.01,61.3 0,0 49.9,-932.3 15.72,-994.5"
         style="fill:#0d0e17;fill-opacity:1;fill-rule:nonzero;stroke:none"
         id="path200" />
      <path
         d="m 6410.87,8245.1 c -4.25,-81.6 -9.54,-164.2 -13.79,-247.9 l -1.06,-1.1 c -56.16,-917.6 -139.85,-1877.6 -139.85,-1877.6 -89.84,-75 -996.11,114.2 -1393.98,201.9 -89.25,19.7 -136.97,117.6 -97.01,199.8 68.54,141 167.89,384.9 265.24,764.9 174.79,677.1 38.12,1327.7 -143.03,2429.6 -180.1,1102 -30.73,1095.7 -30.73,1095.7 l 1131.49,614.5 c 74.15,-281.8 373.96,-1304.3 444.97,-1890.3 25.42,-214 9.54,-725.8 -22.25,-1289.5"
         style="fill:#323657;fill-opacity:1;fill-rule:nonzero;stroke:none"
         id="path202" />
      <path
         d="m 6410.87,8245.1 c -4.25,-81.6 -9.54,-164.2 -13.79,-247.9 l -1.06,-1.1 c 0,0 -285.32,-37.8 -524.42,70.9 -240.13,109 -406.8,935.7 -418.47,979.1 24.37,-47.6 407.88,-801 502.17,-801 97.46,0 455.57,0 455.57,0"
         style="fill:#1f2136;fill-opacity:1;fill-rule:nonzero;stroke:none"
         id="path204" />
      <path
         d="m 7800.68,9678.9 c -51.67,51.1 -106.54,105.5 -162.38,161.6 l -0.17,0.3 c 0,0 10.28,356.8 -54.87,686 0,0 195.75,-475.1 217.42,-847.9"
         style="fill:#1f2136;fill-opacity:1;fill-rule:nonzero;stroke:none"
         id="path206" />
      <path
         d="m 5960.2,11402.1 -193.48,-97.5 37.01,-600.8 209.63,-113.4 -122.67,-79.1 465.58,-2768.4 c 0,0 238.48,937.7 6.46,2158.8 -189.44,997 -402.53,1500.4 -402.53,1500.4"
         style="fill:#1f2136;fill-opacity:1;fill-rule:nonzero;stroke:none"
         id="path208" />
      <path
         d="m 5997.14,11468.1 -230.42,-163.5 37.01,-600.8 198.76,-12.4 -111.8,-180.1 493.55,-2702.3 c 0,0 238.47,937.6 6.45,2158.7 -189.44,997 -393.55,1500.4 -393.55,1500.4"
         style="fill:#424773;fill-opacity:1;fill-rule:nonzero;stroke:none"
         id="path210" />
      <path
         d="m 4982.38,10878.3 c 296.78,121.1 604.46,-290.1 768.82,-701.1 164.37,-411 478.6,-1158.8 478.6,-1158.8 l 2195.29,-355.7 30.95,-417.4 H 5894.62 c 0,0 -975.83,1748.2 -1043.52,1965.7 -67.67,217.6 -82,580.2 131.28,667.3"
         style="fill:#323657;fill-opacity:1;fill-rule:nonzero;stroke:none"
         id="path212" />
      <path
         d="M 19834.9,8132.9 V 7929 c 0,-62.1 -50.4,-112.4 -112.4,-112.4 H 7070.28 c -62.1,0 -112.31,50.3 -112.31,112.4 v 203.9 c 0,13.3 2.24,26 6.58,37.7 15.4,43.5 56.95,74.7 105.73,74.7 H 19722.5 c 48.7,0 90.2,-31.2 105.6,-74.7 4.5,-11.7 6.8,-24.4 6.8,-37.7"
         style="fill:#819eeb;fill-opacity:1;fill-rule:nonzero;stroke:none"
         id="path214" />
      <path
         d="M 19828.1,8170.6 H 6964.55 c 15.4,43.5 56.95,74.7 105.73,74.7 H 19722.5 c 48.7,0 90.2,-31.2 105.6,-74.7"
         style="fill:#ebebeb;fill-opacity:1;fill-rule:nonzero;stroke:none"
         id="path216" />
      <path
         d="m 15336.9,12679.3 -191.9,-249.7 312.2,155.2 -120.3,94.5"
         style="fill:#d6c5be;fill-opacity:1;fill-rule:nonzero;stroke:none"
         id="path218" />
      <path
         d="m 15139.1,13127.6 c 0,0 61.2,-493.4 116,-554.7 l -110.1,-143.3 -5.9,698"
         style="fill:#bd876d;fill-opacity:1;fill-rule:nonzero;stroke:none"
         id="path220" />
      <path
         d="m 15634.3,13170.1 -297.4,-490.8 317.8,-249.7 136.8,635.6 -157.2,104.9"
         style="fill:#fae6de;fill-opacity:1;fill-rule:nonzero;stroke:none"
         id="path222" />
      <path
         d="m 15654.7,12429.6 -250.6,128.8 53.1,26.4 -94.7,74.3 v 0 l 292.2,-229.5"
         style="fill:#2c2b43;fill-opacity:1;fill-rule:nonzero;stroke:none"
         id="path224" />
      <path
         d="m 15362.5,12659.1 -25.6,20.2 25.6,-20.2 v 0"
         style="fill:#cf8668;fill-opacity:1;fill-rule:nonzero;stroke:none"
         id="path226" />
      <path
         d="m 15404.1,12558.4 -114.8,59 47.6,61.9 25.6,-20.2 94.7,-74.3 -53.1,-26.4"
         style="fill:#ba9e93;fill-opacity:1;fill-rule:nonzero;stroke:none"
         id="path228" />
      <path
         d="m 14747.9,12524 221.3,186.3 87.9,-85.6 -309.2,-100.7"
         style="fill:#212133;fill-opacity:1;fill-rule:nonzero;stroke:none"
         id="path230" />
      <path
         d="m 15139.1,13127.6 -132.8,-122.4 -258.4,-481.2 221.3,186.3 169.9,417.3"
         style="fill:#fae6de;fill-opacity:1;fill-rule:nonzero;stroke:none"
         id="path232" />
      <path
         d="m 15139.1,13127.6 5.9,-698 -175.8,280.7 z"
         style="fill:#d6c5be;fill-opacity:1;fill-rule:nonzero;stroke:none"
         id="path234" />
      <path
         d="m 16293.1,11272.1 -43,78.9 c 99.7,196.2 198.7,333.8 198.7,333.8 l 26,-79.6 c -21.2,-36 -43.7,-74 -65.7,-112.4 -39.3,-68.4 -78.7,-145.4 -116,-220.7"
         style="fill:#2c2b43;fill-opacity:1;fill-rule:nonzero;stroke:none"
         id="path236" />
      <path
         d="m 15998.5,8364.6 -629.4,1251.7 0.2,0.1 c 19,1.1 38.1,2.3 57.1,3.5 l 626.1,-1084.7 755.4,436.2 c 10.3,-24.8 20.4,-49.8 30.3,-75.1 l 0.1,-0.7 -839.8,-531"
         style="fill:#ca5c3b;fill-opacity:1;fill-rule:nonzero;stroke:none"
         id="path238" />
      <path
         d="m 15369.3,9616.4 52,12.2 5.1,-8.7 c -19,-1.2 -38.1,-2.4 -57.1,-3.5"
         style="fill:#2c2b43;fill-opacity:1;fill-rule:nonzero;stroke:none"
         id="path240" />
      <path
         d="m 14868.3,10586.6 1184.2,-2051.4 1316.5,760.2 -1132.8,2081.1 -1367.9,-789.9"
         style="fill:#f7f7f7;fill-opacity:1;fill-rule:nonzero;stroke:none"
         id="path242" />
      <path
         d="m 16103.7,9629.6 c 421.3,327.4 827.1,470.9 827.1,470.9 l 66.4,-122.1 -893.5,-348.8"
         style="fill:#b2a49e;fill-opacity:1;fill-rule:nonzero;stroke:none"
         id="path244" />
      <path
         d="m 15455.5,9224.2 c 0,0 53.9,-0.2 77.4,11.2 0,0 41.4,24 71.8,39.3 9.7,4.8 18.2,8.8 24,10.8 24.2,8.3 79.7,19.5 132.1,55.8 52.3,36.3 237.7,251 237.7,251 l -87.6,133.2 -64.2,136.4 c 0,0 -389.3,-25.1 -442,-53.3 -5.1,-2.8 -10.1,-5.7 -14.6,-8.9 -42.2,-28.2 -61.9,-66.9 -82.4,-84.2 -7.5,-6.5 -77.7,-75.2 -75.2,-104.4 3.3,-40.6 22.1,-67.4 46.6,-80.8 0,0 10.1,-79.2 49.1,-116.2 0,0 7,-73.4 68.6,-105.5 0,0 15.4,-73.7 58.7,-84.4"
         style="fill:#eea886;fill-opacity:1;fill-rule:nonzero;stroke:none"
         id="path246" />
      <path
         d="m 16258,12945.7 c 0,0 359.6,103.1 565.6,-293.3 206.1,-396.3 211.7,-564.3 251.7,-755.6 48.7,-233.1 102.2,-462.5 114.1,-514 11.9,-51.5 258,-766.6 136.1,-981.3 -122.6,-215.9 -1402.8,-838.7 -1394.9,-886.3 7.9,-47.5 -138.1,346.1 -138.1,346.1 0,0 563.6,412.7 659.3,484.3 236.7,177.2 310.5,238.1 285.3,348.8 -47.8,210.3 -261.6,942.7 -309.1,1043.7 -47.6,101.1 -473.2,1078.8 -170,1207.6"
         style="fill:#eea987;fill-opacity:1;fill-rule:nonzero;stroke:none"
         id="path248" />
      <path
         d="m 16392.7,11663.7 688.5,195.6 c 0,0 -60.1,1142.8 -849.2,1155 -524.9,8 160.7,-1350.6 160.7,-1350.6"
         style="fill:#323657;fill-opacity:1;fill-rule:nonzero;stroke:none"
         id="path250" />
      <path
         d="m 17050.3,11850.5 -534.9,-370.6 -66.6,204.9 z"
         style="fill:#bd876d;fill-opacity:1;fill-rule:nonzero;stroke:none"
         id="path252" />
      <path
         d="m 14075.1,10821.9 266.7,-2480.1 c 5.6,-51.6 -34.8,-96.5 -86.6,-96.5 h -3582.1 c -44.5,0 -81.9,33.6 -86.7,77.9 l -266.7,2480.1 c -5.5,51.5 34.8,96.5 86.7,96.5 h 3582 c 44.6,0 82,-33.6 86.7,-77.9"
         style="fill:#2a4387;fill-opacity:1;fill-rule:nonzero;stroke:none"
         id="path254" />
      <path
         d="M 14574.6,8484.1 H 13947 v -238.8 h 627.6 v 238.8"
         style="fill:#2a4387;fill-opacity:1;fill-rule:nonzero;stroke:none"
         id="path256" />
      <path
         d="m 14178.4,8245.2 h -3582 c -44.4,0 -81.8,33.7 -86.7,78 l -266.6,2480.1 c -5.6,51.5 34.8,96.6 86.6,96.6 h 3582 c 44.6,0 82,-33.7 86.8,-78 l 238.3,-2215.9 28.4,-264.2 c 5.5,-51.5 -34.8,-96.6 -86.8,-96.6"
         style="fill:#4d78eb;fill-opacity:1;fill-rule:nonzero;stroke:none"
         id="path258" />
      <path
         d="m 14178.4,8245.2 h -3582 c -44.4,0 -81.8,33.7 -86.7,78 l -266.6,2480.1 c -5.6,51.5 34.8,96.6 86.6,96.6 h 1020.7 c 0,0 468.4,-2390.7 2886.3,-2293.6 l 0.1,-0.3 28.4,-264.2 c 5.5,-51.5 -34.8,-96.6 -86.8,-96.6"
         style="fill:#4971de;fill-opacity:1;fill-rule:nonzero;stroke:none"
         id="path260" />
      <path
         d="m 6641.52,7429.3 303.69,63.3 c 28.05,5.9 54.38,-15.5 54.38,-44.2 v -220.5 c 0,-20.9 -14.46,-39.2 -34.9,-43.9 L 6661,7113.2 c -28.32,-6.6 -55.41,14.9 -55.41,43.9 v 228 c 0,21.3 15,39.8 35.93,44.2"
         style="fill:#4f558a;fill-opacity:1;fill-rule:nonzero;stroke:none"
         id="path262" />
      <path
         d="m 20848.2,2429.8 -28.6,-182.6 -493.8,91.3 31.2,273 491.2,-181.7"
         style="fill:#eea886;fill-opacity:1;fill-rule:nonzero;stroke:none"
         id="path264" />
      <path
         d="m 23832.1,2570.1 c -24.4,-79.4 -744,-58.3 -744,-58.3 0,0 -645.4,2720.9 -712.4,2914.5 -24.9,72 -82.9,482 -145.7,964.1 -7.4,56.8 -14.9,114.5 -22.2,172.7 -12,92.5 -24,186.6 -35.6,280.3 -2.9,22.8 -5.8,45.6 -8.5,68.2 v 0.2 c -80.8,646.1 -152.3,1257 -152.3,1257 36.6,177.9 1236.7,729.7 1236.7,729.7 0,0 107.7,-3096.3 98.6,-3206.2 -9.1,-109.7 485.4,-3122.2 485.4,-3122.2"
         style="fill:#323657;fill-opacity:1;fill-rule:nonzero;stroke:none"
         id="path266" />
      <path
         d="m 21348,8903.2 c 0,0 -1383.2,-2734.9 -1438.1,-2966.6 -54.9,-231.8 267.4,-3651 267.4,-3651 0,0 325.3,-94 807.7,-69.5 0,0 -64,3152 -5.4,3263.1 227.3,431 1981.6,2252.9 2091.3,2551.7 109.8,298.9 190.5,1001.3 190.5,1001.3 0,0 -793.1,464.2 -1913.4,-129"
         style="fill:#323657;fill-opacity:1;fill-rule:nonzero;stroke:none"
         id="path268" />
      <path
         d="m 18330.9,11705.3 c 0,0 -513.3,81.9 -550.2,57.9 -36.9,-23.9 -37.8,-52.8 9.9,-62.5 47.8,-9.7 494.6,-93.8 494.6,-93.8 0,0 -617.1,-8 -651.8,-20.5 -20.4,-7.3 -25.5,-62.8 -0.2,-70.4 25.2,-7.7 639.4,-36.1 639.4,-36.1 0,0 -576.1,-8.5 -601.6,-28.1 -22.4,-17.2 -14.6,-70.2 28.3,-72.6 43,-2.4 579.9,-25.9 579.9,-25.9 0,0 -417.3,-33.5 -428.6,-63.9 -7,-18.6 -13.5,-66.3 93.7,-54.1 107.2,12.1 364.7,13.1 364.7,13.1 l 21.9,456.9"
         style="fill:#eea886;fill-opacity:1;fill-rule:nonzero;stroke:none"
         id="path270" />
      <path
         d="m 18912,11516.4 c 0,0 -167.9,37.9 -194.9,135.9 -23,83.3 -109.9,177.4 -136.6,206.4 -35.8,38.8 -104.9,197.6 -150,154.3 -45.1,-43.3 102.2,-266.7 124.3,-319.4 22.2,-52.7 -211.8,30.2 -264.1,11.2 -52.3,-19 -139.8,-420.5 26.1,-458.5 165.9,-38 360.8,33.4 389,20.8 28.3,-12.6 120,-32.6 120,-32.6 l 86.2,281.9"
         style="fill:#eea886;fill-opacity:1;fill-rule:nonzero;stroke:none"
         id="path272" />
      <path
         d="m 20210.3,12380.5 c 0,0 -25.7,-922.7 -91,-942.2 -65.3,-19.5 -1323.1,124.5 -1323.1,124.5 0,0 -83.5,-300.9 -18.3,-317.1 90.8,-22.5 1817.3,-569.9 1904.7,-481.5 87.5,88.4 -88.6,737 -88.6,737 0,0 -44.1,959.9 -383.7,879.3"
         style="fill:#c46141;fill-opacity:1;fill-rule:nonzero;stroke:none"
         id="path274" />
      <path
         d="m 19903.6,13338.6 c 0,0 13,-29.4 32.2,-75.2 14.2,-33.7 31.8,-76.3 50.2,-122.6 49.7,-125.4 105,-278 112.7,-353.5 14.3,-141.1 415.6,595.9 415.6,595.9 0,0 -181.9,420.7 -308.1,917.5 -126,496.9 -302.6,-962.1 -302.6,-962.1"
         style="fill:#eea886;fill-opacity:1;fill-rule:nonzero;stroke:none"
         id="path276" />
      <path
         d="m 23386.7,8814.3 c -1652.4,-302.2 -2257.4,-165.6 -2257.4,-165.6 86,528.6 -27.8,934.4 -180.6,1260.7 -44.9,96.2 -93.2,185.3 -140.9,268.7 -38.8,67.7 -76.9,131.6 -112.5,192.3 -16,27.2 -32,53.3 -48.1,78.2 -35.3,54.1 -69.5,105.3 -102.6,154.6 -298.3,442.8 -459.3,752.5 -505.5,1444.8 -25.9,391.6 33.8,774.7 59.7,811.8 368.7,528.8 409.3,537.9 409.3,537.9 461,-146.1 758.4,-219.5 1030.5,-618.8 0,0 1191.5,-1914.7 1848.1,-3964.6"
         style="fill:#e8734d;fill-opacity:1;fill-rule:nonzero;stroke:none"
         id="path278" />
      <path
         d="m 19935.8,13263.4 c 14.2,-33.7 40.9,-99.4 59.3,-145.7 145.1,202.3 191.2,359.9 219.3,429.9 -57.3,-119.2 -278.6,-284.2 -278.6,-284.2"
         style="fill:#a77860;fill-opacity:1;fill-rule:nonzero;stroke:none"
         id="path280" />
      <path
         d="m 20508.2,13397.7 c 0,0 -452.2,-1072.8 -426.2,-1730.3 0,0 -122.9,509.6 3.8,1185.7 0,0 105.9,427.3 422.4,544.6"
         style="fill:#eea886;fill-opacity:1;fill-rule:nonzero;stroke:none"
         id="path282" />
      <path
         d="m 19106.8,14422.3 c 0,0 -80.9,-415.8 -56,-488.1 24.8,-72.3 112,-41.6 93.1,-133.2 -18.9,-91.6 -61.5,-265.7 -0.6,-295.6 60.8,-29.9 159.4,30.2 216.3,-60.1 56.8,-90.2 286.6,-345.2 422.6,-296.3 136,48.9 521,451.3 518.1,558.5 -2.9,107.2 -15.1,706.9 5,830.2 20.1,123.3 -1142.9,271.6 -1170.7,78.1 -27.8,-193.5 -27.8,-193.5 -27.8,-193.5"
         style="fill:#eea886;fill-opacity:1;fill-rule:nonzero;stroke:none"
         id="path284" />
      <path
         d="m 19112.7,14463.5 c 0,0 -171.9,19.4 -171,183 0.9,163.7 57.5,400.6 376.6,409.6 319.1,9.1 605.1,-110.2 814.3,-72 209.2,38.2 377.5,-159.2 330.9,-580.2 -46.7,-421 -112.7,-603.7 -112.7,-603.7 0,0 -164.8,290.6 -235.6,252 -70.9,-38.6 -264.2,122.9 -264.2,122.9 l -1.3,-59.9 -136.7,-38.5 c 0,0 40.8,438.4 -68.3,453.3 -109.2,14.9 -502.7,-103.2 -532,-66.5"
         style="fill:#323657;fill-opacity:1;fill-rule:nonzero;stroke:none"
         id="path286" />
      <path
         d="m 19713,14076.7 c 0,0 25.6,-353.5 -46.5,-383 -72.1,-29.5 -307.8,-159.3 -341.5,-212.7 0,0 -26.7,-41 5.3,-82.3 32,-41.3 174.9,-304.3 119.2,-428.1 0,0 98.2,-77.1 374.9,145.4 276.7,222.6 390,431.6 390,431.6 0,0 -379.3,350.9 -364.7,567.6 l -136.7,-38.5"
         style="fill:#323657;fill-opacity:1;fill-rule:nonzero;stroke:none"
         id="path288" />
      <path
         d="m 19831.8,14230.1 c 0,0 30.4,206.5 240.3,145 152.6,-44.8 95,-395.4 -33,-434.2 -127.9,-38.7 -221.6,112.6 -207.3,289.2"
         style="fill:#eea886;fill-opacity:1;fill-rule:nonzero;stroke:none"
         id="path290" />
      <path
         d="m 18736.9,8564.4 c 0,0 -114.6,-50.6 -168,-47.9 -53.4,2.7 -381.8,35.3 -424.6,-21.1 -42.7,-56.4 -357.7,-374.6 -315,-422.7 42.7,-48.1 74.7,-24.1 96.1,0 21.4,24.1 264.3,228.7 293.7,232 0,0 -216.3,-242.7 -178.9,-314.9 37.4,-72.2 104.1,-58.8 144.2,-72.2 40,-13.3 106.8,-64.1 178.9,-32.1 72.1,32.1 347.1,331.6 413.8,374.3 66.8,42.8 381.8,206.6 384.4,222.7 2.7,16 -424.6,81.9 -424.6,81.9"
         style="fill:#eea886;fill-opacity:1;fill-rule:nonzero;stroke:none"
         id="path292" />
      <path
         d="m 20514.3,13383.2 c 0,0 -24.7,122.1 -61.8,153.2 l -334,-435.5 112.3,-242.1 -252.7,-691.5 c 0,0 80.2,-657.6 184.5,-836.3 104.3,-178.7 544.4,2003.8 544.4,2003.8 l -192.7,48.4"
         style="fill:#e8734d;fill-opacity:1;fill-rule:nonzero;stroke:none"
         id="path294" />
      <path
         d="m 21356.8,11667.4 c -10.6,-69 -130.1,-1130.3 -408.1,-1758 -44.9,96.2 -93.2,185.3 -140.9,268.7 0,0 403.7,717.4 549,1489.3"
         style="fill:#964b32;fill-opacity:1;fill-rule:nonzero;stroke:none"
         id="path296" />
      <path
         d="m 22974.9,7875.1 c 0,0 -462.8,-1014.5 -767.1,-1312 -12,92.5 -24,186.6 -35.6,280.3 -2.9,22.8 -5.8,45.6 -8.5,68.2 v 0.2 c 0,0 667.2,775.5 811.2,963.3"
         style="fill:#1f2136;fill-opacity:1;fill-rule:nonzero;stroke:none"
         id="path298" />
      <path
         d="m 21301.9,8524.4 c 0,0 12,-252.2 509.4,-304.6 0,0 -553.6,-132.7 -509.4,304.6"
         style="fill:#464c7a;fill-opacity:1;fill-rule:nonzero;stroke:none"
         id="path300" />
      <path
         d="m 20155.9,11794.2 c 0,-34 -15.5,-61.5 -34.7,-61.5 -19.3,0 -34.8,27.5 -34.8,61.5 0,34 15.5,61.5 34.8,61.5 19.2,0 34.7,-27.5 34.7,-61.5"
         style="fill:#ffece6;fill-opacity:1;fill-rule:nonzero;stroke:none"
         id="path302" />
      <path
         d="m 20256.7,11545.2 c 7.5,-33.1 -1.5,-63.4 -20.2,-67.7 -18.7,-4.3 -40,19.1 -47.6,52.2 -7.6,33.1 1.4,63.4 20.2,67.7 18.7,4.3 40,-19.1 47.6,-52.2"
         style="fill:#ffece6;fill-opacity:1;fill-rule:nonzero;stroke:none"
         id="path304" />
      <path
         d="m 20355.7,11268.1 c 7.6,-33.2 -1.4,-63.5 -20.2,-67.8 -18.7,-4.3 -40,19.1 -47.6,52.3 -7.5,33.1 1.5,63.4 20.2,67.7 18.7,4.3 40,-19.1 47.6,-52.2"
         style="fill:#ffece6;fill-opacity:1;fill-rule:nonzero;stroke:none"
         id="path306" />
      <path
         d="m 20599.9,12513.5 c 0,0 151,516.9 696.4,285.7 300.2,-127.2 305.7,-507.8 -171.8,-1820.3 0,0 -332.1,-894.9 -414.5,-994.1 -299.4,-360.3 -1562.1,-1595.5 -1673.3,-1649 l -358.3,228.6 c 0,0 633.6,718.6 862,1017.8 229.7,300.9 625.6,946.6 625.6,946.6 l 433.9,1984.7"
         style="fill:#e8734d;fill-opacity:1;fill-rule:nonzero;stroke:none"
         id="path308" />
      <path
         d="M 9781.41,14593.3 H 5536.52 l 1938.7,668.8 c -10.98,22.2 -17.41,47.2 -17.41,73.8 v 636.1 h 155.03 v 841.8 l 92.24,92.3 V 15972 h 155.03 v -636.1 c 0,-26.6 -6.43,-51.6 -17.41,-73.8 l 1097.44,-378.6 841.27,-290.2"
         style="fill:#96aae6;fill-opacity:1;fill-rule:nonzero;stroke:none"
         id="path310" />
      <path
         d="m 23378.4,13247.8 h -1618.2 v 2825 h 1618.2 v -2825"
         style="fill:#f7f7f7;fill-opacity:1;fill-rule:nonzero;stroke:none"
         id="path312" />
      <path
         d="m 23161.8,13536.4 h -1185 v 2299.8 h 1185 v -2299.8"
         style="fill:#b9cbfd;fill-opacity:1;fill-rule:nonzero;stroke:none"
         id="path314" />
      <path
         d="M 8054.77,15560.8 5932.3,14828.6 h 4244.9 z"
         style="fill:#4d78eb;fill-opacity:1;fill-rule:nonzero;stroke:none"
         id="path316" />
      <path
         d="m 8089.71,15405 h -69.88 c -91.8,0 -166.22,74.4 -166.22,166.2 v 636.2 h 402.32 v -636.2 c 0,-91.8 -74.43,-166.2 -166.22,-166.2"
         style="fill:#4063c2;fill-opacity:1;fill-rule:nonzero;stroke:none"
         id="path318" />
      <path
         d="m 8100.73,17202.3 v -1396.1 h -92.02 v 1403.6 l 20.52,20.5 c 24.25,-9.1 48.08,-18.5 71.5,-28"
         style="fill:#4063c2;fill-opacity:1;fill-rule:nonzero;stroke:none"
         id="path320" />
      <path
         d="m 20508.1,13397.7 -277.3,-538.9 -112.3,242.1 334,435.5 c 0,0 48.1,-23.7 55.6,-138.7"
         style="fill:#c46141;fill-opacity:1;fill-rule:nonzero;stroke:none"
         id="path322" />
      <path
         d="m 18330.9,12637.1 h -198.1 v 176.6 h 198.1 v -176.6"
         style="fill:#ffffff;fill-opacity:1;fill-rule:nonzero;stroke:none"
         id="path324" />
      <path
         d="m 18330.9,12313.5 h -198.1 v 176.5 h 198.1 v -176.5"
         style="fill:#ffffff;fill-opacity:1;fill-rule:nonzero;stroke:none"
         id="path326" />
      <path
         d="m 18665.2,12637.1 h -198.1 v 176.6 h 198.1 v -176.6"
         style="fill:#ffffff;fill-opacity:1;fill-rule:nonzero;stroke:none"
         id="path328" />
      <path
         d="m 16492.1,13267.4 h -92.3 v 384.4 h 92.3 v -384.4"
         style="fill:#ffffff;fill-opacity:1;fill-rule:nonzero;stroke:none"
         id="path330" />
      <path
         d="m 12029.5,11246.4 h -186.7 v 186.7 h 186.7 v -186.7"
         style="fill:#ffffff;fill-opacity:1;fill-rule:nonzero;stroke:none"
         id="path332" />
      <path
         d="m 12392,11246.4 h -186.7 v 186.7 h 186.7 v -186.7"
         style="fill:#ffffff;fill-opacity:1;fill-rule:nonzero;stroke:none"
         id="path334" />
      <path
         d="m 18915.9,8179.6 c -10,0 -21.4,1.9 -34,5.9 -132.4,41.4 -210.3,339.6 -213.6,352.4 l 20.2,7.1 c 0.7,-3 78.2,-301.8 199.5,-339.7 24.5,-7.7 41.4,-6.6 50.4,3.2 21.3,23.1 2.9,94.5 -13.5,135 l 19.2,10.5 c 4.8,-11.9 46.6,-119.3 9.6,-159.5 -9.2,-10 -21.8,-14.9 -37.8,-14.9"
         style="fill:#565e96;fill-opacity:1;fill-rule:nonzero;stroke:none"
         id="path336" />
    </g>
  </g>
</svg>
