<?xml version="1.0" encoding="UTF-8" standalone="no"?>
<!-- Created with Inkscape (http://www.inkscape.org/) -->

<svg
   version="1.1"
   id="svg2"
   width="666.66669"
   height="666.66669"
   viewBox="0 0 666.66669 666.66669"
   sodipodi:docname="5568511_2902189.ai"
   xmlns:inkscape="http://www.inkscape.org/namespaces/inkscape"
   xmlns:sodipodi="http://sodipodi.sourceforge.net/DTD/sodipodi-0.dtd"
   xmlns="http://www.w3.org/2000/svg"
   xmlns:svg="http://www.w3.org/2000/svg">
  <defs
     id="defs6">
    <clipPath
       clipPathUnits="userSpaceOnUse"
       id="clipPath16">
      <path
         d="M 0,500 H 500 V 0 H 0 Z"
         id="path14" />
    </clipPath>
  </defs>
  <sodipodi:namedview
     id="namedview4"
     pagecolor="#ffffff"
     bordercolor="#000000"
     borderopacity="0.25"
     inkscape:showpageshadow="2"
     inkscape:pageopacity="0.0"
     inkscape:pagecheckerboard="0"
     inkscape:deskcolor="#d1d1d1" />
  <g
     id="g8"
     inkscape:groupmode="layer"
     inkscape:label="5568511_2902189"
     transform="matrix(1.3333333,0,0,-1.3333333,0,666.66667)">
    <g
       id="g10">
      <g
         id="g12"
         clip-path="url(#clipPath16)">
        <g
           id="g18"
           transform="translate(442.2373,175.2773)">
          <path
             d="m 0,0 c -7.326,16.065 -20.071,30.107 -27.353,47.855 -3.482,8.488 -5.028,17.61 -3.719,26.765 1.454,10.17 6.504,19.025 11.851,27.551 20.818,33.187 32.607,86.874 -7.39,110.612 -13.406,7.955 -29.997,13.016 -45.387,15.245 -10.204,1.478 -20.818,0.924 -30.71,4.163 -29.449,9.644 -78.84,56.448 -108.483,21.877 -21.339,-24.886 -15.699,-74.427 -54.579,-81.229 -11.328,-1.982 -22.934,-2.084 -34.321,-3.732 -12.776,-1.85 -25.443,-4.726 -37.495,-9.487 -23.648,-9.343 -47.069,-28.769 -52.676,-55.206 -5.031,-23.725 10.568,-44.632 20.173,-64.758 4.326,-9.062 7.821,-18.574 8.758,-28.675 1.11,-11.963 -1.684,-23.949 -0.682,-35.938 1.094,-13.085 -2.135,-17.553 -2.135,-28.246 0,-9.126 5.183,-18.211 5.183,-18.211 H -6.927 C 15.393,-45.082 4.832,-10.599 0,0"
             style="fill:#e1faf5;fill-opacity:1;fill-rule:nonzero;stroke:none"
             id="path20" />
        </g>
        <g
           id="g22"
           transform="translate(238.9746,123.4863)">
          <path
             d="m 0,0 c 16.866,19.162 38.188,35.724 40.983,62.661 0.824,7.931 3.309,21.006 -2.227,27.902 -6.322,7.875 -19.017,1.301 -25.864,-2.28 -4.198,-2.195 -7.171,-5.82 -9.323,-9.694 7.955,55.68 8.971,92.586 -10.84,112.382 -23.556,23.537 -37.507,-12.642 -44.992,-40.387 -1.956,50.877 -78.541,106.256 -100.119,89.009 -20.418,-16.321 22.54,-50.559 43.371,-120.199 -66.717,64.88 -115.473,25.662 -42.965,-27.643 12.896,-13.152 28.842,-21.282 56.331,-61.884 -33.185,25.903 -80.083,-1.322 -28.947,-25.857 7.402,-3.552 39.117,-20.454 40.529,-25.829 3.327,-12.66 13.618,-18.421 26.064,-19.198 8.6,-0.536 17.473,-0.636 26.02,0.648 12.862,1.931 15.074,16.71 20.919,25.938 C -7.842,-9.351 -4.05,-4.601 0,0"
             style="fill:#8afce4;fill-opacity:1;fill-rule:nonzero;stroke:none"
             id="path24" />
        </g>
        <g
           id="g26"
           transform="translate(104.1133,349.71)">
          <path
             d="m 0,0 c 2.657,-1.651 4.829,-3.49 7.049,-5.42 2.108,-2.002 4.283,-3.947 6.183,-6.132 l 2.946,-3.195 c 0.983,-1.064 1.834,-2.233 2.757,-3.344 l 2.718,-3.377 1.359,-1.688 1.248,-1.766 4.979,-7.076 c 0.863,-1.159 1.579,-2.409 2.341,-3.631 l 2.263,-3.679 2.264,-3.68 c 0.742,-1.233 1.546,-2.432 2.193,-3.718 l 4.085,-7.602 2.041,-3.801 c 0.689,-1.264 1.372,-2.53 1.953,-3.845 l 3.654,-7.81 3.655,-7.81 3.257,-7.977 3.241,-7.984 1.621,-3.992 c 0.553,-1.326 0.971,-2.701 1.463,-4.049 l 5.695,-16.254 1.424,-4.065 1.239,-4.121 2.474,-8.244 2.475,-8.245 1.236,-4.122 0.619,-2.061 0.538,-2.083 4.244,-16.677 2.122,-8.339 c 0.342,-1.393 0.732,-2.775 1.036,-4.175 l 0.895,-4.207 3.582,-16.826 1.791,-8.413 0.893,-4.208 0.74,-4.236 5.92,-33.884 c 0.196,-1.118 -0.552,-2.182 -1.669,-2.377 -1.117,-0.196 -2.181,0.552 -2.377,1.67 l -0.001,0.008 -0.012,0.071 -5.747,33.786 -0.719,4.224 -0.87,4.192 -1.745,8.386 -3.491,16.772 -0.874,4.193 c -0.295,1.397 -0.677,2.773 -1.012,4.16 l -2.074,8.307 -4.149,16.616 -0.525,2.076 -0.606,2.052 -1.212,4.105 -2.424,8.209 -2.423,8.21 -1.213,4.104 -1.397,4.043 -5.586,16.175 c -0.482,1.341 -0.891,2.711 -1.435,4.028 l -1.59,3.969 -3.181,7.937 -3.196,7.931 -3.587,7.755 -3.586,7.756 c -0.571,1.307 -1.241,2.562 -1.916,3.815 l -2.003,3.769 -4.006,7.54 c -0.634,1.276 -1.422,2.46 -2.15,3.681 l -2.218,3.641 -2.218,3.642 c -0.746,1.21 -1.448,2.45 -2.292,3.592 l -4.869,6.986 -1.22,1.744 -1.325,1.661 -2.65,3.322 c -0.899,1.092 -1.731,2.249 -2.686,3.289 l -2.859,3.129 c -1.849,2.149 -3.941,4.028 -5.971,5.978 -2.078,1.838 -4.306,3.692 -6.504,5.079 l -0.126,0.08 c -0.67,0.423 -0.871,1.308 -0.448,1.977 C -1.548,0.214 -0.668,0.415 0,0"
             style="fill:#62c3c3;fill-opacity:1;fill-rule:nonzero;stroke:none"
             id="path28" />
        </g>
        <g
           id="g30"
           transform="translate(218.2842,267.5269)">
          <path
             d="M 0,0 C 0,0 -24.603,-34.669 -31.097,-91.944"
             style="fill:none;stroke:#62c3c3;stroke-width:2.871;stroke-linecap:round;stroke-linejoin:round;stroke-miterlimit:10;stroke-dasharray:none;stroke-opacity:1"
             id="path32" />
        </g>
        <g
           id="g34"
           transform="translate(76.0215,257.2769)">
          <path
             d="M 0,0 C 0,0 63.807,-21.156 116.711,-106.591"
             style="fill:none;stroke:#62c3c3;stroke-width:2.871;stroke-linecap:round;stroke-linejoin:round;stroke-miterlimit:10;stroke-dasharray:none;stroke-opacity:1"
             id="path36" />
        </g>
        <g
           id="g38"
           transform="translate(115.9316,142.96)">
          <path
             d="M 0,0 C 0,0 39.593,-0.576 83.091,-33.985"
             style="fill:none;stroke:#62c3c3;stroke-width:2.871;stroke-linecap:round;stroke-linejoin:round;stroke-miterlimit:10;stroke-dasharray:none;stroke-opacity:1"
             id="path40" />
        </g>
        <g
           id="g42"
           transform="translate(258.5537,193.2051)">
          <path
             d="M 0,0 C 0,0 -33.389,-26.323 -56.277,-90.445"
             style="fill:none;stroke:#62c3c3;stroke-width:2.871;stroke-linecap:round;stroke-linejoin:round;stroke-miterlimit:10;stroke-dasharray:none;stroke-opacity:1"
             id="path44" />
        </g>
        <g
           id="g46"
           transform="translate(87.7329,97.7539)">
          <path
             d="m 0,0 c 10.38,-13.854 23.625,-22.713 41.322,-23.687 18.109,-0.999 36.055,2.407 54.059,-0.477 15.075,-2.415 26.632,-11.931 42.009,-12.066 14.871,-0.132 30.425,10.758 42.299,18.993 10.448,7.245 42.539,14.077 72.437,5.413 10.296,-2.985 34.714,-8.912 49.597,-8.912 29.003,0 45.855,26.845 45.855,26.845 H -4.461 C -2.987,4.064 -1.511,2.018 0,0"
             style="fill:#62c3c3;fill-opacity:1;fill-rule:nonzero;stroke:none"
             id="path48" />
        </g>
        <g
           id="g50"
           transform="translate(129.9102,179.9365)">
          <path
             d="m 0,0 c 10.041,-14.915 6.09,-35.146 -8.826,-45.187 -14.915,-10.041 -35.146,-6.089 -45.187,8.827 -10.041,14.915 -6.089,35.145 8.826,45.186 C -30.271,18.867 -10.041,14.916 0,0"
             style="fill:#ffac00;fill-opacity:1;fill-rule:nonzero;stroke:none"
             id="path52" />
        </g>
        <g
           id="g54"
           transform="translate(129.1172,179.4033)">
          <path
             d="m 0,0 c 9.746,-14.478 5.911,-34.114 -8.567,-43.86 -14.477,-9.746 -34.114,-5.911 -43.86,8.566 -9.746,14.478 -5.91,34.114 8.567,43.86 C -29.383,18.312 -9.746,14.477 0,0"
             style="fill:#ffcb1e;fill-opacity:1;fill-rule:nonzero;stroke:none"
             id="path56" />
        </g>
        <g
           id="g58"
           transform="translate(123.4868,175.6123)">
          <path
             d="m 0,0 c 7.653,-11.367 4.641,-26.786 -6.727,-34.439 -11.367,-7.653 -26.786,-4.641 -34.439,6.727 -7.653,11.367 -4.641,26.786 6.727,34.44 C -23.072,14.38 -7.653,11.368 0,0"
             style="fill:#ffac00;fill-opacity:1;fill-rule:nonzero;stroke:none"
             id="path60" />
        </g>
        <g
           id="g62"
           transform="translate(115.0762,150.2275)">
          <path
             d="m 0,0 2.699,-4.01 -4.154,-2.796 -2.577,3.828 c -3.092,-1.765 -6.606,-2.713 -9.273,-2.567 l -1.944,7.72 c 2.894,-0.1 6.093,0.742 8.362,2.269 1.973,1.328 2.34,2.31 1.757,3.177 -2.141,3.179 -11.814,-7.06 -18.161,2.367 -2.748,4.082 -2.642,9.14 1.63,13.223 l -2.651,3.936 4.154,2.797 2.602,-3.865 c 2.35,1.215 4.932,1.956 7.39,1.931 L -8.1,20.425 c -2.883,-0.104 -5.212,-0.779 -7.008,-1.988 -2.033,-1.369 -2.195,-2.528 -1.611,-3.395 2.043,-3.034 11.74,7.169 18.014,-2.15 C 3.921,8.991 3.91,4.049 0,0"
             style="fill:#da9a00;fill-opacity:1;fill-rule:nonzero;stroke:none"
             id="path64" />
        </g>
        <g
           id="g66"
           transform="translate(114.0635,150.4248)">
          <path
             d="m 0,0 2.699,-4.009 -4.153,-2.797 -2.578,3.829 c -3.092,-1.766 -6.606,-2.714 -9.273,-2.568 l -1.943,7.721 c 2.893,-0.101 6.093,0.742 8.361,2.268 1.973,1.329 2.34,2.311 1.757,3.178 -2.14,3.178 -11.814,-7.06 -18.161,2.367 -2.747,4.081 -2.642,9.139 1.63,13.222 l -2.651,3.937 4.154,2.796 2.602,-3.865 c 2.35,1.215 4.933,1.956 7.39,1.931 l 2.067,-7.584 c -2.884,-0.105 -5.212,-0.78 -7.009,-1.989 -2.033,-1.369 -2.194,-2.527 -1.611,-3.394 2.043,-3.034 11.74,7.169 18.014,-2.15 C 3.921,8.991 3.91,4.049 0,0"
             style="fill:#ffcb1e;fill-opacity:1;fill-rule:nonzero;stroke:none"
             id="path68" />
        </g>
        <g
           id="g70"
           transform="translate(165.5659,323.2329)">
          <path
             d="m 0,0 c 5.389,-17.154 -4.148,-35.428 -21.302,-40.817 -17.153,-5.389 -35.427,4.148 -40.817,21.302 -5.388,17.154 4.149,35.428 21.302,40.817 C -23.663,26.691 -5.389,17.153 0,0"
             style="fill:#ffac00;fill-opacity:1;fill-rule:nonzero;stroke:none"
             id="path72" />
        </g>
        <g
           id="g74"
           transform="translate(164.6538,322.9463)">
          <path
             d="m 0,0 c 5.23,-16.65 -4.026,-34.387 -20.676,-39.618 -16.65,-5.231 -34.387,4.026 -39.618,20.676 -5.231,16.65 4.026,34.387 20.676,39.618 C -22.968,25.907 -5.23,16.65 0,0"
             style="fill:#ffcb1e;fill-opacity:1;fill-rule:nonzero;stroke:none"
             id="path76" />
        </g>
        <g
           id="g78"
           transform="translate(158.1787,320.9121)">
          <path
             d="m 0,0 c 4.107,-13.074 -3.162,-27.001 -16.235,-31.108 -13.074,-4.108 -27.002,3.161 -31.109,16.234 -4.107,13.074 3.162,27.002 16.236,31.109 C -18.035,20.342 -4.107,13.074 0,0"
             style="fill:#ffac00;fill-opacity:1;fill-rule:nonzero;stroke:none"
             id="path80" />
        </g>
        <g
           id="g82"
           transform="translate(142.9014,298.9629)">
          <path
             d="m 0,0 1.449,-4.611 -4.777,-1.501 -1.383,4.404 c -3.467,-0.816 -7.105,-0.726 -9.621,0.172 l 0.33,7.954 c 2.745,-0.918 6.053,-1.02 8.662,-0.2 2.269,0.713 2.9,1.55 2.587,2.547 -1.149,3.655 -13.333,-3.412 -16.74,7.43 -1.474,4.694 0.064,9.513 5.32,12.214 l -1.423,4.528 4.777,1.501 1.397,-4.445 c 2.598,0.496 5.285,0.474 7.634,-0.249 l -0.174,-7.859 c -2.794,0.719 -5.218,0.734 -7.285,0.084 -2.337,-0.734 -2.822,-1.799 -2.508,-2.796 1.096,-3.489 13.293,3.537 16.66,-7.18 C 6.314,7.506 4.899,2.771 0,0"
             style="fill:#da9a00;fill-opacity:1;fill-rule:nonzero;stroke:none"
             id="path84" />
        </g>
        <g
           id="g86"
           transform="translate(141.9868,299.4399)">
          <path
             d="m 0,0 1.449,-4.611 -4.777,-1.501 -1.383,4.404 c -3.467,-0.815 -7.105,-0.726 -9.621,0.172 l 0.33,7.954 c 2.745,-0.918 6.053,-1.019 8.662,-0.2 2.269,0.713 2.9,1.55 2.587,2.547 -1.149,3.656 -13.333,-3.412 -16.74,7.43 -1.474,4.694 0.064,9.513 5.32,12.214 l -1.423,4.529 4.777,1.5 1.397,-4.445 c 2.598,0.497 5.285,0.474 7.634,-0.249 l -0.174,-7.859 c -2.794,0.719 -5.218,0.734 -7.285,0.085 -2.337,-0.735 -2.822,-1.8 -2.508,-2.797 1.096,-3.489 13.293,3.538 16.66,-7.18 C 6.314,7.506 4.899,2.771 0,0"
             style="fill:#ffcb1e;fill-opacity:1;fill-rule:nonzero;stroke:none"
             id="path88" />
        </g>
        <g
           id="g90"
           transform="translate(301.4854,370.4414)">
          <path
             d="m 0,0 c -3.187,-13.336 -16.58,-21.564 -29.916,-18.378 -13.336,3.187 -21.564,16.581 -18.378,29.917 3.187,13.336 16.58,21.563 29.916,18.377 C -5.042,26.729 3.187,13.336 0,0"
             style="fill:#ffac00;fill-opacity:1;fill-rule:nonzero;stroke:none"
             id="path92" />
        </g>
        <g
           id="g94"
           transform="translate(300.7764,370.6108)">
          <path
             d="m 0,0 c -3.093,-12.944 -16.094,-20.931 -29.038,-17.838 -12.944,3.093 -20.93,16.093 -17.838,29.037 3.093,12.945 16.094,20.931 29.038,17.838 C -4.894,25.944 3.092,12.944 0,0"
             style="fill:#ffcb1e;fill-opacity:1;fill-rule:nonzero;stroke:none"
             id="path96" />
        </g>
        <g
           id="g98"
           transform="translate(295.7422,371.8135)">
          <path
             d="m 0,0 c -2.429,-10.164 -12.637,-16.435 -22.801,-14.006 -10.164,2.428 -16.434,12.636 -14.007,22.8 2.429,10.164 12.637,16.435 22.801,14.006 C -3.843,20.372 2.428,10.164 0,0"
             style="fill:#ffac00;fill-opacity:1;fill-rule:nonzero;stroke:none"
             id="path100" />
        </g>
        <g
           id="g102"
           transform="translate(277.1533,363.4268)">
          <path
             d="m 0,0 -0.856,-3.585 -3.714,0.887 0.817,3.424 C -6.34,1.549 -8.687,3.031 -9.981,4.604 l 3.329,5.077 C -5.215,8.005 -3.09,6.645 -1.062,6.16 0.702,5.738 1.442,6.039 1.628,6.814 2.307,9.656 -8.434,9.799 -6.42,18.228 c 0.872,3.649 3.765,6.202 8.262,5.913 l 0.841,3.52 3.713,-0.888 -0.826,-3.455 c 1.896,-0.692 3.646,-1.758 4.9,-3.151 L 7.28,15.091 C 5.733,16.656 4.152,17.614 2.546,17.998 0.729,18.432 -0.006,17.924 -0.19,17.149 -0.839,14.437 9.895,14.262 7.903,5.93 7.07,2.441 4.29,-0.104 0,0"
             style="fill:#da9a00;fill-opacity:1;fill-rule:nonzero;stroke:none"
             id="path104" />
        </g>
        <g
           id="g106"
           transform="translate(276.7412,364.0972)">
          <path
             d="m 0,0 -0.856,-3.585 -3.714,0.887 0.818,3.424 C -6.34,1.549 -8.687,3.031 -9.981,4.604 l 3.329,5.077 C -5.215,8.005 -3.09,6.645 -1.062,6.16 0.703,5.738 1.443,6.039 1.628,6.814 2.308,9.656 -8.434,9.799 -6.42,18.228 c 0.872,3.649 3.765,6.202 8.262,5.913 l 0.842,3.52 3.712,-0.888 -0.825,-3.456 c 1.895,-0.691 3.645,-1.757 4.9,-3.15 L 7.281,15.091 C 5.733,16.656 4.152,17.614 2.546,17.998 0.729,18.432 -0.005,17.924 -0.19,17.149 -0.839,14.437 9.895,14.262 7.903,5.93 7.07,2.441 4.291,-0.104 0,0"
             style="fill:#ffcb1e;fill-opacity:1;fill-rule:nonzero;stroke:none"
             id="path108" />
        </g>
        <g
           id="g110"
           transform="translate(401.5479,372.8154)">
          <path
             d="m 0,0 c 0,0 -3.817,-20.996 15.325,-28.202 19.142,-7.206 13.718,-21.992 2.552,-32.508 -15.942,-15.016 -30.071,1.496 -52.044,0 -21.972,-1.497 -15.939,23.911 -3.055,38.406 12.884,14.495 0,31.839 0,31.839 z"
             style="fill:#283043;fill-opacity:1;fill-rule:nonzero;stroke:none"
             id="path112" />
        </g>
        <g
           id="g114"
           transform="translate(380.8389,238.5146)">
          <path
             d="m 0,0 c 1.74,-13.426 -8.933,-58.842 -12.662,-73.842 3.996,-13.137 4.168,-21.356 3.996,-30.333 0,0 -2.8,-20.469 -2.794,-23.981 l -12.299,-1.377 c -0.293,3.483 -5.131,48.384 -8.586,64.89 -3.144,15.023 2.839,51.705 8.143,77.86 C -11.971,15.433 -1.222,9.427 0,0"
             style="fill:#3e68c8;fill-opacity:1;fill-rule:nonzero;stroke:none"
             id="path116" />
        </g>
        <g
           id="g118"
           transform="translate(362.0312,110.5996)">
          <path
             d="m 0,0 -8.072,-2.638 c -4.333,-0.973 -7.62,-1.954 -10.012,-2.746 -1.546,-0.511 -2.533,-1.808 -1.736,-2.991 0.294,-0.437 0.736,-0.723 1.31,-0.809 L 5.794,-9.15 c 1.018,-10e-4 1.845,0.677 1.846,1.515 l 0.005,1.312 0.006,-0.002 V 0 Z"
             style="fill:#07161e;fill-opacity:1;fill-rule:nonzero;stroke:none"
             id="path120" />
        </g>
        <g
           id="g122"
           transform="translate(399.8975,256.9136)">
          <path
             d="m 0,0 c 3.427,-4.695 1.869,-16.971 -1.835,-27.5 -4.493,-12.77 5.687,-37.805 -3.289,-61.733 8.349,-9.571 8.52,-21.332 8.349,-30.309 0,0 -0.371,-24.132 -0.366,-27.646 l -11.158,-1.457 c -0.293,3.483 -10.252,46.219 -14.383,62.569 -6.932,27.449 -12.889,57.025 -15.784,81.349 C -26.234,-2.512 -12.29,-1.89 0,0"
             style="fill:#5085fe;fill-opacity:1;fill-rule:nonzero;stroke:none"
             id="path124" />
        </g>
        <g
           id="g126"
           transform="translate(395.0811,110.5996)">
          <path
             d="m 0,0 -7.684,-2.638 c -4.333,-0.973 -7.62,-1.954 -10.011,-2.746 -1.546,-0.511 -2.534,-1.808 -1.737,-2.991 0.294,-0.437 0.737,-0.723 1.311,-0.809 L 6.183,-9.15 c 1.018,-10e-4 1.844,0.677 1.845,1.515 l 0.005,1.312 0.008,-0.002 V 0 Z"
             style="fill:#07161e;fill-opacity:1;fill-rule:nonzero;stroke:none"
             id="path128" />
        </g>
        <g
           id="g130"
           transform="translate(361.2295,313.9453)">
          <path
             d="m 0,0 -33.096,-22.504 -0.45,-0.306 c -2.754,-1.873 -6.474,-1.257 -8.51,1.311 l -24.919,31.584 -0.007,0.01 c -1.999,2.533 -1.566,6.208 0.967,8.206 2.488,1.963 6.079,1.574 8.101,-0.837 l 25.838,-30.876 -8.96,1.005 29.676,26.855 c 3.772,3.414 9.597,3.123 13.01,-0.649 C 5.064,10.026 4.773,4.201 1.002,0.788 0.695,0.51 0.331,0.229 0,0"
             style="fill:#f7a7a3;fill-opacity:1;fill-rule:nonzero;stroke:none"
             id="path132" />
        </g>
        <g
           id="g134"
           transform="translate(351.1572,332.1328)">
          <path
             d="M 0,0 -20.323,-19.622 -9.79,-33.305 18.215,-10.063 18.838,5.852 13.776,7.315 C 8.246,7.362 2.558,2.348 0,0"
             style="fill:#6151de;fill-opacity:1;fill-rule:nonzero;stroke:none"
             id="path136" />
        </g>
        <g
           id="g138"
           transform="translate(334.7236,316.2661)">
          <path
             d="m 0,0 -3.89,-3.755 10.534,-13.683 4.476,3.715 C 7.571,-9.026 3.839,-4.471 0,0"
             style="fill:#ffffff;fill-opacity:1;fill-rule:nonzero;stroke:none"
             id="path140" />
        </g>
        <g
           id="g142"
           transform="translate(291.7803,334.7949)">
          <path
             d="m 0,0 c 0.059,-0.2 0.066,-0.192 0.077,-0.216 0.016,-0.031 0.027,-0.049 0.027,-0.041 0,0 0.026,-0.015 0.016,0.012 C 0.116,-0.209 0.113,-0.167 0.085,-0.099 0.052,0.017 -0.027,0.177 -0.108,0.332 -0.271,0.649 -0.505,0.998 -0.757,1.344 -1.27,2.04 -1.886,2.741 -2.551,3.421 -3.887,4.785 -5.415,6.069 -7,7.3 l -0.021,0.016 c -0.791,0.614 -0.933,1.752 -0.32,2.542 0.53,0.683 1.453,0.882 2.204,0.528 C -3.217,9.48 -1.31,8.5 0.559,7.293 1.492,6.687 2.416,6.025 3.328,5.242 3.783,4.845 4.235,4.427 4.684,3.92 4.909,3.665 5.13,3.406 5.357,3.08 5.468,2.931 5.585,2.747 5.699,2.554 5.753,2.471 5.821,2.331 5.88,2.219 5.906,2.168 5.942,2.091 5.979,2 6.013,1.917 6.044,1.864 6.12,1.602 6.562,-0.088 5.552,-1.816 3.861,-2.259 2.171,-2.702 0.442,-1.69 0,0"
             style="fill:#f7a7a3;fill-opacity:1;fill-rule:nonzero;stroke:none"
             id="path144" />
        </g>
        <g
           id="g146"
           transform="translate(296.1953,335.3613)">
          <path
             d="M 0,0 C 0.057,-0.27 0.059,-0.231 0.075,-0.282 0.096,-0.333 0.1,-0.335 0.104,-0.34 0.116,-0.354 0.133,-0.369 0.127,-0.345 0.136,-0.325 0.125,-0.274 0.105,-0.21 0.069,-0.09 0.013,0.066 -0.074,0.233 -0.228,0.564 -0.46,0.935 -0.7,1.302 -1.197,2.043 -1.806,2.792 -2.444,3.529 -3.746,4.999 -5.216,6.413 -6.742,7.782 L -6.758,7.796 C -7.503,8.464 -7.565,9.61 -6.897,10.355 -6.318,11 -5.38,11.132 -4.655,10.722 -2.785,9.663 -0.933,8.535 0.879,7.219 1.781,6.547 2.678,5.843 3.557,5.012 3.995,4.587 4.432,4.153 4.863,3.618 5.079,3.361 5.294,3.07 5.512,2.734 5.619,2.569 5.729,2.39 5.84,2.169 5.893,2.076 5.954,1.938 6.012,1.802 6.04,1.736 6.067,1.673 6.105,1.56 6.14,1.445 6.163,1.423 6.232,1.088 6.533,-0.632 5.382,-2.271 3.66,-2.572 1.939,-2.873 0.301,-1.721 0,0"
             style="fill:#f7a7a3;fill-opacity:1;fill-rule:nonzero;stroke:none"
             id="path148" />
        </g>
        <g
           id="g150"
           transform="translate(291.3555,329.918)">
          <path
             d="m 0,0 c 0.045,-0.051 -0.029,0.101 -0.065,0.176 -0.039,0.09 -0.104,0.198 -0.155,0.297 -0.118,0.206 -0.239,0.418 -0.382,0.631 -0.27,0.428 -0.586,0.855 -0.914,1.279 -0.662,0.846 -1.417,1.66 -2.217,2.446 -0.803,0.786 -1.672,1.525 -2.572,2.239 -0.903,0.713 -1.854,1.378 -2.827,2.027 l -0.041,0.027 c -0.83,0.554 -1.055,1.676 -0.501,2.507 0.489,0.735 1.425,0.995 2.209,0.663 1.164,-0.493 2.325,-1.017 3.463,-1.61 C -2.866,10.085 -1.74,9.445 -0.648,8.719 0.442,7.993 1.513,7.207 2.537,6.314 3.048,5.863 3.553,5.398 4.042,4.882 4.288,4.631 4.529,4.358 4.771,4.077 4.894,3.927 5.011,3.793 5.136,3.627 5.268,3.451 5.357,3.348 5.552,3.034 6.39,1.5 5.826,-0.421 4.293,-1.259 2.76,-2.097 0.838,-1.533 0,0"
             style="fill:#f7a7a3;fill-opacity:1;fill-rule:nonzero;stroke:none"
             id="path152" />
        </g>
        <g
           id="g154"
           transform="translate(291.2715,325.7183)">
          <path
             d="M 0,0 C -0.72,0.887 -1.594,1.86 -2.437,2.771 -3.293,3.692 -4.168,4.604 -5.067,5.495 -6.863,7.28 -8.734,9 -10.673,10.65 l -0.01,0.008 c -0.76,0.648 -0.853,1.789 -0.206,2.55 0.578,0.679 1.549,0.825 2.292,0.389 2.283,-1.337 4.519,-2.764 6.702,-4.282 C -0.802,8.558 0.274,7.773 1.342,6.967 2.419,6.146 3.438,5.356 4.538,4.408 5.868,3.264 6.018,1.258 4.874,-0.071 3.729,-1.4 1.724,-1.55 0.395,-0.406 0.254,-0.285 0.114,-0.139 0,0"
             style="fill:#f7a7a3;fill-opacity:1;fill-rule:nonzero;stroke:none"
             id="path156" />
        </g>
        <g
           id="g158"
           transform="translate(295.3154,321.9849)">
          <path
             d="M 0,0 C 3.394,-1.78 10.236,1.536 10.236,1.536 11.647,8.271 10.012,12.01 8.475,14.173 L 0.1,17.195 c 0,0 -2.933,-2.819 -2.939,-2.825 C -4.116,13.143 -5.363,11.696 -5.776,9.927 -6.34,7.521 -3.2,1.68 0,0"
             style="fill:#f19592;fill-opacity:1;fill-rule:nonzero;stroke:none"
             id="path160" />
        </g>
        <g
           id="g162"
           transform="translate(300.3945,343.2671)">
          <path
             d="m 0,0 c 0.67,-0.394 1.113,-0.707 1.612,-1.122 0.487,-0.395 0.934,-0.839 1.365,-1.312 0.847,-0.955 1.564,-2.103 2.039,-3.39 0.471,-1.277 0.729,-2.699 0.658,-4.071 0.015,-0.705 -0.122,-1.354 -0.218,-2.034 -0.125,-0.661 -0.328,-1.279 -0.506,-1.926 -0.466,-1.698 -2.219,-2.696 -3.916,-2.229 -1.697,0.466 -2.695,2.219 -2.229,3.916 0.049,0.182 0.114,0.355 0.192,0.519 l 0.15,0.313 c 0.161,0.334 0.377,0.672 0.524,1.011 0.114,0.336 0.301,0.684 0.354,1.023 0.211,0.689 0.232,1.378 0.151,2.093 -0.085,0.712 -0.324,1.448 -0.719,2.157 -0.205,0.348 -0.427,0.701 -0.688,1.028 -0.235,0.32 -0.595,0.673 -0.78,0.869 l -0.272,0.29 C -2.984,-2.121 -2.95,-0.95 -2.206,-0.249 -1.594,0.328 -0.69,0.405 0,0"
             style="fill:#f7a7a3;fill-opacity:1;fill-rule:nonzero;stroke:none"
             id="path164" />
        </g>
        <g
           id="g166"
           transform="translate(395.3965,325.5293)">
          <path
             d="m 0,0 c -2.337,10.067 -8.065,13.981 -17.53,13.999 -3.897,0.008 -7.792,0.031 -11.689,0.047 -0.349,0.001 -0.703,-0.019 -1.046,-0.083 -5.025,-0.929 -8.225,-4.871 -8.19,-9.216 0.003,-0.39 -0.014,-0.772 -0.08,-1.156 -0.277,-1.59 -1.295,-6.157 -4.894,-15.213 -1.086,-2.733 -2.881,-10.05 2.912,-15.2 1.275,-1.134 2.072,-2.702 2.11,-4.407 0.284,-12.696 -0.008,-27.232 -2.059,-38.253 -0.595,-3.194 1.546,-6.25 4.734,-6.88 13.625,-2.695 27.077,-3.373 38.939,-1.251 3.184,0.57 6.087,3.74 4.857,6.731 C -2.337,-45.593 1.64,-7.061 0,0"
             style="fill:#725eff;fill-opacity:1;fill-rule:nonzero;stroke:none"
             id="path168" />
        </g>
        <g
           id="g170"
           transform="translate(381.1904,337.7373)">
          <path
             d="m 0,0 c 0,0 -9.024,-8.416 -11.195,-7.066 -1.228,0.764 -1.708,7.158 -1.708,7.158 0,0 1.874,7.258 -0.434,14.845 1.536,3.391 10.8,4.087 13.44,-0.474 C -1.134,7.858 0,0 0,0"
             style="fill:#f19592;fill-opacity:1;fill-rule:nonzero;stroke:none"
             id="path172" />
        </g>
        <g
           id="g174"
           transform="translate(389.2061,351.459)">
          <path
             d="m 0,0 c 0,0 -0.864,-1.022 0.25,-3.055 0,0 -2.504,1.239 -1.952,3.286 z"
             style="fill:#283043;fill-opacity:1;fill-rule:nonzero;stroke:none"
             id="path176" />
        </g>
        <g
           id="g178"
           transform="translate(393.7969,357.8306)">
          <path
             d="M 0,0 C 0,0 1.302,-4.526 -7.341,-7.536 L -1.039,4.675 Z"
             style="fill:#283043;fill-opacity:1;fill-rule:nonzero;stroke:none"
             id="path180" />
        </g>
        <g
           id="g182"
           transform="translate(390.7559,353.2949)">
          <path
             d="m 0,0 c 0,0 -0.211,-2.3 3.304,-2.525 0,0 -2.641,-0.996 -4.414,0.925 z"
             style="fill:#283043;fill-opacity:1;fill-rule:nonzero;stroke:none"
             id="path184" />
        </g>
        <g
           id="g186"
           transform="translate(360.4746,378.874)">
          <path
             d="m 0,0 c 0,0 -7.501,-13.483 -0.435,-21.92 l 2.627,0.501 z"
             style="fill:#283043;fill-opacity:1;fill-rule:nonzero;stroke:none"
             id="path188" />
        </g>
        <g
           id="g190"
           transform="translate(356.5352,364.1489)">
          <path
             d="M 0,0 C 0.678,-2.775 2.481,-4.718 4.028,-4.34 5.575,-3.962 6.28,-1.406 5.602,1.369 4.923,4.144 3.119,6.087 1.572,5.708 0.025,5.331 -0.679,2.774 0,0"
             style="fill:#f19592;fill-opacity:1;fill-rule:nonzero;stroke:none"
             id="path192" />
        </g>
        <g
           id="g194"
           transform="translate(393.373,380.7842)">
          <path
             d="m 0,0 c -3.52,5.119 -8.986,8.515 -15.253,8.777 -0.208,0.009 -0.427,0.004 -0.642,0.004 -0.214,0.018 -0.432,0.041 -0.64,0.05 -6.266,0.262 -8.643,0.726 -12.74,-3.943 -5.285,-6.02 -3.859,-18.196 -4.02,-22.061 -0.459,-10.954 0.333,-18.848 10.514,-19.223 10.659,-0.393 21.719,6.437 22.83,17.787 C 0.426,-14.761 2.194,-3.191 0,0"
             style="fill:#ffbab7;fill-opacity:1;fill-rule:nonzero;stroke:none"
             id="path196" />
        </g>
        <g
           id="g198"
           transform="translate(369.7607,394.9541)">
          <path
             d="m 0,0 c 2.031,0.682 4.35,0.904 6.056,1.012 5.99,0.377 12.571,0.232 17.546,-3.375 9.778,-7.091 11.378,-21.274 2.92,-31.578 -2.287,-1.931 -29.838,3.803 -36.947,18.572 -2.099,4.361 5.701,5.17 5.906,10.426 C -4.415,-2.265 -2.409,-0.809 0,0"
             style="fill:#283043;fill-opacity:1;fill-rule:nonzero;stroke:none"
             id="path200" />
        </g>
        <g
           id="g202"
           transform="translate(369.8926,387.3267)">
          <path
             d="m 0,0 c 0,0 0.462,-15.543 -12.517,-17.413 0,0 -5.834,17.453 11.922,24.872 z"
             style="fill:#283043;fill-opacity:1;fill-rule:nonzero;stroke:none"
             id="path204" />
        </g>
        <g
           id="g206"
           transform="translate(396.2832,361.0132)">
          <path
             d="m 0,0 c -1.07,-3.195 -3.382,-5.3 -5.163,-4.704 -1.78,0.598 -2.357,3.671 -1.285,6.865 1.07,3.195 3.382,5.301 5.163,4.704 C 0.495,6.268 1.071,3.194 0,0"
             style="fill:#ffbab7;fill-opacity:1;fill-rule:nonzero;stroke:none"
             id="path208" />
        </g>
        <g
           id="g210"
           transform="translate(306.4307,259.1431)">
          <path
             d="m 0,0 h -139.318 c -5.419,0 -9.813,4.394 -9.813,9.813 v 85.035 c 0,5.419 4.394,9.812 9.813,9.812 H 0 c 5.419,0 9.813,-4.393 9.813,-9.812 V 9.813 C 9.813,4.394 5.419,0 0,0"
             style="fill:#006bb7;fill-opacity:1;fill-rule:nonzero;stroke:none"
             id="path212" />
        </g>
        <g
           id="g214"
           transform="translate(304.5156,257.229)">
          <path
             d="m 0,0 h -139.317 c -5.42,0 -9.813,4.393 -9.813,9.813 v 85.034 c 0,5.42 4.393,9.813 9.813,9.813 L 0,104.66 c 5.42,0 9.813,-4.393 9.813,-9.813 V 9.813 C 9.813,4.393 5.42,0 0,0"
             style="fill:#008ae9;fill-opacity:1;fill-rule:nonzero;stroke:none"
             id="path216" />
        </g>
        <g
           id="g218"
           transform="translate(193.6343,301.3433)">
          <path
             d="m 0,0 h -25.99 c -2.161,0 -3.914,1.752 -3.914,3.914 v 15.709 c 0,2.162 1.753,3.914 3.914,3.914 H 0 c 2.162,0 3.914,-1.752 3.914,-3.914 V 3.914 C 3.914,1.752 2.162,0 0,0"
             style="fill:#ffe152;fill-opacity:1;fill-rule:nonzero;stroke:none"
             id="path220" />
        </g>
        <g
           id="g222"
           transform="translate(163.7305,317.2871)">
          <path
             d="M 0,0 H 33.818"
             style="fill:none;stroke:#fbfeff;stroke-width:0.822;stroke-linecap:butt;stroke-linejoin:miter;stroke-miterlimit:10;stroke-dasharray:none;stroke-opacity:1"
             id="path224" />
        </g>
        <g
           id="g226"
           transform="translate(163.7305,308.936)">
          <path
             d="M 0,0 H 33.818"
             style="fill:none;stroke:#fbfeff;stroke-width:0.822;stroke-linecap:butt;stroke-linejoin:miter;stroke-miterlimit:10;stroke-dasharray:none;stroke-opacity:1"
             id="path228" />
        </g>
        <g
           id="g230"
           transform="translate(173.998,308.936)">
          <path
             d="M 0,0 V 8.351"
             style="fill:none;stroke:#fbfeff;stroke-width:0.822;stroke-linecap:butt;stroke-linejoin:miter;stroke-miterlimit:10;stroke-dasharray:none;stroke-opacity:1"
             id="path232" />
        </g>
        <g
           id="g234"
           transform="translate(187.2808,308.936)">
          <path
             d="M 0,0 V 8.351"
             style="fill:none;stroke:#fbfeff;stroke-width:0.822;stroke-linecap:butt;stroke-linejoin:miter;stroke-miterlimit:10;stroke-dasharray:none;stroke-opacity:1"
             id="path236" />
        </g>
        <g
           id="g238"
           transform="translate(192.8848,284.0381)">
          <path
             d="m 0,0 h -27.272 c -1.04,0 -1.882,0.842 -1.882,1.882 V 6.66 c 0,1.039 0.842,1.882 1.882,1.882 H 0 c 1.039,0 1.882,-0.843 1.882,-1.882 V 1.882 C 1.882,0.842 1.039,0 0,0"
             style="fill:#d4fefd;fill-opacity:1;fill-rule:nonzero;stroke:none"
             id="path240" />
        </g>
        <g
           id="g242"
           transform="translate(229.957,284.0381)">
          <path
             d="m 0,0 h -27.272 c -1.04,0 -1.882,0.842 -1.882,1.882 V 6.66 c 0,1.039 0.842,1.882 1.882,1.882 H 0 c 1.039,0 1.882,-0.843 1.882,-1.882 V 1.882 C 1.882,0.842 1.039,0 0,0"
             style="fill:#d4fefd;fill-opacity:1;fill-rule:nonzero;stroke:none"
             id="path244" />
        </g>
        <g
           id="g246"
           transform="translate(267.0293,284.0381)">
          <path
             d="m 0,0 h -27.272 c -1.04,0 -1.882,0.842 -1.882,1.882 V 6.66 c 0,1.039 0.842,1.882 1.882,1.882 H 0 c 1.039,0 1.882,-0.843 1.882,-1.882 V 1.882 C 1.882,0.842 1.039,0 0,0"
             style="fill:#d4fefd;fill-opacity:1;fill-rule:nonzero;stroke:none"
             id="path248" />
        </g>
        <g
           id="g250"
           transform="translate(304.1016,284.0381)">
          <path
             d="m 0,0 h -27.271 c -1.041,0 -1.882,0.842 -1.882,1.882 V 6.66 c 0,1.039 0.841,1.882 1.882,1.882 H 0 c 1.04,0 1.882,-0.843 1.882,-1.882 V 1.882 C 1.882,0.842 1.04,0 0,0"
             style="fill:#d4fefd;fill-opacity:1;fill-rule:nonzero;stroke:none"
             id="path252" />
        </g>
        <g
           id="g254"
           transform="translate(303.9912,264.3486)">
          <path
             d="m 0,0 h -85.188 c -1.101,0 -1.993,0.892 -1.993,1.993 v 4.628 c 0,1.1 0.892,1.993 1.993,1.993 H 0 c 1.101,0 1.992,-0.893 1.992,-1.993 V 1.993 C 1.992,0.892 1.101,0 0,0"
             style="fill:#0072c1;fill-opacity:1;fill-rule:nonzero;stroke:none"
             id="path256" />
        </g>
        <g
           id="g258"
           transform="translate(284.3672,276.312)">
          <path
             d="m 0,0 h -7.964 c -0.543,0 -0.983,0.44 -0.983,0.983 v 2.616 c 0,0.543 0.44,0.983 0.983,0.983 H 0 c 0.543,0 0.983,-0.44 0.983,-0.983 V 0.983 C 0.983,0.44 0.543,0 0,0"
             style="fill:#0072c1;fill-opacity:1;fill-rule:nonzero;stroke:none"
             id="path260" />
        </g>
        <g
           id="g262"
           transform="translate(304.626,276.312)">
          <path
             d="m 0,0 h -7.964 c -0.543,0 -0.983,0.44 -0.983,0.983 v 2.616 c 0,0.543 0.44,0.983 0.983,0.983 H 0 c 0.543,0 0.983,-0.44 0.983,-0.983 V 0.983 C 0.983,0.44 0.543,0 0,0"
             style="fill:#0072c1;fill-opacity:1;fill-rule:nonzero;stroke:none"
             id="path264" />
        </g>
        <g
           id="g266"
           transform="translate(389.7119,307.7373)">
          <path
             d="m 0,0 -27.114,-33.122 -0.382,-0.466 c -1.467,-1.792 -3.727,-2.605 -5.869,-2.368 l -25.404,3.01 -12.694,1.456 -6.329,0.698 -3.138,0.327 -1.55,0.153 -1.437,0.122 -0.216,0.019 c -3.457,0.294 -6.019,3.335 -5.725,6.791 0.291,3.418 3.273,5.963 6.682,5.734 l 1.755,-0.119 1.638,-0.134 3.233,-0.283 6.408,-0.6 12.77,-1.252 25.501,-2.595 -6.251,-2.835 21.625,36.94 c 2.812,4.803 8.986,6.418 13.79,3.606 C 2.097,12.27 3.711,6.096 0.898,1.292 0.639,0.849 0.313,0.389 0,0"
             style="fill:#ffbab7;fill-opacity:1;fill-rule:nonzero;stroke:none"
             id="path268" />
        </g>
        <g
           id="g270"
           transform="translate(294.3828,296.2593)">
          <path
             d="M 0,0 C 1.041,0.042 1.882,-0.063 2.821,-0.335 3.734,-0.604 4.648,-1.042 5.462,-1.668 6.267,-2.29 7.026,-3.063 7.574,-3.939 7.891,-4.372 8.09,-4.826 8.34,-5.29 8.558,-5.751 8.726,-6.219 8.913,-6.701 l 0.064,-0.164 c 0.651,-1.675 -0.179,-3.56 -1.854,-4.212 -1.675,-0.651 -3.56,0.18 -4.212,1.854 -0.189,0.49 -0.251,1.012 -0.205,1.502 0.053,0.525 0.097,1.068 0.032,1.563 -0.034,0.523 -0.19,0.984 -0.405,1.467 -0.221,0.477 -0.563,0.923 -1.004,1.321 -0.414,0.396 -1.038,0.746 -1.498,0.964 l -0.292,0.138 c -0.595,0.281 -0.849,0.992 -0.567,1.587 0.195,0.414 0.6,0.663 1.028,0.681"
             style="fill:#ffbab7;fill-opacity:1;fill-rule:nonzero;stroke:none"
             id="path272" />
        </g>
        <g
           id="g274"
           transform="translate(301.5215,292.167)">
          <path
             d="m 0,0 c 1.496,-0.411 3.149,-0.926 4.648,-2.354 1.099,-1.045 1.827,-5.519 0.987,-7.024 -2.029,-3.636 -5.498,-5.204 -8.252,-5.962 -2.219,-0.611 -5.291,-0.713 -6.604,-0.924 -0.619,-0.1 -0.747,0.747 -0.713,1.374 l -0.02,9.994 C -7.033,-4.521 0,0 0,0"
             style="fill:#ffbab7;fill-opacity:1;fill-rule:nonzero;stroke:none"
             id="path276" />
        </g>
        <g
           id="g278"
           transform="translate(294.4258,283.9531)">
          <path
             d="m 0,0 c -0.202,-0.04 -0.218,-0.034 -0.303,-0.044 l -0.178,-0.013 c -0.113,-0.005 -0.216,-0.008 -0.304,-0.005 -0.192,-0.001 -0.36,0.01 -0.527,0.021 -0.333,0.025 -0.647,0.06 -0.948,0.106 -0.609,0.087 -1.179,0.209 -1.747,0.336 -1.126,0.263 -2.207,0.582 -3.275,0.919 -2.127,0.69 -4.186,1.484 -6.217,2.321 -0.686,0.283 -1.013,1.068 -0.73,1.755 0.264,0.641 0.966,0.968 1.617,0.778 l 0.013,-0.004 c 2.058,-0.608 4.123,-1.165 6.184,-1.603 1.029,-0.211 2.058,-0.4 3.064,-0.526 0.5,-0.059 1.001,-0.111 1.472,-0.127 0.237,-0.013 0.465,-0.012 0.675,-0.005 0.102,0.004 0.206,0.008 0.284,0.02 0.049,0.003 0.08,0.009 0.104,0.015 0.01,0.002 0.035,0.005 0.022,0.007 C -0.811,3.949 -0.76,3.962 -0.895,3.936 0.192,4.183 1.273,3.501 1.521,2.415 1.768,1.328 1.086,0.247 0,0"
             style="fill:#ffbab7;fill-opacity:1;fill-rule:nonzero;stroke:none"
             id="path280" />
        </g>
        <g
           id="g282"
           transform="translate(295.6826,281.9966)">
          <path
             d="m 0,0 c -0.177,-0.118 -0.243,-0.146 -0.312,-0.182 -0.077,-0.039 -0.153,-0.075 -0.207,-0.096 -0.116,-0.046 -0.25,-0.103 -0.353,-0.134 -0.217,-0.068 -0.434,-0.131 -0.628,-0.167 -0.406,-0.092 -0.775,-0.128 -1.143,-0.153 -0.733,-0.055 -1.408,-0.007 -2.072,0.06 -1.32,0.149 -2.551,0.447 -3.745,0.798 -1.185,0.369 -2.333,0.791 -3.449,1.261 -1.117,0.468 -2.199,0.989 -3.275,1.515 -0.666,0.327 -0.942,1.131 -0.616,1.797 0.306,0.625 1.032,0.906 1.672,0.67 l 0.041,-0.015 c 1.07,-0.401 2.139,-0.795 3.218,-1.128 1.077,-0.337 2.159,-0.618 3.234,-0.843 1.074,-0.206 2.147,-0.351 3.159,-0.365 0.501,-10e-4 0.999,0.015 1.428,0.095 0.212,0.036 0.426,0.081 0.583,0.14 0.092,0.025 0.152,0.057 0.211,0.082 0.036,0.013 0.033,0.024 0.053,0.032 0.013,0.006 0.002,0.004 -0.01,0 0,0 -0.006,0.004 -0.122,-0.074 0.91,0.645 2.169,0.429 2.813,-0.48 C 1.124,1.903 0.909,0.644 0,0"
             style="fill:#ffbab7;fill-opacity:1;fill-rule:nonzero;stroke:none"
             id="path284" />
        </g>
        <g
           id="g286"
           transform="translate(294.8398,278.1694)">
          <path
             d="M 0,0 C -0.29,-0.109 -0.298,-0.093 -0.418,-0.125 -0.529,-0.152 -0.575,-0.153 -0.653,-0.167 -0.804,-0.19 -0.929,-0.2 -1.041,-0.204 c -0.247,-0.018 -0.442,-0.007 -0.652,-0.002 -0.4,0.023 -0.771,0.066 -1.12,0.128 -0.708,0.115 -1.35,0.289 -1.987,0.471 -1.259,0.378 -2.43,0.853 -3.587,1.345 -2.292,1.011 -4.464,2.167 -6.592,3.38 -0.644,0.367 -0.869,1.187 -0.501,1.832 0.345,0.607 1.091,0.842 1.715,0.561 l 0.016,-0.007 c 2.168,-0.981 4.361,-1.894 6.567,-2.629 1.102,-0.352 2.208,-0.682 3.289,-0.897 0.536,-0.099 1.072,-0.19 1.562,-0.22 0.248,-0.021 0.478,-0.021 0.683,-0.013 0.09,0.01 0.198,0.012 0.251,0.028 0.039,0.005 0.063,0.012 0.061,0.017 0,0 0.025,0.005 -0.014,10e-4 C -1.396,3.777 -1.33,3.808 -1.55,3.726 -0.521,4.154 0.66,3.667 1.088,2.638 1.516,1.609 1.029,0.428 0,0"
             style="fill:#ffbab7;fill-opacity:1;fill-rule:nonzero;stroke:none"
             id="path288" />
        </g>
        <g
           id="g290"
           transform="translate(298.9365,277.0693)">
          <path
             d="m 0,0 c -0.354,-0.256 -0.508,-0.325 -0.742,-0.452 -0.219,-0.118 -0.424,-0.196 -0.637,-0.294 -0.419,-0.163 -0.838,-0.308 -1.254,-0.409 -0.835,-0.225 -1.664,-0.323 -2.483,-0.372 -1.639,-0.08 -3.218,0.138 -4.713,0.514 -1.51,0.35 -2.914,0.915 -4.288,1.509 -0.665,0.334 -1.336,0.656 -1.989,1.002 l -1.908,1.112 c -0.639,0.373 -0.855,1.194 -0.482,1.834 0.353,0.607 1.111,0.833 1.735,0.535 l 0.081,-0.039 1.843,-0.887 1.874,-0.764 C -11.697,2.861 -10.426,2.463 -9.15,2.278 -7.88,2.061 -6.608,2 -5.421,2.159 c 0.59,0.086 1.167,0.201 1.688,0.393 0.266,0.086 0.509,0.199 0.742,0.31 0.103,0.062 0.227,0.118 0.313,0.18 0.076,0.044 0.227,0.156 0.158,0.111 0.871,0.696 2.14,0.554 2.836,-0.317 C 1.012,1.966 0.87,0.696 0,0"
             style="fill:#ffbab7;fill-opacity:1;fill-rule:nonzero;stroke:none"
             id="path292" />
        </g>
        <g
           id="g294"
           transform="translate(379.2617,290.6426)">
          <path
             d="M 0,0 -19.11,7.785 -6.891,30.902 11.346,43.269 C 11.346,43.269 26.127,28.024 0,0"
             style="fill:#725eff;fill-opacity:1;fill-rule:nonzero;stroke:none"
             id="path296" />
        </g>
        <g
           id="g298"
           transform="translate(363.3193,304.4209)">
          <path
             d="m 0,0 -3.168,-5.993 19.11,-7.785 c 1.706,1.83 3.235,3.604 4.608,5.324 C 13.735,-5.554 6.875,-2.759 0,0"
             style="fill:#ffffff;fill-opacity:1;fill-rule:nonzero;stroke:none"
             id="path300" />
        </g>
        <g
           id="g302"
           transform="translate(371.3916,319.6914)">
          <path
             d="m 0,0 c -0.627,-1.936 -1.401,-3.794 -2.221,-5.627 -0.813,-1.838 -1.71,-3.631 -2.631,-5.412 -0.929,-1.775 -1.907,-3.525 -2.96,-5.236 -1.047,-1.713 -2.158,-3.393 -3.429,-4.989 0.603,1.949 1.366,3.813 2.191,5.644 0.821,1.833 1.717,3.626 2.66,5.395 0.953,1.764 1.93,3.514 2.991,5.221 C -2.346,-3.294 -1.246,-1.608 0,0"
             style="fill:#3f46de;fill-opacity:1;fill-rule:nonzero;stroke:none"
             id="path304" />
        </g>
        <g
           id="g306"
           transform="translate(379.2617,290.6426)">
          <path
             d="m 0,0 c 1.854,2.405 3.594,4.854 5.244,7.353 1.637,2.507 3.16,5.075 4.533,7.716 1.413,2.627 2.523,5.39 3.537,8.189 l 0.691,2.129 c 0.229,0.712 0.368,1.445 0.571,2.167 0.471,1.439 0.575,2.937 0.935,4.425 0.061,-3.025 -0.203,-6.114 -1.016,-9.074 C 13.702,19.948 12.624,17.05 11.203,14.336 9.795,11.616 8.157,9.02 6.287,6.608 4.416,4.201 2.355,1.93 0,0"
             style="fill:#3f46de;fill-opacity:1;fill-rule:nonzero;stroke:none"
             id="path308" />
        </g>
        <g
           id="g310"
           transform="translate(380.793,342.1875)">
          <path
             d="m 0,0 3.603,-2.68 c 1.179,-0.877 1.526,-2.492 0.81,-3.776 l -3.219,-5.775 -13.063,-9.797 1.071,10.511 6.759,4.185 z"
             style="fill:#ffffff;fill-opacity:1;fill-rule:nonzero;stroke:none"
             id="path312" />
        </g>
        <g
           id="g314"
           transform="translate(368.9238,341.7632)">
          <path
             d="m 0,0 -2.095,-1.538 c -0.685,-0.504 -1.184,-1.221 -1.417,-2.04 l -2.235,-7.865 0.974,-7.063 5.844,7.414 -1.316,5.58 z"
             style="fill:#ffffff;fill-opacity:1;fill-rule:nonzero;stroke:none"
             id="path316" />
        </g>
        <g
           id="g318"
           transform="translate(329.7012,197.1992)">
          <path
             d="M 0,0 C 0.166,0.056 0.337,0.093 0.505,0.138 L 1.031,0.282 V 0.268 C 1.516,0.366 2.005,0.437 2.503,0.45 9.014,0.616 14.324,-6.824 14.44,-16.31 14.557,-25.748 9.5,-33.844 2.993,-34.567 l 0.001,-0.021 -41.598,-13.621 -2.755,1.14 v 36.098 z"
             style="fill:#3694ff;fill-opacity:1;fill-rule:nonzero;stroke:none"
             id="path320" />
        </g>
        <g
           id="g322"
           transform="translate(291.0967,185.0449)">
          <path
             d="m 0,0 46.405,-20.373 c 0,0 -3.077,-1.848 -4.807,-2.04 L 41.599,-22.434 0,-36.055 l -2.755,1.14 V 1.184 Z"
             style="fill:#0066cb;fill-opacity:1;fill-rule:nonzero;stroke:none"
             id="path324" />
        </g>
        <g
           id="g326"
           transform="translate(291.0967,148.9902)">
          <path
             d="m 0,0 v 36.055 l 38.604,10.24 c 0.167,0.056 0.337,0.093 0.505,0.138 l 0.527,0.144 v -0.014 c 0.484,0.098 0.973,0.169 1.471,0.182 6.511,0.166 11.822,-7.274 11.938,-16.76 C 53.161,20.546 48.104,12.45 41.598,11.728 l 10e-4,-0.021 z"
             style="fill:#0041bd;fill-opacity:1;fill-rule:nonzero;stroke:none"
             id="path328" />
        </g>
        <g
           id="g330"
           transform="translate(336.8936,178.6816)">
          <path
             d="m 0,0 c -0.187,-4.643 -3.388,-8.619 -7.503,-9.085 -4.555,-0.516 -8.752,3.368 -8.921,8.967 -0.177,5.881 4.129,10.389 9.08,9.855 C -2.91,9.259 0.194,4.836 0,0"
             style="fill:#c9aa3c;fill-opacity:1;fill-rule:nonzero;stroke:none"
             id="path332" />
        </g>
        <g
           id="g334"
           transform="translate(337.8506,177.7246)">
          <path
             d="m 0,0 c -0.187,-4.643 -3.388,-8.619 -7.503,-9.085 -4.555,-0.516 -8.752,3.368 -8.921,8.967 -0.177,5.881 4.13,10.389 9.08,9.855 C -2.91,9.259 0.194,4.836 0,0"
             style="fill:#ffe152;fill-opacity:1;fill-rule:nonzero;stroke:none"
             id="path336" />
        </g>
        <g
           id="g338"
           transform="translate(334.876,177.8428)">
          <path
             d="m 0,0 c -0.119,-2.961 -2.16,-5.497 -4.784,-5.794 -2.904,-0.329 -5.581,2.148 -5.69,5.719 -0.112,3.75 2.634,6.625 5.79,6.284 C -1.855,5.904 0.125,3.084 0,0"
             style="fill:#e5c246;fill-opacity:1;fill-rule:nonzero;stroke:none"
             id="path340" />
        </g>
        <g
           id="g342"
           transform="translate(298.9746,238.5068)">
          <path
             d="m 0,0 h -179.966 c -4.997,0 -9.048,-4.051 -9.048,-9.048 v -122.05 c 0,-4.997 4.051,-9.048 9.048,-9.048 H -3.025 l -0.549,-0.472 3.909,-3.295 6.019,6.379 c 1.662,1.639 2.694,3.917 2.694,6.436 V -9.048 C 9.048,-4.051 4.997,0 0,0"
             style="fill:#005dc6;fill-opacity:1;fill-rule:nonzero;stroke:none"
             id="path344" />
        </g>
        <g
           id="g346"
           transform="translate(299.6182,229.5527)">
          <path
             d="M 0,0 6.096,5.928 C 4.438,7.781 2.037,8.954 -0.644,8.954 H -180.61 c -4.997,0 -9.048,-4.051 -9.048,-9.048 v -122.05 c 0,-4.997 4.051,-9.047 9.048,-9.047 h 74.364 C -90.513,-113.058 0,0 0,0"
             style="fill:#0077ef;fill-opacity:1;fill-rule:nonzero;stroke:none"
             id="path348" />
        </g>
        <g
           id="g350"
           transform="translate(293.1357,92.1465)">
          <path
             d="m 0,0 h -179.967 c -4.996,0 -9.047,4.051 -9.047,9.048 v 122.05 c 0,4.997 4.051,9.048 9.047,9.048 H 0 c 4.996,0 9.047,-4.051 9.047,-9.048 V 9.048 C 9.047,4.051 4.996,0 0,0"
             style="fill:#0041bd;fill-opacity:1;fill-rule:nonzero;stroke:none"
             id="path352" />
        </g>
        <g
           id="g354"
           transform="translate(284.3477,99.3184)">
          <path
             d="m 0,0 h -149.399 c -5.178,0 -9.375,4.197 -9.375,9.375 v 106.126 c 0,5.178 4.197,9.375 9.375,9.375 H 0 c 5.178,0 9.375,-4.197 9.375,-9.375 V 9.375 C 9.375,4.197 5.178,0 0,0"
             style="fill:#0059cd;fill-opacity:1;fill-rule:nonzero;stroke:none"
             id="path356" />
        </g>
        <g
           id="g358"
           transform="translate(278.1592,115.1768)">
          <path
             d="m 0,0 h -139.317 c -5.42,0 -9.813,4.394 -9.813,9.813 v 85.035 c 0,5.42 4.393,9.812 9.813,9.812 H 0 c 5.42,0 9.813,-4.392 9.813,-9.812 V 9.813 C 9.813,4.394 5.42,0 0,0"
             style="fill:#008fb6;fill-opacity:1;fill-rule:nonzero;stroke:none"
             id="path360" />
        </g>
        <g
           id="g362"
           transform="translate(276.2451,113.2627)">
          <path
             d="m 0,0 h -139.317 c -5.42,0 -9.813,4.394 -9.813,9.813 v 85.035 c 0,5.42 4.393,9.812 9.813,9.812 H 0 c 5.42,0 9.813,-4.392 9.813,-9.812 V 9.813 C 9.813,4.394 5.42,0 0,0"
             style="fill:#00c1e7;fill-opacity:1;fill-rule:nonzero;stroke:none"
             id="path364" />
        </g>
        <g
           id="g366"
           transform="translate(165.3638,157.377)">
          <path
             d="m 0,0 h -25.99 c -2.162,0 -3.914,1.753 -3.914,3.914 v 15.709 c 0,2.162 1.752,3.914 3.914,3.914 H 0 c 2.162,0 3.914,-1.752 3.914,-3.914 V 3.914 C 3.914,1.753 2.162,0 0,0"
             style="fill:#67a8ff;fill-opacity:1;fill-rule:nonzero;stroke:none"
             id="path368" />
        </g>
        <g
           id="g370"
           transform="translate(135.46,173.3213)">
          <path
             d="M 0,0 H 33.818"
             style="fill:none;stroke:#fffcfc;stroke-width:0.822;stroke-linecap:butt;stroke-linejoin:miter;stroke-miterlimit:10;stroke-dasharray:none;stroke-opacity:1"
             id="path372" />
        </g>
        <g
           id="g374"
           transform="translate(135.46,164.9697)">
          <path
             d="M 0,0 H 33.818"
             style="fill:none;stroke:#fffcfc;stroke-width:0.822;stroke-linecap:butt;stroke-linejoin:miter;stroke-miterlimit:10;stroke-dasharray:none;stroke-opacity:1"
             id="path376" />
        </g>
        <g
           id="g378"
           transform="translate(145.7271,164.9697)">
          <path
             d="M 0,0 V 8.352"
             style="fill:none;stroke:#fffcfc;stroke-width:0.822;stroke-linecap:butt;stroke-linejoin:miter;stroke-miterlimit:10;stroke-dasharray:none;stroke-opacity:1"
             id="path380" />
        </g>
        <g
           id="g382"
           transform="translate(159.0103,164.9697)">
          <path
             d="M 0,0 V 8.352"
             style="fill:none;stroke:#fffcfc;stroke-width:0.822;stroke-linecap:butt;stroke-linejoin:miter;stroke-miterlimit:10;stroke-dasharray:none;stroke-opacity:1"
             id="path384" />
        </g>
        <g
           id="g386"
           transform="translate(164.6138,140.0723)">
          <path
             d="m 0,0 h -27.272 c -1.04,0 -1.882,0.843 -1.882,1.882 v 4.777 c 0,1.04 0.842,1.882 1.882,1.882 H 0 c 1.04,0 1.882,-0.842 1.882,-1.882 V 1.882 C 1.882,0.843 1.04,0 0,0"
             style="fill:#ffe2a7;fill-opacity:1;fill-rule:nonzero;stroke:none"
             id="path388" />
        </g>
        <g
           id="g390"
           transform="translate(201.6865,140.0723)">
          <path
             d="m 0,0 h -27.272 c -1.04,0 -1.882,0.843 -1.882,1.882 v 4.777 c 0,1.04 0.842,1.882 1.882,1.882 H 0 c 1.039,0 1.881,-0.842 1.881,-1.882 V 1.882 C 1.881,0.843 1.039,0 0,0"
             style="fill:#ffe2a7;fill-opacity:1;fill-rule:nonzero;stroke:none"
             id="path392" />
        </g>
        <g
           id="g394"
           transform="translate(238.7588,140.0723)">
          <path
             d="m 0,0 h -27.272 c -1.04,0 -1.882,0.843 -1.882,1.882 v 4.777 c 0,1.04 0.842,1.882 1.882,1.882 H 0 c 1.039,0 1.882,-0.842 1.882,-1.882 V 1.882 C 1.882,0.843 1.039,0 0,0"
             style="fill:#ffe2a7;fill-opacity:1;fill-rule:nonzero;stroke:none"
             id="path396" />
        </g>
        <g
           id="g398"
           transform="translate(275.8311,140.0723)">
          <path
             d="m 0,0 h -27.272 c -1.04,0 -1.882,0.843 -1.882,1.882 v 4.777 c 0,1.04 0.842,1.882 1.882,1.882 H 0 c 1.039,0 1.882,-0.842 1.882,-1.882 V 1.882 C 1.882,0.843 1.039,0 0,0"
             style="fill:#ffe2a7;fill-opacity:1;fill-rule:nonzero;stroke:none"
             id="path400" />
        </g>
        <g
           id="g402"
           transform="translate(275.7197,120.3828)">
          <path
             d="m 0,0 h -85.188 c -1.1,0 -1.993,0.892 -1.993,1.993 V 6.62 c 0,1.102 0.893,1.993 1.993,1.993 H 0 c 1.101,0 1.993,-0.891 1.993,-1.993 V 1.993 C 1.993,0.892 1.101,0 0,0"
             style="fill:#8e99c0;fill-opacity:1;fill-rule:nonzero;stroke:none"
             id="path404" />
        </g>
        <g
           id="g406"
           transform="translate(256.0967,132.3467)">
          <path
             d="m 0,0 h -7.964 c -0.543,0 -0.983,0.439 -0.983,0.982 v 2.616 c 0,0.543 0.44,0.983 0.983,0.983 H 0 c 0.543,0 0.983,-0.44 0.983,-0.983 V 0.982 C 0.983,0.439 0.543,0 0,0"
             style="fill:#8e99c0;fill-opacity:1;fill-rule:nonzero;stroke:none"
             id="path408" />
        </g>
        <g
           id="g410"
           transform="translate(276.3555,132.3467)">
          <path
             d="m 0,0 h -7.964 c -0.543,0 -0.983,0.439 -0.983,0.982 v 2.616 c 0,0.543 0.44,0.983 0.983,0.983 H 0 c 0.543,0 0.983,-0.44 0.983,-0.983 V 0.982 C 0.983,0.439 0.543,0 0,0"
             style="fill:#8e99c0;fill-opacity:1;fill-rule:nonzero;stroke:none"
             id="path412" />
        </g>
        <g
           id="g414"
           transform="translate(125.5728,174.3799)">
          <path
             d="m 0,0 v -65.687 c 0,-5.177 4.198,-9.375 9.376,-9.375 h 149.399 c 5.178,0 9.375,4.198 9.375,9.375 V 0 Z"
             style="fill:#0078e4;fill-opacity:1;fill-rule:nonzero;stroke:none"
             id="path416" />
        </g>
        <g
           id="g418"
           transform="translate(125.5728,139.6055)">
          <path
             d="m 0,0 v -30.912 c 0,-5.178 4.198,-9.375 9.376,-9.375 h 149.399 c 5.178,0 9.375,4.197 9.375,9.375 V 0 Z"
             style="fill:#005ac8;fill-opacity:1;fill-rule:nonzero;stroke:none"
             id="path420" />
        </g>
        <g
           id="g422"
           transform="translate(237.0806,72.1758)">
          <path
             d="m 0,0 -10.641,-5.346 0.607,137.522 11.987,2.092 V 3.167 C 1.953,1.827 1.197,0.602 0,0"
             style="fill:#0059cd;fill-opacity:1;fill-rule:nonzero;stroke:none"
             id="path424" />
        </g>
        <g
           id="g426"
           transform="translate(239.0337,206.4434)">
          <path
             d="m 0,0 c 0,0 0.436,2.65 -2.496,3.29 -2.048,0.447 -121.406,27.891 -121.406,27.891 l -11.01,-3.403 121.648,-32.89 z"
             style="fill:#0077ef;fill-opacity:1;fill-rule:nonzero;stroke:none"
             id="path428" />
        </g>
        <g
           id="g430"
           transform="translate(225.1509,205.4395)">
          <path
             d="m 0,0 -121.029,28.782 v -132.794 c 0,-4.299 2.959,-8.031 7.144,-9.012 l 111.151,-26.057 c 3.733,-0.876 7.307,1.957 7.307,5.791 V -5.787 C 4.573,-3.032 2.681,-0.638 0,0"
             style="fill:#0060dd;fill-opacity:1;fill-rule:nonzero;stroke:none"
             id="path432" />
        </g>
        <g
           id="g434"
           transform="translate(104.1216,226.3525)">
          <path
             d="M 0,0 2.793,-0.665"
             style="fill:none;stroke:#d4fefd;stroke-width:0.957;stroke-linecap:butt;stroke-linejoin:miter;stroke-miterlimit:10;stroke-dasharray:none;stroke-opacity:1"
             id="path436" />
        </g>
        <g
           id="g438"
           transform="translate(112.5088,224.3574)">
          <path
             d="m 0,0 101.673,-24.18 c 4.622,-1.099 7.885,-5.228 7.885,-9.979 v -102.918 c 0,-6.622 -6.182,-11.509 -12.625,-9.982 l -99.729,23.656"
             style="fill:none;stroke:#d4fefd;stroke-width:0.957;stroke-linecap:butt;stroke-linejoin:miter;stroke-miterlimit:10;stroke-dasharray:5.75, 5.75;stroke-dashoffset:0;stroke-opacity:1"
             id="path440" />
        </g>
        <g
           id="g442"
           transform="translate(106.9155,101.6172)">
          <path
             d="M 0,0 -2.794,0.663"
             style="fill:none;stroke:#d4fefd;stroke-width:0.957;stroke-linecap:butt;stroke-linejoin:miter;stroke-miterlimit:10;stroke-dasharray:none;stroke-opacity:1"
             id="path444" />
        </g>
        <g
           id="g446"
           transform="translate(120.1895,238.5068)">
          <path
             d="m 0,0 h -11.783 c -2.366,0 -4.285,-1.919 -4.285,-4.285 z"
             style="fill:#0078e4;fill-opacity:1;fill-rule:nonzero;stroke:none"
             id="path448" />
        </g>
        <g
           id="g450"
           transform="translate(197.5205,148.7461)">
          <path
             d="m 0,0 c 0.794,-5.143 -2.158,-9.867 -6.594,-10.552 -4.436,-0.685 -8.677,2.928 -9.471,8.07 -0.794,5.142 2.158,9.867 6.594,10.551 C -5.034,8.755 -0.794,5.142 0,0"
             style="fill:#c3a63a;fill-opacity:1;fill-rule:nonzero;stroke:none"
             id="path452" />
        </g>
        <g
           id="g454"
           transform="translate(196.3638,148.3926)">
          <path
             d="m 0,0 c 0.782,-5.062 -2.157,-9.718 -6.565,-10.398 -4.407,-0.682 -8.614,2.87 -9.396,7.932 -0.782,5.063 2.157,9.718 6.565,10.4 C -4.989,8.614 -0.782,5.062 0,0"
             style="fill:#ffe152;fill-opacity:1;fill-rule:nonzero;stroke:none"
             id="path456" />
        </g>
        <g
           id="g458"
           transform="translate(193.3657,147.9297)">
          <path
             d="M 0,0 C 0.488,-3.161 -1.347,-6.068 -4.099,-6.493 -6.851,-6.918 -9.477,-4.7 -9.965,-1.54 -10.454,1.621 -8.619,4.528 -5.867,4.953 -3.115,5.378 -0.488,3.16 0,0"
             style="fill:#e5c246;fill-opacity:1;fill-rule:nonzero;stroke:none"
             id="path460" />
        </g>
      </g>
    </g>
  </g>
</svg>
