<?xml version="1.0" encoding="UTF-8" standalone="no"?>
<!-- Created with Inkscape (http://www.inkscape.org/) -->

<svg
   version="1.1"
   id="svg2"
   width="4266.6665"
   height="2666.6667"
   viewBox="0 0 4266.6665 2666.6667"
   sodipodi:docname="8271033_5527.eps"
   xmlns:inkscape="http://www.inkscape.org/namespaces/inkscape"
   xmlns:sodipodi="http://sodipodi.sourceforge.net/DTD/sodipodi-0.dtd"
   xmlns="http://www.w3.org/2000/svg"
   xmlns:svg="http://www.w3.org/2000/svg">
  <defs
     id="defs6" />
  <sodipodi:namedview
     id="namedview4"
     pagecolor="#ffffff"
     bordercolor="#000000"
     borderopacity="0.25"
     inkscape:showpageshadow="2"
     inkscape:pageopacity="0.0"
     inkscape:pagecheckerboard="0"
     inkscape:deskcolor="#d1d1d1" />
  <g
     id="g8"
     inkscape:groupmode="layer"
     inkscape:label="ink_ext_XXXXXX"
     transform="matrix(1.3333333,0,0,-1.3333333,0,2666.6667)">
    <g
       id="g10"
       transform="scale(0.1)">
      <path
         d="M 0,20000 V 0 H 32000 V 20000 H 0"
         style="fill:#ffffff;fill-opacity:1;fill-rule:nonzero;stroke:none"
         id="path12" />
      <path
         d="m 4135.7,3025.2 c 0,0 -3235.048,3214 -547.1,6693.7 2384.93,3087.4 5165.52,2876.3 7205.6,1623.4 868.9,-533.6 3374,-65.7 5506.2,3075.8 2907.7,4284.2 12986.8,1685.8 11149.1,-4905.5 -889.4,-3189.8 2706.6,-3305.7 874.3,-6494.2 l -24188.1,6.8"
         style="fill:#ebf3fa;fill-opacity:1;fill-rule:nonzero;stroke:none"
         id="path14" />
      <path
         d="m 20656.6,9025 c 0,0 231.4,130.5 297.7,132.5 66.3,2 287.9,-31.1 269.3,-81.3 -18.5,-50.1 -225.4,-94.9 -250.1,-129.8 -24.8,-35 144.3,-40.5 102.6,-65.3 -41.7,-24.9 -366.7,-36.7 -397.2,-30.1 -30.6,6.6 -22.3,174 -22.3,174"
         style="fill:#ffb27d;fill-opacity:1;fill-rule:nonzero;stroke:none"
         id="path16" />
      <path
         d="m 14606.5,10404.7 c 0,0 -131.5,230.9 -187.3,266.6 -55.9,35.8 -263,121.3 -272.8,68.7 -9.9,-52.6 144.6,-197.2 147.9,-239.9 3.2,-42.8 -144.7,39.4 -121.6,-3.3 23,-42.8 295.7,-219.9 325.3,-229.9 29.6,-10.1 108.5,137.8 108.5,137.8"
         style="fill:#ffb27d;fill-opacity:1;fill-rule:nonzero;stroke:none"
         id="path18" />
      <path
         d="m 18700,11989.1 c 59.9,162.7 8.8,338.2 -182.6,358.9 -172.3,18.5 -325.7,76.9 -385.6,-85.7 -59.8,-162.7 2.8,-399.6 165.5,-459.4 162.6,-59.8 342.9,23.6 402.7,186.2"
         style="fill:#c8d9e8;fill-opacity:1;fill-rule:nonzero;stroke:none"
         id="path20" />
      <path
         d="m 18059.2,11069.5 c 0,0 846.8,339 420,956.4 0,0 -155,109 -248.4,124.7 0,0 -279.3,206.7 -540.7,61.5 -261.3,-145.3 -397.4,-269.8 -310.2,-517.2 87.3,-247.5 679.3,-625.4 679.3,-625.4"
         style="fill:#c8d9e8;fill-opacity:1;fill-rule:nonzero;stroke:none"
         id="path22" />
      <path
         d="m 17540,11266.5 c 0,0 -23.7,-88.7 -51.7,-210 -13.8,-59.2 -28.6,-126.3 -42.2,-194.6 -9.8,-49 -18.9,-98.8 -26.5,-146.7 l -163.4,-731.8 894.7,16.4 -41.3,556.2 c 0,0 -75.6,129.8 -43.7,671.3 0.5,5.7 0.5,8.9 0.5,8.9 l -526.4,30.3"
         style="fill:#ffb27d;fill-opacity:1;fill-rule:nonzero;stroke:none"
         id="path24" />
      <path
         d="m 17488.3,11056.5 c -13.8,-59.2 -46.8,-223.1 -60.4,-291.4 560,10.9 632.6,406.5 638,462.2 0.5,5.7 0.5,8.9 0.5,8.9 0,0 -326.7,-88.7 -578.1,-179.7"
         style="fill:#e8945b;fill-opacity:1;fill-rule:nonzero;stroke:none"
         id="path26" />
      <path
         d="m 17359.1,11029.3 c 0,0 558.9,-226.1 694.4,124.1 135.4,350.3 298.8,557 -52.3,716.2 -351.2,159.1 -472.6,52.5 -546.3,-53.4 -73.6,-105.9 -237.7,-719 -95.8,-786.9"
         style="fill:#ffb27d;fill-opacity:1;fill-rule:nonzero;stroke:none"
         id="path28" />
      <path
         d="m 17677.7,12048.4 c 0,0 -180.8,-601.4 531.9,-791.8 0,0 285,820.2 -531.9,791.8"
         style="fill:#c8d9e8;fill-opacity:1;fill-rule:nonzero;stroke:none"
         id="path30" />
      <path
         d="m 17788.2,11941.4 c 0,0 -281.4,-229.3 -397.1,-273.4 0,0 -101.3,448.7 397.1,273.4 v 0"
         style="fill:#c8d9e8;fill-opacity:1;fill-rule:nonzero;stroke:none"
         id="path32" />
      <path
         d="m 17629.7,3746.2 c 15.9,-214.4 27.5,-363.3 27.5,-363.3 h -400.9 c 0,0 -43.4,142.3 -107.1,357.6 -108.7,368.7 -277,951.2 -388.4,1399.7 -176.6,710.3 -77.5,2737.9 -77.5,2737.9 0,0 706.3,-51.1 1059.5,-92.2 353.2,-41.1 -153,-2414.2 -190.1,-2508.1 -26.4,-66.7 37.9,-1000.4 77,-1531.6"
         style="fill:#ffb27d;fill-opacity:1;fill-rule:nonzero;stroke:none"
         id="path34" />
      <path
         d="m 19827.8,4755.9 c -3.3,-6.8 -5.2,-10.4 -5.2,-10.4 0,0 -11.3,1.4 -32.3,4.2 h -0.1 c -69.8,9.2 -245.4,33.2 -463.7,69.3 -480.8,79.7 -1168,218 -1383.6,385.6 -342.9,266.8 -812.3,2655.8 -812.3,2655.8 0,0 241.4,341.7 990.8,213.6 749.4,-128 224.4,-2344.6 457.2,-2353.1 153.5,-5.5 638.1,-240.8 977.2,-415.3 175.6,-90.2 312.1,-164.1 343.9,-181.4 83.2,-45.4 -44,-312.4 -71.9,-368.3"
         style="fill:#ffb27d;fill-opacity:1;fill-rule:nonzero;stroke:none"
         id="path36" />
      <path
         d="m 16683.3,7878.1 c 0,0 -328.6,-1632.5 -275.7,-2321.1 53,-688.7 248,-938.4 248,-938.4 0,0 651.6,-320.5 2052.5,692 0,0 477.7,325.8 741,410 43.3,13.9 58.2,67.5 28.6,102.1 -172.6,201.5 -595.7,722.2 -601.9,990.8 -7.9,337.4 -391.3,1552 -760.2,1523.3 -368.9,-28.6 -1432.3,-458.7 -1432.3,-458.7"
         style="fill:#2b478b;fill-opacity:1;fill-rule:nonzero;stroke:none"
         id="path38" />
      <path
         d="m 17657.2,3382.9 h -400.9 c 0,0 -43.4,142.3 -107.1,357.6 114.7,-28.1 298.2,-53.3 480.5,5.7 15.9,-214.4 27.5,-363.3 27.5,-363.3"
         style="fill:#739af0;fill-opacity:1;fill-rule:nonzero;stroke:none"
         id="path40" />
      <path
         d="m 17658.2,3420.6 c 0,0 -226.7,-51.4 -422.3,0 0,0 -183.8,-156.6 -295,-204.6 -111.1,-48 -233.9,-21.9 -245.6,-160.7 H 17711 c 0,0 21.2,202.7 -52.8,365.3"
         style="fill:#2b478b;fill-opacity:1;fill-rule:nonzero;stroke:none"
         id="path42" />
      <path
         d="m 19827.8,4755.9 c -12.4,-2.1 -24.9,-4 -37.5,-6.2 h -0.1 c -69.8,9.2 -245.4,33.2 -463.7,69.3 242.9,191.7 229.3,486.6 229.3,486.6 175.6,-90.2 312.1,-164.1 343.9,-181.4 83.2,-45.4 -44,-312.4 -71.9,-368.3"
         style="fill:#739af0;fill-opacity:1;fill-rule:nonzero;stroke:none"
         id="path44" />
      <path
         d="m 19899.7,5124.2 c 0,0 -75.3,-220 -221.8,-359.3 0,0 36.7,-238.8 19.2,-358.5 -17.6,-119.8 -104.3,-210.6 7.7,-293.5 l 533.5,864.3 c 0,0 -161.4,124.6 -338.6,147"
         style="fill:#2b478b;fill-opacity:1;fill-rule:nonzero;stroke:none"
         id="path46" />
      <path
         d="m 20804.3,8960 c -7,30.9 -59,112.6 -59,112.6 0,0 -1127.2,4.6 -1309.9,12.1 -182.8,7.5 -464.4,1019.1 -644.9,1174.1 -180.5,155 -680.9,297.2 -680.9,297.2 l -4.3,-107.4 -806.6,-38.6 104.8,233.5 c 0,0 -228.4,59.7 -561.3,-18.6 -332.9,-78.2 -991.8,-729.1 -1261.6,-641.5 -269.7,87.6 -988.9,474.9 -988.9,474.9 0,0 -70,-23.9 -103.9,-62.1 -29,-32.8 -47.1,-138.4 -47.1,-138.4 0,0 184.9,-271.6 429.9,-530.8 198.5,-210.1 436.4,-412.2 647.3,-455.1 299.9,-61.1 747.3,42.6 1043.6,130.2 9.3,2.8 18.5,5.5 27.6,8.3 -79.1,-388.3 -120.2,-906.9 -57.9,-1583.2 0,0 81.4,-421.2 840.8,-315.2 400.9,55.9 706.8,122.4 913.5,189.9 184.7,60.1 290.3,121.2 313.9,176.2 19.2,45 -19.7,440.6 -74.7,909.1 216.5,-239.6 497.2,-450.6 814.8,-450.3 588,0.4 1439.6,478.8 1439.6,478.8 0,0 46.1,53 25.2,144.3"
         style="fill:#f99746;fill-opacity:1;fill-rule:nonzero;stroke:none"
         id="path48" />
      <path
         d="m 17403.5,10643.5 c 0,0 1.8,-115.9 127.4,-137.5 125.6,-21.6 578.7,50 578.7,50 v -222.6 l -1185,-31.3 478.9,341.4"
         style="fill:#f99746;fill-opacity:1;fill-rule:nonzero;stroke:none"
         id="path50" />
      <path
         d="m 18599.4,7878.1 c -23.6,-55 -129.2,-116.1 -313.9,-176.2 -315.3,575.9 234.5,1088.1 234.5,1088.1 70,-573.1 102.1,-858.8 79.4,-911.9"
         style="fill:#ed7d2b;fill-opacity:1;fill-rule:nonzero;stroke:none"
         id="path52" />
      <path
         d="m 16561.5,9402.1 c -296.3,-87.6 -743.7,-191.3 -1043.6,-130.2 -210.9,42.9 -448.8,245 -647.3,455.1 l -0.2,0.4 c 0,0 594.5,-326 971.2,-292.8 376.7,33.1 719.9,-32.5 719.9,-32.5"
         style="fill:#ed7d2b;fill-opacity:1;fill-rule:nonzero;stroke:none"
         id="path54" />
      <path
         d="m 17377.9,11256.6 c 0,0 5.9,-59.9 50,-83.5 44.1,-23.5 138.3,20.6 138.3,20.6 0,0 -88.3,66.9 -188.3,62.9"
         style="fill:#ffffff;fill-opacity:1;fill-rule:nonzero;stroke:none"
         id="path56" />
      <path
         d="m 11468.6,10564.1 c 0,0 -284.5,-126 -432.7,108.6 -148.3,234.5 -517.1,242.9 -470,521.3 47.1,278.3 -109.9,670.7 109.8,772.7 219.8,102 445.9,321.8 642.8,337.5 197,15.7 253,-180.5 491.8,-164.8 238.9,15.7 302.1,-145.1 333.3,-253.1 31.1,-107.9 211.7,-217.1 164.6,-468.6 -47.1,-251.5 -8.3,-444.6 -109.8,-573.8 -101.4,-129.2 -729.8,-279.8 -729.8,-279.8"
         style="fill:#c8d9e8;fill-opacity:1;fill-rule:nonzero;stroke:none"
         id="path58" />
      <path
         d="m 10864.3,5049.9 931.5,-1846.6 337.3,17 c 0,0 -274.5,2307.8 -612.6,2445.5 -338.1,137.6 -656.2,-615.9 -656.2,-615.9"
         style="fill:#ffb27d;fill-opacity:1;fill-rule:nonzero;stroke:none"
         id="path60" />
      <path
         d="m 11711.6,5248.9 918.7,-1885.5 361.4,32.3 c 0,0 -285.8,2331.4 -623.9,2469.1 -338.1,137.7 -656.2,-615.9 -656.2,-615.9"
         style="fill:#ffb27d;fill-opacity:1;fill-rule:nonzero;stroke:none"
         id="path62" />
      <path
         d="m 12909.8,4551.2 c -98.7,-73.9 -226.5,-128.1 -369.3,-167.6 -634.7,-175.2 -1564.2,-56 -1537.8,-56 32.2,0 -451.6,954 -473.3,1437.4 -21.8,483.5 949.8,1655.4 949.8,1655.4 l 1944.2,409.8 43.3,9.2 c 609.4,-897.4 -323.7,-1790.2 -673.8,-2070.2 -0.3,-0.2 -0.5,-0.5 -0.8,-0.6 -0.1,-0.1 -0.2,-0.2 -0.2,-0.2 -58.7,-47 -101,-76.5 -116.4,-85.8 0,0 -0.1,0 -0.2,-0.2 -106.8,-66 234.5,-1131.2 234.5,-1131.2"
         style="fill:#c65447;fill-opacity:1;fill-rule:nonzero;stroke:none"
         id="path64" />
      <path
         d="m 12107.3,3420.6 c 0,0 -226.7,-51.4 -422.3,0 0,0 -183.8,-156.6 -295,-204.6 -111.1,-48 -233.9,-21.9 -245.6,-160.7 h 1015.8 c 0,0 21.1,202.7 -52.9,365.3"
         style="fill:#1f3c75;fill-opacity:1;fill-rule:nonzero;stroke:none"
         id="path66" />
      <path
         d="m 12991.7,3434.4 c 0,0 -193.8,-65.2 -389.3,-13.8 0,0 -206.9,-156.6 -318,-204.6 -111.1,-48 -233.9,-21.9 -245.6,-160.7 h 1015.7 c 0,0 11.2,216.5 -62.8,379.1"
         style="fill:#2b478b;fill-opacity:1;fill-rule:nonzero;stroke:none"
         id="path68" />
      <path
         d="m 12909.8,4551.2 c -98.7,-73.9 -226.5,-128.1 -369.3,-167.6 -120.4,160.5 -103.4,400.5 -225.2,695.4 -147.2,356.1 346.4,597 360,603.4 -106.8,-66 234.5,-1131.2 234.5,-1131.2"
         style="fill:#b2443b;fill-opacity:1;fill-rule:nonzero;stroke:none"
         id="path70" />
      <path
         d="m 12792.9,5769.2 c 9.4,8.4 90.4,84.8 283.7,392.9 206,328.5 -128.7,1292.8 -128.7,1292.8 l 475.5,375.3 43.3,9.2 C 14076.1,6942 13143,6049.2 12792.9,5769.2"
         style="fill:#b2443b;fill-opacity:1;fill-rule:nonzero;stroke:none"
         id="path72" />
      <path
         d="m 10146.4,8936.9 c 0,0 -171.48,106.3 -172.21,176 -0.73,69.7 -46.92,281.7 -99.08,344.4 -52.15,62.8 -229.39,164.7 -232.15,120.7 -2.75,-44 106.63,-165.4 85.35,-233.7 -21.28,-68.4 -18.01,-184.3 -42.92,-161.5 -24.92,22.8 -184.72,171.4 -185.74,114.5 -1.01,-56.9 138.16,-182 151.75,-250 13.58,-68 180.86,-110.8 236.72,-168.7 55.85,-57.8 273.48,-246.6 273.48,-246.6 l -15.2,304.9"
         style="fill:#ffb27d;fill-opacity:1;fill-rule:nonzero;stroke:none"
         id="path74" />
      <path
         d="m 11867.9,8337.3 -504.1,1982.7 c 0.5,2.8 -302.1,-204.6 -308.8,-398.3 -5.2,-151.7 111.8,-885.9 185.4,-1224.9 -458.9,182.5 -1122.9,374.1 -1122.9,374.1 C 9910.2,9054 9945.32,8742 9945.32,8742 c 0,0 1137.78,-944.8 1559.38,-902.7 155.2,15.5 148.4,378 160.5,568.5 l 202.7,-70.5"
         style="fill:#4a82d3;fill-opacity:1;fill-rule:nonzero;stroke:none"
         id="path76" />
      <path
         d="m 11223.4,10898.9 c 0,0 19.7,-89.7 50.6,-210.2 15.1,-59 32.8,-125.4 52.2,-192.2 13.9,-48.1 28.7,-96.4 43.9,-142.5 l 297.2,-676.7 388.7,852.9 c 0,0 -126.9,80.5 -347.8,575.9 -2.2,5.3 -3.6,8.2 -3.6,8.2 l -481.2,-215.4"
         style="fill:#ffb27d;fill-opacity:1;fill-rule:nonzero;stroke:none"
         id="path78" />
      <path
         d="m 13438.2,7560.1 c 0,0 -168.8,-41.4 -490.3,-105.2 -54.9,-11 -114.1,-22.5 -177.8,-34.6 -23.5,-4.4 -47.5,-9 -72.2,-13.6 -71.5,-13.4 -147.9,-27.3 -229.2,-41.8 -751.2,-133.3 -1065.6,-62.4 -1065.6,-62.4 0,0 -21.8,11.8 -25.5,91.6 -18.7,411.1 207.8,526 172.3,886.9 -49.6,506.6 -97.3,612 -275.9,1014.3 -155.7,351.2 -419.7,711.8 -101.8,927.5 6.6,4.4 13.2,8.8 20,13.1 52.1,33.8 116.7,83.5 179.2,115.4 31.8,-55 109.6,-143.4 279.2,-103.7 103.8,24.1 179.3,63.3 237,106.4 2.9,2.3 5.9,4.5 8.8,6.8 64.5,50.2 106.1,104.8 140.9,147.3 6.3,7.6 12.3,14.8 18.3,21.6 0.1,0.2 0.3,0.3 0.4,0.5 0.3,0 0.5,0.2 0.7,0 3.6,0.3 12.1,-0.4 23.3,-1.5 44.4,-4.8 131.8,-18 131.8,-18 24.9,-45.2 -11.7,-61.2 7.9,-109.9 68.1,-170.3 788.6,-622.5 799.5,-636.5 50.9,-64.9 112,-123.4 138.5,-197 287.7,-799.6 280.5,-2007.2 280.5,-2007.2"
         style="fill:#739af0;fill-opacity:1;fill-rule:nonzero;stroke:none"
         id="path80" />
      <path
         d="m 11274,10688.7 c 15.1,-59 61.2,-219.6 80.6,-286.5 492.1,267.3 374.5,652 353.6,703.9 -2.2,5.3 -3.6,8.2 -3.6,8.2 0,0 -249.2,-229.1 -430.6,-425.6"
         style="fill:#e8945b;fill-opacity:1;fill-rule:nonzero;stroke:none"
         id="path82" />
      <path
         d="m 11171.9,10605 c 0,0 600.3,56.5 559.3,429.8 -40.9,373.3 9,632 -376,611.7 -385,-20.3 -443.7,-170.9 -460.4,-298.8 -16.6,-127.9 119.9,-747.7 277.1,-742.7"
         style="fill:#ffb27d;fill-opacity:1;fill-rule:nonzero;stroke:none"
         id="path84" />
      <path
         d="m 11078.2,10826.5 c 0,0 33.4,-50.1 83.4,-50.2 50,-0.1 112.4,83 112.4,83 0,0 -109.3,17.7 -195.8,-32.8"
         style="fill:#ffffff;fill-opacity:1;fill-rule:nonzero;stroke:none"
         id="path86" />
      <path
         d="m 13618.1,7614 c 0,0 -348.7,-95.3 -670.2,-159.1 -500.4,866.6 65.5,1549.1 280,1889.4 6,-7.2 390.2,-1730.3 390.2,-1730.3"
         style="fill:#4a82d3;fill-opacity:1;fill-rule:nonzero;stroke:none"
         id="path88" />
      <path
         d="m 13741.1,7984.8 c 0,0 -54.1,-82.1 -150.6,-128.3 -96.5,-46.2 -263.4,-210.6 -228.2,-224.1 35.2,-13.5 177.3,97.2 151.4,48.3 -25.9,-48.9 -294.4,-152.5 -200.5,-199.8 93.9,-47.3 299,-22.1 364,35.6 65,57.8 224.1,334 224.1,334 l -160.2,134.3"
         style="fill:#ffb27d;fill-opacity:1;fill-rule:nonzero;stroke:none"
         id="path90" />
      <path
         d="m 13905.9,7802.5 c 0,0 -105.7,-28.7 -199.6,57.2 -48.4,44.3 -71.3,126.1 -71.3,126.1 0,0 111.9,660.7 208.6,1143.8 -280.4,83.9 -641.9,223.3 -956,382.4 -6,3 -12,6.1 -17.9,9 -296,151.6 -547.3,320 -643.9,474.8 -129.4,207.1 -253.8,313.8 -329.4,365 64.5,50.2 106.1,104.8 140.9,147.3 6.3,7.6 12.3,14.8 18.3,21.6 0.3,0.2 0.8,0.4 1.1,0.5 7.7,3.8 15.5,7.5 23.3,11.2 191.3,90.2 451.6,185 646.3,149.2 347.3,-63.8 1776.4,-1187 1754.1,-1329.4 0,0 37.1,-788.8 -574.5,-1558.7"
         style="fill:#739af0;fill-opacity:1;fill-rule:nonzero;stroke:none"
         id="path92" />
      <path
         d="m 11116.7,11607.1 c 0,0 68.2,-180.3 196.6,-189.4 128.5,-9.1 173,1.1 287.4,-97.4 114.4,-98.5 129.5,-164.8 206,-117.7 76.5,47 -111.8,700.4 -453.2,629.8 -341.4,-70.7 -706.4,-441.5 -653.4,-594.5 53,-153.1 262.5,-292.6 262.5,-292.6 0,0 -56.5,221.9 14.2,316.1 70.6,94.2 44.3,338.3 139.9,345.7"
         style="fill:#c8d9e8;fill-opacity:1;fill-rule:nonzero;stroke:none"
         id="path94" />
      <path
         d="m 22192.2,8567.5 c 0,0 -321.8,27.5 -455.2,-35.3 -133.5,-62.8 -310,-90.2 -259,-145.2 51,-54.9 368.8,-64 494.4,-106.5 125.6,-42.6 340.6,56.4 340.6,56.4 l -120.8,230.6"
         style="fill:#ffb27d;fill-opacity:1;fill-rule:nonzero;stroke:none"
         id="path96" />
      <path
         d="m 22410.9,4389.3 -622.7,5491.9 c 0,0 -85.5,391.3 -430.9,355.4 -368.5,-38.3 -348.5,-436.4 -348.5,-436.4 0,0 8.8,-33.7 46.6,-29.8 39.7,4.1 42.6,39 42.6,39 0,0 -15.4,307 268.8,336.5 266.2,27.7 332.1,-274 332.1,-274 l 571.4,-5497.2 140.6,14.6"
         style="fill:#233862;fill-opacity:1;fill-rule:nonzero;stroke:none"
         id="path98" />
      <path
         d="m 22222.9,4369.8 229.2,23.8 -45.3,237.6 c 0,0 -1.5,33.5 -48,30.6 -43.2,-2.8 -128.8,-5.5 -134.2,-32.3 -4.7,-23.6 -1.7,-259.7 -1.7,-259.7"
         style="fill:#233862;fill-opacity:1;fill-rule:nonzero;stroke:none"
         id="path100" />
      <path
         d="m 22048.9,8421.7 c 0,0 -173.6,-131.2 -261.9,-162.9 -88.3,-31.7 123.8,-51.7 203.1,-19.9 79.3,31.8 224.9,1.7 322.9,98 97.9,96.2 -264.1,84.8 -264.1,84.8"
         style="fill:#ffb27d;fill-opacity:1;fill-rule:nonzero;stroke:none"
         id="path102" />
      <path
         d="m 28557,10620.7 c 0,0 336.2,236.5 381.8,282.2 45.7,45.6 218,324.4 228.1,258.5 10.2,-65.9 -121.6,-395.4 -162.2,-456.2 -40.5,-60.8 168.4,25.3 162.8,-25.4 -5.6,-50.7 -213.5,-167.2 -274.3,-177.4 -60.8,-10.1 -223,-70.9 -223,-70.9 l -113.2,189.2"
         style="fill:#ffb27d;fill-opacity:1;fill-rule:nonzero;stroke:none"
         id="path104" />
      <path
         d="m 24077.1,3557.4 c 0,0 -83.9,-532.7 -184.7,-517.6 -13.4,2 -502.8,112.9 -502.8,112.9 l -631.3,143 c 0,0 45.6,151.7 235.4,142.2 189.8,-9.6 524.5,49.5 689.8,265.8 173.9,227.6 393.6,-146.3 393.6,-146.3"
         style="fill:#163560;fill-opacity:1;fill-rule:nonzero;stroke:none"
         id="path106" />
      <path
         d="m 25402.8,6135.8 c -76.8,-139.7 -127.9,-240.9 -132.4,-284 -88.7,-848.6 -1156.9,-2413.6 -1156.9,-2413.6 -314,-96.4 -682.2,121.2 -682.2,121.2 302.6,677.2 824,2749.1 1145.9,4089.9 168,699.4 281.6,1199.9 281.6,1199.9 0,0 805.7,-74.1 975,-104 1020.7,-180.3 -39.7,-1897.4 -431,-2609.4"
         style="fill:#2b478b;fill-opacity:1;fill-rule:nonzero;stroke:none"
         id="path108" />
      <path
         d="m 25402.8,6135.8 -825.6,1513.5 c 168,699.4 281.6,1199.9 281.6,1199.9 0,0 805.7,-74.1 975,-104 1020.7,-180.3 -39.7,-1897.4 -431,-2609.4"
         style="fill:#233862;fill-opacity:1;fill-rule:nonzero;stroke:none"
         id="path110" />
      <path
         d="m 26712.1,3602.3 c 0,0 35.7,-538 -65.9,-545.5 -13.5,-1 -515.3,-1 -515.3,-1 h -647.3 c 0,0 10.9,158 198.2,190.6 187.2,32.7 500.6,164.3 614,411.7 119.4,260.4 416.3,-55.8 416.3,-55.8"
         style="fill:#163560;fill-opacity:1;fill-rule:nonzero;stroke:none"
         id="path112" />
      <path
         d="m 26742,3408.4 c -329.5,-87.1 -704.3,-52.4 -704.3,-52.4 -282.5,2406.9 -707,4113.9 -932.7,4911.5 -23.7,83.1 -45,156.5 -63.8,219.6 -56.7,190.1 -90.4,288.4 -90.4,288.4 0,0 697.8,352.2 1326.4,289.8 129.1,-12.8 218,-119.7 279.2,-284.6 18.4,-49.2 34.1,-103.5 47.8,-162.1 v -0.2 c 163.6,-700.6 21.4,-2003.4 137.8,-2266 158.7,-358.2 0,-2944 0,-2944"
         style="fill:#2b478b;fill-opacity:1;fill-rule:nonzero;stroke:none"
         id="path114" />
      <path
         d="m 25125.8,11708.3 -319.2,-809.7 -384.2,581.7 c -1.3,25.9 -4.8,51.6 -10,76.8 -17.3,83.4 -53.3,162 -92,227.9 -66.3,113.1 -140.4,189.1 -140.4,189.1 l 493.3,316.7 c 47.3,-101.3 104.7,-192.5 162.5,-270.9 0.2,-0.2 0.3,-0.5 0.5,-0.7 143.6,-194.5 289.5,-310.9 289.5,-310.9"
         style="fill:#ffb27d;fill-opacity:1;fill-rule:nonzero;stroke:none"
         id="path116" />
      <path
         d="m 24836.7,12020 c 0,0 -0.1,-0.3 -0.4,-0.8 -9,-19.4 -190.7,-403.8 -423.9,-462.1 -17.3,83.4 -53.3,162 -92,227.9 102.4,108.3 291,216.8 515.4,234.9 0.3,0.1 0.6,0.1 0.9,0.1"
         style="fill:#e8945b;fill-opacity:1;fill-rule:nonzero;stroke:none"
         id="path118" />
      <path
         d="m 28689.8,10615.9 c -61.2,66.4 -175.9,98.1 -175.9,98.1 l -1258.8,-149.3 c -33.7,-3.8 -67.2,7.8 -91.4,31.5 -184.6,181.2 -983.5,962.3 -1151.1,1071.4 -297,193.3 -871,49.6 -871,49.6 0,0 0.1,-0.1 0.1,-0.1 -0.1,0 -0.1,0.1 -0.1,0.1 0,0 -5.2,-0.6 -18.1,-3.1 -58.2,-85 -199,-255.9 -428.9,-328.6 -155.6,-49.2 -238,41.6 -272.3,97.5 0,0 -370.5,-140.5 -555.5,-562.1 -147.8,-336.6 -405.9,-1102.9 -562.4,-1578.5 l -1174.3,-713.7 c 0,0 -7.5,-194.9 175.1,-366.3 0,0 2.9,0.7 8.7,2.2 109.2,28.3 1216.7,318.4 1361.6,502.3 142.4,79.9 472.3,560.2 728.3,956.7 v -0.1 c 90.3,-156.3 162.1,-285.8 183.3,-337.1 74.2,-179 34.4,-568.7 85.6,-997.7 9.9,-83.3 31.3,-94.7 31.3,-94.7 0,0 300.1,-59.7 992.3,114.2 48.8,12.3 96.2,24.4 142,36.2 179,46.3 332.9,88.7 456.5,123.9 34.6,9.8 66.7,19.1 96.5,27.7 160.4,46.9 509.4,180.6 57.9,1220.1 -14,32.5 -35.9,108.7 -62.1,207.4 -0.1,0.2 -0.1,0.3 -0.1,0.5 100.4,-39.6 208.5,-73.9 324.6,-101 143.4,-33.4 420,-110.8 523.9,-100.1 416,43.2 1563.7,596.2 1563.7,596.2 0,0 -44.5,126.5 -109.4,196.8"
         style="fill:#c65447;fill-opacity:1;fill-rule:nonzero;stroke:none"
         id="path120" />
      <path
         d="m 26390.4,8592.4 c -29.8,-8.6 -61.9,-17.9 -96.5,-27.8 -398.4,437.7 92,1455.8 92,1455.8 l 0.3,-0.5 c 26.2,-98.7 48.1,-174.9 62.1,-207.4 451.5,-1039.5 102.4,-1173.2 -57.9,-1220.1"
         style="fill:#b2443b;fill-opacity:1;fill-rule:nonzero;stroke:none"
         id="path122" />
      <path
         d="m 24192.8,11712.2 c 0,0 671.6,6.5 661.1,424.7 -10.5,418.2 69.1,700.7 -360.1,714.2 -429.3,13.5 -508.6,-148.2 -539,-288.6 -30.5,-140.5 63,-841.3 238,-850.3"
         style="fill:#ffb27d;fill-opacity:1;fill-rule:nonzero;stroke:none"
         id="path124" />
      <path
         d="m 24402.9,9720 c -256,-396.5 -585.9,-876.8 -728.3,-956.8 -145,-183.8 -1252.4,-473.9 -1361.6,-502.2 165.1,235.5 1109.7,484.5 1342.8,728.4 253.1,264.9 747.1,730.6 747.1,730.6"
         style="fill:#b2443b;fill-opacity:1;fill-rule:nonzero;stroke:none"
         id="path126" />
      <path
         d="m 24404.3,9722.2 c -0.3,-0.7 -0.8,-1.4 -1.4,-2.2 0.6,1.1 1.1,1.8 1.4,2.2"
         style="fill:#b2443b;fill-opacity:1;fill-rule:nonzero;stroke:none"
         id="path128" />
      <path
         d="m 23949.3,12468.1 c 0,0 -334.7,376.7 -46.3,641.6 288.5,264.8 736.6,88.2 951,23.5 214.5,-64.8 168.4,-699.3 -0.1,-996.3 0,0 -109.1,189.9 -79.7,290 29.4,100 -45.2,264.8 -113.8,188.3 -68.7,-76.5 -594.3,359 -711.1,-147.1"
         style="fill:#c8d9e8;fill-opacity:1;fill-rule:nonzero;stroke:none"
         id="path130" />
      <path
         d="m 24195.7,12085.8 c 0,0 127.2,39.2 193.9,-35.4 66.7,-74.5 102.1,-92.2 102.1,-92.2 0,0 -188.4,-25.5 -286.5,47.1 0,0 -94.2,-93.6 -182.5,-91.9 0,0 60.9,165.1 173,172.4"
         style="fill:#c8d9e8;fill-opacity:1;fill-rule:nonzero;stroke:none"
         id="path132" />
      <path
         d="m 4798.51,3602.3 c 0,0 35.74,-538 -65.86,-545.5 -13.51,-1 -515.3,-1 -515.3,-1 h -647.27 c 0,0 10.9,158 198.14,190.6 187.24,32.7 500.64,164.3 614.06,411.7 119.32,260.4 416.23,-55.8 416.23,-55.8"
         style="fill:#163560;fill-opacity:1;fill-rule:nonzero;stroke:none"
         id="path134" />
      <path
         d="m 6263.65,7614.9 c 0,0 -1087.87,-1769.3 -1090.29,-2083.8 -2.41,-314.5 886.4,-2285.3 886.4,-2285.3 0,0 504.59,47.3 614.88,265.4 0,0 -485.7,2011.9 -399.4,2039.8 86.32,28 1340.93,1163.3 1449.45,1563.8 108.53,400.5 -506.33,1263.4 -1461.04,500.1"
         style="fill:#233862;fill-opacity:1;fill-rule:nonzero;stroke:none"
         id="path136" />
      <path
         d="M 6716.86,7747.4 4166.21,3472.1 c 0,0 298.22,-184.8 674.94,-63.8 0,0 1495.07,1473.9 1518.61,1752.8 23.55,279 2420.89,2150.7 1330.26,2845.3 -1090.63,694.6 -973.16,-259 -973.16,-259"
         style="fill:#2b478b;fill-opacity:1;fill-rule:nonzero;stroke:none"
         id="path138" />
      <path
         d="m 4105.38,9663.8 c 0,0 -159.1,167.3 -192.37,234 -33.26,66.7 -194.15,219.8 -221.61,200.1 -27.47,-19.6 86.32,-172.6 70.63,-176.6 -15.7,-3.9 -294.31,282.6 -337.47,263 -43.17,-19.7 -51.02,-321.8 86.32,-474.9 137.35,-153 455.2,-266.8 455.2,-266.8 l 139.3,221.2"
         style="fill:#ffb27d;fill-opacity:1;fill-rule:nonzero;stroke:none"
         id="path140" />
      <path
         d="m 8685.7,8775.8 c 0,0 -1.91,-230.9 -24.35,-302 -22.45,-71 -13.15,-292.9 20.24,-297.9 33.39,-5 57.94,184.2 71.95,176.1 14.01,-8.1 15.22,-407.7 59.9,-423.6 44.67,-15.9 260.32,195.9 267.94,401.4 7.62,205.5 -141.81,508.2 -141.81,508.2 l -253.87,-62.2"
         style="fill:#ffb27d;fill-opacity:1;fill-rule:nonzero;stroke:none"
         id="path142" />
      <path
         d="m 6665.31,10888 c 0,0 1491.95,-231.9 1951.39,-953 459.45,-721.1 410.78,-1328.1 410.78,-1328.1 0,0 -282.66,-84.8 -368.11,-57.9 0,0 -528.2,1049.3 -594.76,1025.6 -66.55,-23.7 -927.88,21.7 -1051.17,134.7 -123.29,113 -348.13,1178.7 -348.13,1178.7"
         style="fill:#ed7d2b;fill-opacity:1;fill-rule:nonzero;stroke:none"
         id="path144" />
      <path
         d="m 6619.28,3602.3 c 0,0 35.74,-538 -65.86,-545.5 -13.51,-1 -515.3,-1 -515.3,-1 h -647.27 c 0,0 10.9,158 198.14,190.6 187.24,32.7 500.63,164.3 614.06,411.7 119.32,260.4 416.23,-55.8 416.23,-55.8"
         style="fill:#163560;fill-opacity:1;fill-rule:nonzero;stroke:none"
         id="path146" />
      <path
         d="m 5732.31,11137.5 c 0,0 168.28,-99.5 203.65,-355.8 l 513.58,-661.5 234.63,841.5 c 0,0 -293.11,196.4 -487.88,534 l -463.98,-358.2"
         style="fill:#ffb27d;fill-opacity:1;fill-rule:nonzero;stroke:none"
         id="path148" />
      <path
         d="m 5720.16,10890.5 c 0,0 640.4,152.4 543.98,535.4 -96.43,383.1 2.75,684.3 -479.91,583.2 -396.91,-83.1 -480.15,-282.1 -479.06,-417.8 1.08,-135.7 174.73,-747.1 414.99,-700.8"
         style="fill:#ffb27d;fill-opacity:1;fill-rule:nonzero;stroke:none"
         id="path150" />
      <path
         d="m 5413.29,11194.8 c 0,0 15.69,-523.6 244.24,-533 228.55,-9.4 767.71,203.4 597.26,802.3 0,0 -241.81,-256.4 -382.14,-291.5 -140.34,-35.1 -252.91,19.6 -363.63,-79.6 0,0 -47.91,-10.2 -95.73,101.8"
         style="fill:#2b478b;fill-opacity:1;fill-rule:nonzero;stroke:none"
         id="path152" />
      <path
         d="m 6078.76,11965.2 c -21.66,35.7 -75.21,42.5 -75.21,42.5 -400.4,53.9 -612.45,-189.8 -612.45,-189.8 135.08,355.2 679.61,443.4 865.77,210.5 303.93,-380.2 -2.08,-564.3 -2.08,-564.3 0,0 -370.6,45.1 -228.44,274 47.1,75.8 63.22,135.9 60.7,183.5 v 0 0 c -0.84,15.9 -3.74,30.4 -8.29,43.6"
         style="fill:#2b478b;fill-opacity:1;fill-rule:nonzero;stroke:none"
         id="path154" />
      <path
         d="m 5733.12,11034.6 c 0,0 0.16,-44.9 -106.93,-63.6 0,0 -89.91,-15.7 -98.35,31.6 0,0 77.97,53.7 205.28,32"
         style="fill:#ffffff;fill-opacity:1;fill-rule:nonzero;stroke:none"
         id="path156" />
      <path
         d="m 8200.12,8147.7 c -88.3,-1051.5 -328.33,-780.3 -1318.49,-727.3 -934.36,50 -564.72,635.8 -609.22,1168.4 -2.59,31.8 -6.71,63.3 -12.71,94.5 -30.61,160.6 -78.99,345.6 -124.67,538 -112.42,473 -208.48,989.8 15.89,1293.4 315.62,427.1 479.6,489.4 479.6,489.4 827,-231.2 1657.89,-1804.9 1569.6,-2856.4"
         style="fill:#f99746;fill-opacity:1;fill-rule:nonzero;stroke:none"
         id="path158" />
      <path
         d="m 7195.59,9789.9 c -4.47,-18.5 -323.73,-951.9 -923.18,-1201.1 -2.59,31.8 -6.71,63.3 -12.71,94.5 -30.61,160.6 -78.99,345.6 -124.67,538 28.26,23.3 57.45,42.5 87,56.5 310.43,147.3 965.68,499.3 973.56,512.1"
         style="fill:#ed7d2b;fill-opacity:1;fill-rule:nonzero;stroke:none"
         id="path160" />
      <path
         d="m 7448.69,9948.8 c 0,0 -1161.15,-1156.8 -2035.4,-1156.8 -742.84,0 -1516.86,635.9 -1516.86,635.9 0,0 -29.43,214.8 206.69,320.9 0,0 1184.53,-205.7 1256.01,-239.5 141.26,-66.7 1094.18,1093 1263.55,1172.6 520.03,244.1 826.01,-733.1 826.01,-733.1"
         style="fill:#f99746;fill-opacity:1;fill-rule:nonzero;stroke:none"
         id="path162" />
      <path
         d="M 29794.9,2981.5 H 2056.2 c -17.33,0 -31.5,14.2 -31.5,31.5 v 10.8 c 0,17.3 14.17,31.5 31.5,31.5 h 27738.7 c 17.3,0 31.4,-14.2 31.4,-31.5 V 3013 c 0,-17.3 -14.1,-31.5 -31.4,-31.5"
         style="fill:#2e3552;fill-opacity:1;fill-rule:nonzero;stroke:none"
         id="path164" />
    </g>
  </g>
</svg>
